<?xml version="1.0" encoding="UTF-8" standalone="no"?>
<!-- Created with Inkscape (http://www.inkscape.org/) -->

<svg
   width="617.1427mm"
   height="540.82697mm"
   viewBox="0 0 617.1427 540.82697"
   version="1.1"
   id="svg1"
   inkscape:version="1.4.2 (f4327f4, 2025-05-13)"
   sodipodi:docname="basket.svg"
   xmlns:inkscape="http://www.inkscape.org/namespaces/inkscape"
   xmlns:sodipodi="http://sodipodi.sourceforge.net/DTD/sodipodi-0.dtd"
   xmlns="http://www.w3.org/2000/svg"
   xmlns:svg="http://www.w3.org/2000/svg">
  <sodipodi:namedview
     id="namedview1"
     pagecolor="#ffffff"
     bordercolor="#000000"
     borderopacity="0.25"
     inkscape:showpageshadow="2"
     inkscape:pageopacity="0.0"
     inkscape:pagecheckerboard="0"
     inkscape:deskcolor="#d1d1d1"
     inkscape:document-units="mm"
     inkscape:zoom="0.17438447"
     inkscape:cx="2374.0646"
     inkscape:cy="1252.9785"
     inkscape:window-width="1920"
     inkscape:window-height="1001"
     inkscape:window-x="-9"
     inkscape:window-y="-9"
     inkscape:window-maximized="1"
     inkscape:current-layer="layer1" />
  <defs
     id="defs1" />
  <g
     inkscape:label="Layer 1"
     inkscape:groupmode="layer"
     id="layer1"
     transform="translate(393.17084,208.22708)">
    <path
       fill-rule="evenodd"
       fill="#bb7342"
       fill-opacity="1"
       d="m -295.61502,23.634743 h -41.0249 c -2.36265,0 -4.57027,-1.148265 -5.91902,-3.079935 -1.35599,-1.930611 -1.68052,-4.39973 -0.8754,-6.616647 l 57.20684,-157.615171 c 11.75845,-32.40321 29.74702,-48.15107 54.99613,-48.15107 h 64.08497 c 3.99563,0 7.23368,3.23804 7.23368,7.23056 v 38.61575 c 0,-3.99254 -3.23805,-7.23059 -7.23368,-7.23059 h -64.08497 c -9.23665,0 -14.34848,10.66292 -18.49707,22.17746 l -52.67791,144.964806 c -0.80719,2.220013 -0.47646,4.686009 0.87334,6.619743 1.34874,1.936829 3.55843,3.085094 5.91799,3.085094 z m 463.03218,0 h -40.5691 c 2.36265,0 4.58267,-1.155488 5.92625,-3.095439 1.35289,-1.93683 1.67224,-4.41833 0.85783,-6.630062 l -52.930107,-144.012922 -0.22426,-0.61909 c -4.220925,-11.68403 -9.429909,-22.48959 -18.897045,-22.48959 H -2.0856673 c -3.9904458,0 -7.2367774,3.23805 -7.2367774,7.23059 v -38.61575 c 0,-3.99252 3.2463316,-7.23056 7.2367774,-7.23056 H 61.580728 c 25.410345,0 43.534302,15.8719 55.416772,48.53244 l 57.21098,157.230706 c 0.80201,2.214853 0.48162,4.691194 -0.87334,6.619742 -1.35186,1.929606 -3.56049,3.079935 -5.91798,3.079935"
       id="path177"
       style="stroke-width:0.264583" />
    <path
       fill-rule="evenodd"
       fill="#ffbc85"
       fill-opacity="1"
       d="m 105.69484,332.59986 h -379.81247 c -33.49564,0 -60.58753,-17.43358 -63.02769,-40.54739 L -359.25456,82.711227 c -0.21601,-2.040176 0.44648,-4.07416 1.81798,-5.590355 1.37046,-1.532731 3.32589,-2.405009 5.37331,-2.405009 h 142.39544 c 1.92133,0 3.75791,0.761709 5.11183,2.11873 L -84.609816,196.79419 35.341497,76.834593 c 1.363239,-1.351862 3.199818,-2.11873 5.118047,-2.11873 H 182.85292 c 2.05052,0 4.00802,0.872278 5.37641,2.393632 1.36734,1.527572 2.02571,3.561556 1.8097,5.601732 l -22.1144,209.822863 c -2.40192,22.83891 -29.15687,40.06577 -62.22979,40.06577"
       id="path178"
       style="stroke-width:0.264583" />
    <path
       fill-rule="evenodd"
       fill="#d78955"
       fill-opacity="1"
       d="m -248.56364,129.38642 h -33.2083 c -3.99254,0 -7.23059,-3.24114 -7.23059,-7.22849 0,-3.99047 3.23805,-7.23162 7.23059,-7.23162 h 33.2083 c 3.98941,0 7.23056,3.24115 7.23056,7.23162 0,3.98735 -3.24115,7.22849 -7.23056,7.22849"
       id="path179"
       style="stroke-width:0.264583" />
    <path
       fill-rule="evenodd"
       fill="#d78955"
       fill-opacity="1"
       d="m -176.33755,129.38642 h -33.20833 c -3.99251,0 -7.23365,-3.24114 -7.23365,-7.22849 0,-3.99047 3.24114,-7.23162 7.23365,-7.23162 h 33.20833 c 3.98941,0 7.23056,3.24115 7.23056,7.23162 0,3.98735 -3.24115,7.22849 -7.23056,7.22849"
       id="path180"
       style="stroke-width:0.264583" />
    <path
       fill-rule="evenodd"
       fill="#d78955"
       fill-opacity="1"
       d="M 40.329316,129.38642 H 7.1220443 c -3.9904723,0 -7.23161807,-3.24114 -7.23161807,-7.22849 0,-3.99047 3.24114577,-7.23162 7.23161807,-7.23162 H 40.329316 c 3.995632,0 7.231592,3.24115 7.231592,7.23162 0,3.98735 -3.23596,7.22849 -7.231592,7.22849"
       id="path181"
       style="stroke-width:0.264583" />
    <path
       fill-rule="evenodd"
       fill="#d78955"
       fill-opacity="1"
       d="M 112.55228,129.38642 H 79.347076 c -3.99251,0 -7.228496,-3.24114 -7.228496,-7.22849 0,-3.99047 3.241145,-7.23162 7.228496,-7.23162 h 33.205204 c 3.99254,0 7.23678,3.24115 7.23678,7.23162 0,3.98735 -3.24424,7.22849 -7.23678,7.22849"
       id="path182"
       style="stroke-width:0.264583" />
    <path
       fill-rule="evenodd"
       fill="#d78955"
       fill-opacity="1"
       d="m -212.45317,169.91003 h -33.20833 c -3.99251,0 -7.23366,-3.24114 -7.23366,-7.22849 0,-3.99045 3.24115,-7.23159 7.23366,-7.23159 h 33.20833 c 3.99251,0 7.23056,3.24114 7.23056,7.23159 0,3.98735 -3.2329,7.22849 -7.23056,7.22849"
       id="path183"
       style="stroke-width:0.264583" />
    <path
       fill-rule="evenodd"
       fill="#d78955"
       fill-opacity="1"
       d="m -140.23021,169.91003 h -33.2052 c -3.99564,0 -7.23366,-3.24114 -7.23366,-7.22849 0,-3.99045 3.23802,-7.23159 7.23366,-7.23159 h 33.2052 c 3.99251,0 7.23056,3.24114 7.23056,7.23159 0,3.98735 -3.23492,7.22849 -7.23056,7.22849"
       id="path184"
       style="stroke-width:0.264583" />
    <path
       fill-rule="evenodd"
       fill="#d78955"
       fill-opacity="1"
       d="M 4.2219464,169.91003 H -28.988421 c -3.98735,0 -7.231591,-3.24114 -7.231591,-7.22849 0,-3.99045 3.244241,-7.23159 7.231591,-7.23159 H 4.2219464 c 3.9873766,0 7.2305866,3.24114 7.2305866,7.23159 0,3.98735 -3.24321,7.22849 -7.2305866,7.22849"
       id="path185"
       style="stroke-width:0.264583" />
    <path
       fill-rule="evenodd"
       fill="#d78955"
       fill-opacity="1"
       d="M 76.434595,169.91003 H 43.234573 c -3.992536,0 -7.231618,-3.24114 -7.231618,-7.22849 0,-3.99045 3.244242,-7.23159 7.231618,-7.23159 h 33.200022 c 3.992536,0 7.230586,3.24114 7.230586,7.23159 0,3.98735 -3.23805,7.22849 -7.230586,7.22849"
       id="path186"
       style="stroke-width:0.264583" />
    <path
       fill-rule="evenodd"
       fill="#d78955"
       fill-opacity="1"
       d="m -248.56364,210.43883 h -33.2083 c -3.99254,0 -7.23059,-3.24115 -7.23059,-7.2285 0,-3.98941 3.23805,-7.23056 7.23059,-7.23056 h 33.2083 c 3.98941,0 7.23056,3.24115 7.23056,7.23056 0,3.98735 -3.24115,7.2285 -7.23056,7.2285"
       id="path187"
       style="stroke-width:0.264583" />
    <path
       fill-rule="evenodd"
       fill="#d78955"
       fill-opacity="1"
       d="m -176.33755,210.43883 h -33.20833 c -3.99251,0 -7.23365,-3.24115 -7.23365,-7.2285 0,-3.98941 3.24114,-7.23056 7.23365,-7.23056 h 33.20833 c 3.98941,0 7.23056,3.24115 7.23056,7.23056 0,3.98735 -3.24115,7.2285 -7.23056,7.2285"
       id="path188"
       style="stroke-width:0.264583" />
    <path
       fill-rule="evenodd"
       fill="#d78955"
       fill-opacity="1"
       d="m -104.11974,210.43883 h -33.20315 c -3.98941,0 -7.23368,-3.24115 -7.23368,-7.2285 0,-3.98941 3.24427,-7.23056 7.23368,-7.23056 h 33.20315 c 3.99251,0 7.233654,3.24115 7.233654,7.23056 0,3.98735 -3.235984,7.2285 -7.233654,7.2285"
       id="path189"
       style="stroke-width:0.264583" />
    <path
       fill-rule="evenodd"
       fill="#d78955"
       fill-opacity="1"
       d="m -31.896774,210.43883 h -33.205208 c -3.992509,0 -7.230559,-3.24115 -7.230559,-7.2285 0,-3.98941 3.243209,-7.23056 7.230559,-7.23056 h 33.205208 c 3.992536,0 7.233682,3.24115 7.233682,7.23056 0,3.98735 -3.241146,7.2285 -7.233682,7.2285"
       id="path190"
       style="stroke-width:0.264583" />
    <path
       fill-rule="evenodd"
       fill="#d78955"
       fill-opacity="1"
       d="M 40.329316,210.43883 H 7.1220443 c -3.9904723,0 -7.23161807,-3.24115 -7.23161807,-7.2285 0,-3.98941 3.24114577,-7.23056 7.23161807,-7.23056 H 40.329316 c 3.995632,0 7.231592,3.24115 7.231592,7.23056 0,3.98735 -3.23596,7.2285 -7.231592,7.2285"
       id="path191"
       style="stroke-width:0.264583" />
    <path
       fill-rule="evenodd"
       fill="#d78955"
       fill-opacity="1"
       d="M 112.55228,210.43883 H 79.347076 c -3.99251,0 -7.228496,-3.24115 -7.228496,-7.2285 0,-3.98941 3.241145,-7.23056 7.228496,-7.23056 h 33.205204 c 3.99254,0 7.23678,3.24115 7.23678,7.23056 0,3.98735 -3.24424,7.2285 -7.23678,7.2285"
       id="path192"
       style="stroke-width:0.264583" />
    <path
       fill-rule="evenodd"
       fill="#d78955"
       fill-opacity="1"
       d="m -212.45317,250.95937 h -33.20833 c -3.99251,0 -7.23366,-3.24324 -7.23366,-7.23059 0,-3.98735 3.24115,-7.23159 7.23366,-7.23159 h 33.20833 c 3.99251,0 7.23056,3.24424 7.23056,7.23159 0,3.98735 -3.2329,7.23059 -7.23056,7.23059"
       id="path193"
       style="stroke-width:0.264583" />
    <path
       fill-rule="evenodd"
       fill="#d78955"
       fill-opacity="1"
       d="m -140.23021,250.95937 h -33.2052 c -3.99564,0 -7.23366,-3.24324 -7.23366,-7.23059 0,-3.98735 3.23802,-7.23159 7.23366,-7.23159 h 33.2052 c 3.99251,0 7.23056,3.24424 7.23056,7.23159 0,3.98735 -3.23492,7.23059 -7.23056,7.23059"
       id="path194"
       style="stroke-width:0.264583" />
    <path
       fill-rule="evenodd"
       fill="#d78955"
       fill-opacity="1"
       d="m -68.007212,250.95937 h -33.205208 c -3.99254,0 -7.23059,-3.24324 -7.23059,-7.23059 0,-3.98735 3.23805,-7.23159 7.23059,-7.23159 h 33.205208 c 3.992509,0 7.23675,3.24424 7.23675,7.23159 0,3.98735 -3.244241,7.23059 -7.23675,7.23059"
       id="path195"
       style="stroke-width:0.264583" />
    <path
       fill-rule="evenodd"
       fill="#d78955"
       fill-opacity="1"
       d="M 4.2219464,250.95937 H -28.988421 c -3.98735,0 -7.231591,-3.24324 -7.231591,-7.23059 0,-3.98735 3.244241,-7.23159 7.231591,-7.23159 H 4.2219464 c 3.9873766,0 7.2305866,3.24424 7.2305866,7.23159 0,3.98735 -3.24321,7.23059 -7.2305866,7.23059"
       id="path196"
       style="stroke-width:0.264583" />
    <path
       fill-rule="evenodd"
       fill="#d78955"
       fill-opacity="1"
       d="M 76.434595,250.95937 H 43.234573 c -3.992536,0 -7.231618,-3.24324 -7.231618,-7.23059 0,-3.98735 3.244242,-7.23159 7.231618,-7.23159 h 33.200022 c 3.992536,0 7.230586,3.24424 7.230586,7.23159 0,3.98735 -3.23805,7.23059 -7.230586,7.23059"
       id="path197"
       style="stroke-width:0.264583" />
    <path
       fill-rule="evenodd"
       fill="#d78955"
       fill-opacity="1"
       d="m -248.56364,291.48298 h -33.2083 c -3.99254,0 -7.23059,-3.24321 -7.23059,-7.23056 0,-3.98735 3.23805,-7.23159 7.23059,-7.23159 h 33.2083 c 3.98941,0 7.23056,3.24424 7.23056,7.23159 0,3.98735 -3.24115,7.23056 -7.23056,7.23056"
       id="path198"
       style="stroke-width:0.264583" />
    <path
       fill-rule="evenodd"
       fill="#d78955"
       fill-opacity="1"
       d="m -176.33755,291.48298 h -33.20833 c -3.99251,0 -7.23365,-3.24321 -7.23365,-7.23056 0,-3.98735 3.24114,-7.23159 7.23365,-7.23159 h 33.20833 c 3.98941,0 7.23056,3.24424 7.23056,7.23159 0,3.98735 -3.24115,7.23056 -7.23056,7.23056"
       id="path199"
       style="stroke-width:0.264583" />
    <path
       fill-rule="evenodd"
       fill="#d78955"
       fill-opacity="1"
       d="m -104.11974,291.48298 h -33.20315 c -3.98941,0 -7.23368,-3.24321 -7.23368,-7.23056 0,-3.98735 3.24427,-7.23159 7.23368,-7.23159 h 33.20315 c 3.99251,0 7.233654,3.24424 7.233654,7.23159 0,3.98735 -3.235984,7.23056 -7.233654,7.23056"
       id="path200"
       style="stroke-width:0.264583" />
    <path
       fill-rule="evenodd"
       fill="#d78955"
       fill-opacity="1"
       d="m -31.896774,291.48298 h -33.205208 c -3.992509,0 -7.230559,-3.24321 -7.230559,-7.23056 0,-3.98735 3.243209,-7.23159 7.230559,-7.23159 h 33.205208 c 3.992536,0 7.233682,3.24424 7.233682,7.23159 0,3.98735 -3.241146,7.23056 -7.233682,7.23056"
       id="path201"
       style="stroke-width:0.264583" />
    <path
       fill-rule="evenodd"
       fill="#d78955"
       fill-opacity="1"
       d="M 40.329316,291.48298 H 7.1220443 c -3.9904723,0 -7.23161807,-3.24321 -7.23161807,-7.23056 0,-3.98735 3.24114577,-7.23159 7.23161807,-7.23159 H 40.329316 c 3.995632,0 7.231592,3.24424 7.231592,7.23159 0,3.98735 -3.23596,7.23056 -7.231592,7.23056"
       id="path202"
       style="stroke-width:0.264583" />
    <path
       fill-rule="evenodd"
       fill="#d78955"
       fill-opacity="1"
       d="M 112.55228,291.48298 H 79.347076 c -3.99251,0 -7.228496,-3.24321 -7.228496,-7.23056 0,-3.98735 3.241145,-7.23159 7.228496,-7.23159 h 33.205204 c 3.99254,0 7.23678,3.24424 7.23678,7.23159 0,3.98735 -3.24424,7.23056 -7.23678,7.23056"
       id="path203"
       style="stroke-width:0.264583" />
    <path
       fill-rule="evenodd"
       fill="#d78955"
       fill-opacity="1"
       d="M -209.67299,89.1832 H -369.6808 c -12.95528,0 -23.49004,-10.540974 -23.49004,-23.493148 V 32.665713 c 0,-12.95736 10.53476,-23.4931473 23.49004,-23.4931473 h 94.46245 c 1.92133,0 3.75997,0.7596452 5.11183,2.1197623 l 65.54846,65.542265 c 2.06602,2.072217 2.6851,5.181071 1.5689,7.884795 -1.12242,2.696474 -3.75999,4.463812 -6.68383,4.463812"
       id="path204"
       style="stroke-width:0.264583" />
    <path
       fill-rule="evenodd"
       fill="#d78955"
       fill-opacity="1"
       d="M 200.46322,89.1832 H 40.459544 c -2.923858,0 -5.559346,-1.767338 -6.678665,-4.468998 -1.126543,-2.698538 -0.505408,-5.807392 1.566836,-7.879609 L 100.89202,11.289232 c 1.3653,-1.3570211 3.19981,-2.1187301 5.11804,-2.1187301 l 94.46348,0.00265 c 12.95426,0 23.4983,10.5357871 23.4983,23.4931471 v 33.024339 c -0.0217,12.952174 -10.55748,23.493148 -23.50862,23.493148"
       id="path205"
       style="stroke-width:0.264583" />
    <path
       fill-rule="evenodd"
       fill="#ffbc85"
       fill-opacity="1"
       d="M -10.724922,-122.34911 H -158.48955 c -8.7602,0 -15.88225,-7.12205 -15.88225,-15.87706 v -54.12591 c 0,-8.75502 7.12205,-15.875 15.88225,-15.875 h 147.764628 c 8.7498505,0 15.8780959,7.11998 15.8780959,15.875 v 54.12279 c 0,8.75813 -7.1282454,15.88018 -15.8780959,15.88018"
       id="path206"
       style="stroke-width:0.264583" />
    <path
       fill-rule="evenodd"
       fill="#fd5a64"
       fill-opacity="1"
       d="m -84.609816,159.62539 c 1.844833,0 3.688662,-0.70382 5.104579,-2.10632 L 69.330136,9.1725657 H -238.55495 L -89.710295,157.51391 c 1.409726,1.4056 3.251491,2.11148 5.100479,2.11148 z m 0,54.62095 c -1.91823,0 -3.756899,-0.75964 -5.111856,-2.11976 L -292.5775,9.1725657 l -0.003,-0.00265 H 123.59083 L -79.505819,212.126 c -1.344612,1.36011 -3.191536,2.11976 -5.10458,2.11976"
       id="path207"
       style="stroke-width:0.264583" />
    <path
       fill-rule="evenodd"
       fill="#ffe5e5"
       fill-opacity="1"
       d="m -84.609816,159.62539 c -1.848988,0 -3.690753,-0.70588 -5.100479,-2.11148 L -238.55495,9.1725657 H 69.330136 L -79.505237,157.51907 c -1.415917,1.4025 -3.259746,2.10632 -5.104579,2.10632"
       id="path208"
       style="stroke-width:0.264583" />
    <path
       fill-rule="evenodd"
       fill="#bb7342"
       fill-opacity="1"
       d="m -61.085686,-158.05754 h -47.048284 c -3.98942,0 -7.23056,-3.23805 -7.23056,-7.23056 0,-3.98941 3.24114,-7.23056 7.23056,-7.23056 h 47.048284 c 3.992536,0 7.231591,3.24115 7.231591,7.23056 0,3.99251 -3.239055,7.23056 -7.231591,7.23056"
       id="path209"
       style="stroke-width:0.264583" />
  </g>
</svg>
