<?xml version="1.0" encoding="UTF-8" standalone="no"?>
<!-- Created with Inkscape (http://www.inkscape.org/) -->

<svg
   width="41.91mm"
   height="26.404169mm"
   viewBox="0 0 41.91 26.404169"
   version="1.1"
   id="svg1"
   inkscape:version="1.4.2 (f4327f4, 2025-05-13)"
   sodipodi:docname="black-shoes.svg"
   xmlns:inkscape="http://www.inkscape.org/namespaces/inkscape"
   xmlns:sodipodi="http://sodipodi.sourceforge.net/DTD/sodipodi-0.dtd"
   xmlns="http://www.w3.org/2000/svg"
   xmlns:svg="http://www.w3.org/2000/svg">
  <sodipodi:namedview
     id="namedview1"
     pagecolor="#ffffff"
     bordercolor="#000000"
     borderopacity="0.25"
     inkscape:showpageshadow="false"
     inkscape:pageopacity="0.0"
     inkscape:pagecheckerboard="true"
     inkscape:deskcolor="#d1d1d1"
     inkscape:document-units="mm"
     inkscape:zoom="0.69753788"
     inkscape:cx="78.848765"
     inkscape:cy="50.893294"
     inkscape:window-width="1920"
     inkscape:window-height="1001"
     inkscape:window-x="-9"
     inkscape:window-y="-9"
     inkscape:window-maximized="1"
     inkscape:current-layer="layer1"
     showborder="false"
     borderlayer="false" />
  <defs
     id="defs1" />
  <g
     inkscape:label="Layer 1"
     inkscape:groupmode="layer"
     id="layer1"
     transform="translate(-84.137499,-135.20208)">
    <g
       id="g93"
       transform="matrix(0.26458333,0,0,0.26458333,-122.84604,-73.527707)">
				<path
   class="st33"
   d="m 828.7,855 c -1.8,-22.4 -7.9,-46.8 -7.9,-46.8 l -4.4,-19.3 -3,3.4 c -0.9,1 -2.4,1.1 -3.3,0.1 -0.8,-0.8 -1.8,-1.3 -2.9,-1.2 l -7.9,0.4 c -0.7,0 -1.4,0.3 -1.9,0.7 -1.3,1.1 -3.3,0.9 -4.5,-0.3 l -1.6,-1.6 c 0,0 -10.7,39.4 -8.6,66.6 2.1,27.2 14.8,32.4 27,31.5 13.6,-0.9 20.8,-11.1 19,-33.5 z"
   id="path85"
   style="fill:#110628" />

				<g
   id="g92">
					<path
   class="st54"
   d="m 809.7,878.6 c -12.2,0.9 -25,-4.2 -27,-31.5 -0.1,-1.6 -0.2,-3.3 -0.3,-4.8 -0.2,4.7 -0.1,9.6 0.3,14.8 2.1,27.3 14.8,32.4 27,31.5 13.3,-1 20.6,-10.8 19.1,-32.3 -1.2,14.6 -8,21.5 -19.1,22.3 z"
   id="path86"
   style="fill:#c2c2c2" />

					<g
   id="g91">
						<g
   id="g87">
							<circle
   class="st54"
   cx="813.90002"
   cy="820.20001"
   r="3.2"
   id="circle86"
   style="fill:#c2c2c2" />

							<circle
   class="st54"
   cx="797.40002"
   cy="820.79999"
   r="3.2"
   id="circle87"
   style="fill:#c2c2c2" />

							<path
   class="st55"
   d="m 796.1,821.8 c 0.6,0.6 1.5,0.9 2.3,0.7 1.3,-0.2 4,-0.6 7.2,-0.7 3.1,-0.1 6,0.1 7.5,0.3 1,0.1 1.9,-0.3 2.3,-1.2 0.3,-0.6 0.4,-1.5 -0.6,-2.4 -1.5,-1.4 -6.2,-1.4 -9.1,-1.3 -4.9,0.1 -9.7,0.9 -10,2.9 -0.1,0.8 0.1,1.3 0.4,1.7 z"
   id="path87"
   style="fill:#2f3380" />

						</g>

						<g
   id="g88">
							
								<circle
   transform="matrix(1,-0.00693786,0.00693786,1,-5.7489,5.6667)"
   class="st54"
   cx="813.90002"
   cy="831.5"
   id="ellipse87"
   style="fill:#c2c2c2"
   r="3.0999999" />

							
								<circle
   transform="matrix(1,-0.00693786,0.00693786,1,-5.7539,5.5534)"
   class="st54"
   cx="797.59998"
   cy="832.09998"
   id="ellipse88"
   style="fill:#c2c2c2"
   r="3.0999999" />

							<path
   class="st55"
   d="m 796.4,833.1 c 0.6,0.6 1.5,0.9 2.3,0.7 1.3,-0.2 4,-0.6 7.1,-0.7 3.1,-0.1 6,0.1 7.5,0.2 0.9,0.1 1.9,-0.4 2.3,-1.2 0.3,-0.6 0.4,-1.5 -0.6,-2.4 -1.5,-1.4 -6.1,-1.3 -9.1,-1.2 -4.8,0.2 -9.6,1 -9.9,2.9 -0.2,0.8 0,1.3 0.4,1.7 z"
   id="path88"
   style="fill:#2f3380" />

						</g>

						<g
   id="g90">
							
								<circle
   transform="matrix(1,-0.00693786,0.00693786,1,-5.8251,5.6733)"
   class="st54"
   cx="814.79999"
   cy="842.40002"
   id="ellipse89"
   style="fill:#c2c2c2"
   r="3.0999999" />

							
								<circle
   transform="matrix(1,-0.00693786,0.00693786,1,-5.8301,5.5601)"
   class="st54"
   cx="798.5"
   cy="843.09998"
   id="ellipse90"
   style="fill:#c2c2c2"
   r="3.0999999" />

							<path
   class="st55"
   d="m 797.3,844.1 c 0.6,0.6 1.5,0.9 2.3,0.7 1.3,-0.2 4,-0.6 7.1,-0.7 3.1,-0.1 6,0.1 7.5,0.2 0.9,0.1 1.9,-0.4 2.3,-1.2 0.3,-0.6 0.4,-1.5 -0.6,-2.4 -1.5,-1.4 -6.1,-1.3 -9.1,-1.2 -4.8,0.2 -9.6,1 -9.9,2.9 -0.2,0.8 0,1.3 0.4,1.7 z"
   id="path90"
   style="fill:#2f3380" />

						</g>

					</g>

				</g>

				<path
   class="st56"
   d="m 812.9,792.8 c 0,0 0,0 0,0 -0.9,0.5 -2,0.4 -2.8,-0.3 l 4,16.4 z"
   id="path92"
   style="fill:#0b041a" />

				<path
   class="st56"
   d="m 794.1,792.8 -1.2,15.2 3.7,-15.2 c -0.8,0.4 -1.7,0.4 -2.5,0 z"
   id="path93"
   style="fill:#0b041a" />

			</g>
    <g
       id="g102"
       transform="matrix(0.26458333,0,0,0.26458333,-122.84604,-73.527707)">
				<path
   class="st33"
   d="m 894.3,855 c 1.8,-22.4 7.9,-46.8 7.9,-46.8 l 4.4,-19.3 3,3.4 c 0.9,1 2.4,1.1 3.3,0.1 0.8,-0.8 1.8,-1.3 2.9,-1.2 l 7.9,0.4 c 0.7,0 1.4,0.3 1.9,0.7 1.3,1.1 3.3,0.9 4.5,-0.3 l 1.6,-1.6 c 0,0 10.7,39.4 8.6,66.6 -2.1,27.2 -14.8,32.4 -27,31.5 -13.6,-0.9 -20.9,-11.1 -19,-33.5 z"
   id="path94"
   style="fill:#110628" />

				<g
   id="g101">
					<path
   class="st54"
   d="m 913.3,878.6 c 12.2,0.9 25,-4.2 27,-31.5 0.1,-1.6 0.2,-3.3 0.3,-4.8 0.2,4.7 0.1,9.6 -0.3,14.8 -2.1,27.3 -14.8,32.4 -27,31.5 -13.3,-1 -20.6,-10.8 -19.1,-32.3 1.1,14.6 8,21.5 19.1,22.3 z"
   id="path95"
   style="fill:#c2c2c2" />

					<g
   id="g100">
						<g
   id="g96">
							<circle
   class="st54"
   cx="909.09998"
   cy="820.20001"
   r="3.2"
   id="circle95"
   style="fill:#c2c2c2" />

							<circle
   class="st54"
   cx="925.59998"
   cy="820.79999"
   r="3.2"
   id="circle96"
   style="fill:#c2c2c2" />

							<path
   class="st55"
   d="m 926.8,821.8 c -0.6,0.6 -1.5,0.9 -2.3,0.7 -1.3,-0.2 -4,-0.6 -7.2,-0.7 -3.1,-0.1 -6,0.1 -7.5,0.3 -1,0.1 -1.9,-0.3 -2.3,-1.2 -0.3,-0.6 -0.4,-1.5 0.6,-2.4 1.5,-1.4 6.2,-1.4 9.1,-1.3 4.9,0.1 9.7,0.9 10,2.9 0.2,0.8 0,1.3 -0.4,1.7 z"
   id="path96"
   style="fill:#2f3380" />

						</g>

						<g
   id="g97">
							
								<circle
   transform="matrix(0.00693786,-1,1,0.00693786,71.3684,1734.7719)"
   class="st54"
   cx="909.09998"
   cy="831.5"
   id="ellipse96"
   style="fill:#c2c2c2"
   r="3.0999999" />

							
								<circle
   transform="matrix(0.00693786,-1,1,0.00693786,86.9149,1751.7582)"
   class="st54"
   cx="925.40002"
   cy="832.09998"
   id="ellipse97"
   style="fill:#c2c2c2"
   r="3.0999999" />

							<path
   class="st55"
   d="m 926.6,833.1 c -0.6,0.6 -1.5,0.9 -2.3,0.7 -1.3,-0.2 -4,-0.6 -7.1,-0.7 -3.1,-0.1 -6,0.1 -7.5,0.2 -0.9,0.1 -1.9,-0.4 -2.3,-1.2 -0.3,-0.6 -0.4,-1.5 0.6,-2.4 1.5,-1.4 6.1,-1.3 9.1,-1.2 4.8,0.2 9.6,1 9.9,2.9 0.2,0.8 0,1.3 -0.4,1.7 z"
   id="path97"
   style="fill:#2f3380" />

						</g>

						<g
   id="g99">
							
								<circle
   transform="matrix(0.00693786,-1,1,0.00693786,59.4654,1744.7637)"
   class="st54"
   cx="908.20001"
   cy="842.40002"
   id="ellipse98"
   style="fill:#c2c2c2"
   r="3.0999999" />

							
								<circle
   transform="matrix(0.00693786,-1,1,0.00693786,75.0119,1761.75)"
   class="st54"
   cx="924.5"
   cy="843.09998"
   id="ellipse99"
   style="fill:#c2c2c2"
   r="3.0999999" />

							<path
   class="st55"
   d="m 925.7,844.1 c -0.6,0.6 -1.5,0.9 -2.3,0.7 -1.3,-0.2 -4,-0.6 -7.1,-0.7 -3.1,-0.1 -6,0.1 -7.5,0.2 -0.9,0.1 -1.9,-0.4 -2.3,-1.2 -0.3,-0.6 -0.4,-1.5 0.6,-2.4 1.5,-1.4 6.1,-1.3 9.1,-1.2 4.8,0.2 9.6,1 9.9,2.9 0.2,0.8 0,1.3 -0.4,1.7 z"
   id="path99"
   style="fill:#2f3380" />

						</g>

					</g>

				</g>

				<path
   class="st56"
   d="m 910.1,792.8 c 0,0 0,0 0,0 0.9,0.5 2,0.4 2.8,-0.3 l -4,16.4 z"
   id="path101"
   style="fill:#0b041a" />

				<path
   class="st56"
   d="m 928.9,792.8 1.2,15.2 -3.7,-15.2 c 0.8,0.4 1.7,0.4 2.5,0 z"
   id="path102"
   style="fill:#0b041a" />

			</g>
  </g>
</svg>
