<?xml version="1.0" encoding="UTF-8" standalone="no"?>
<!-- Created with Inkscape (http://www.inkscape.org/) -->

<svg
   width="56.364193mm"
   height="52.329639mm"
   viewBox="0 0 56.364192 52.329639"
   version="1.1"
   id="svg1"
   inkscape:version="1.4.2 (f4327f4, 2025-05-13)"
   sodipodi:docname="boots.svg"
   xmlns:inkscape="http://www.inkscape.org/namespaces/inkscape"
   xmlns:sodipodi="http://sodipodi.sourceforge.net/DTD/sodipodi-0.dtd"
   xmlns="http://www.w3.org/2000/svg"
   xmlns:svg="http://www.w3.org/2000/svg">
  <sodipodi:namedview
     id="namedview1"
     pagecolor="#ffffff"
     bordercolor="#000000"
     borderopacity="0.25"
     inkscape:showpageshadow="2"
     inkscape:pageopacity="0.0"
     inkscape:pagecheckerboard="0"
     inkscape:deskcolor="#d1d1d1"
     inkscape:document-units="mm"
     inkscape:zoom="0.69753788"
     inkscape:cx="76.698344"
     inkscape:cy="154.11349"
     inkscape:window-width="1920"
     inkscape:window-height="1001"
     inkscape:window-x="-9"
     inkscape:window-y="-9"
     inkscape:window-maximized="1"
     inkscape:current-layer="layer1" />
  <defs
     id="defs1" />
  <g
     inkscape:label="Layer 1"
     inkscape:groupmode="layer"
     id="layer1"
     transform="translate(-84.401787,-107.68541)">
    <path
       d="m 84.674207,107.74743 c 0.862419,-0.0965 1.23105,-0.0634 1.95647,0.43718 2.983331,2.81947 5.555579,5.9361 7.833106,9.3524 0.914864,-0.30495 1.040854,-0.51049 1.579221,-1.27847 0.14973,-0.20988 0.299457,-0.41977 0.453717,-0.63601 0.1586,-0.22497 0.31719,-0.44995 0.480587,-0.68174 1.904821,-2.64389 3.878092,-5.19587 6.482272,-7.19336 0.76068,-0.0827 0.76068,-0.0827 1.32292,0 -0.29077,0.87232 -0.51487,1.07069 -1.20716,1.63711 -0.16951,0.14018 -0.33902,0.28035 -0.51366,0.42478 -0.19595,0.15808 -0.19595,0.15808 -0.39585,0.31936 1.48829,-1.32292 1.48829,-1.32292 2.38125,-1.32292 0.0713,2.01364 -0.20266,3.88256 -0.55087,5.86321 -0.087,0.51081 -0.1739,1.02161 -0.26077,1.53243 -0.12168,0.71289 -0.24511,1.42546 -0.3686,2.13804 -1.38093,7.96858 -2.52929,15.75808 -2.557,23.85343 -0.002,0.45523 -0.002,0.45523 -0.004,0.91965 -0.10305,3.07694 -0.10305,3.07694 1.07869,5.81069 1.11714,1.57367 1.42715,2.67533 1.20302,4.5837 -0.12816,0.5426 -0.12816,0.5426 -0.65732,1.33635 0.0218,0.25648 0.0436,0.51296 0.0661,0.77722 -0.0661,0.81028 -0.0661,0.81028 -0.69453,1.38906 -3.715891,2.10334 -9.257803,2.10253 -13.276668,0.99529 -0.722413,-0.28043 -1.333837,-0.60175 -1.969905,-1.0449 -0.314193,-0.74414 -0.314193,-0.74414 -0.529167,-1.5875 -0.14734,-0.35198 -0.14734,-0.35198 -0.297656,-0.71107 -0.525884,-1.99085 -0.45532,-3.56118 0.529167,-5.39088 0.416101,-0.70054 0.779955,-1.25952 1.355989,-1.83555 0.0566,-0.80973 0.08028,-1.59481 0.07958,-2.40502 0.0015,-0.24416 0.003,-0.48832 0.0045,-0.73988 0.0032,-0.79831 0.0015,-1.5965 -0.0014,-2.39481 -4.76e-4,-0.27179 -9.52e-4,-0.54359 -0.0015,-0.82361 -0.01287,-4.28374 -0.213519,-8.44853 -0.874991,-12.68668 -0.04681,-0.30939 -0.09362,-0.61878 -0.141852,-0.93754 -0.467169,-3.06565 -0.986109,-6.12233 -1.507292,-9.17913 -0.147982,-0.86931 -0.294978,-1.73879 -0.441967,-2.60827 -0.106005,-0.62339 -0.213913,-1.24642 -0.321984,-1.86945 -0.06559,-0.38552 -0.131118,-0.77105 -0.196564,-1.15659 -0.05809,-0.33714 -0.116176,-0.67428 -0.176023,-1.02164 -0.123823,-0.94749 -0.147087,-1.85222 -0.124734,-2.80655 2.47917,0.48938 3.922577,3.1085 5.291666,5.02709 -1.404528,-2.22255 -2.791221,-4.13839 -5.027083,-5.55625 0,-0.17463 0,-0.34925 0,-0.52917 z"
       fill="#1f2323"
       id="path6"
       style="stroke-width:0.264583" />
    <path
       d="m 86.923845,156.11128 c 0.188246,0.0786 0.376493,0.15719 0.570443,0.23816 2.418112,0.93516 4.771948,1.22363 7.350512,1.20051 0.30069,-0.001 0.601377,-0.002 0.911187,-0.003 2.183175,-0.0374 3.962516,-0.32333 5.984493,-1.17093 0.35097,-0.0951 0.70326,-0.18613 1.05833,-0.26458 0.13097,0.78581 0.13097,0.78581 0.26458,1.5875 -3.172547,2.42116 -7.554233,2.35958 -11.377044,2.11667 -1.655989,-0.2517 -3.112558,-0.61775 -4.497918,-1.5875 -0.363802,-0.81029 -0.363802,-0.81029 -0.529166,-1.5875 0.08731,-0.17463 0.174625,-0.34925 0.264583,-0.52917 z"
       fill="#505353"
       id="path55"
       style="stroke-width:0.264583" />
    <path
       d="m 93.009266,119.86336 c 0.92163,0.79874 1.267767,1.47349 1.587497,2.64583 0.174617,0 0.349247,0 0.529167,0 0.174617,-0.43656 0.349247,-0.87312 0.529157,-1.32291 0.0873,0.17462 0.174627,0.34925 0.264587,0.52916 -0.0801,0.16002 -0.160227,0.32004 -0.242777,0.48491 -0.32674,0.65423 -0.35876,1.08338 -0.37075,1.81082 -0.005,0.24359 -0.0105,0.48718 -0.0159,0.73815 -0.005,0.39114 -0.005,0.39114 -0.009,0.79018 -0.005,0.26865 -0.0102,0.53729 -0.0155,0.81408 -0.0158,0.85723 -0.0281,1.71447 -0.0403,2.57176 -0.0101,0.58154 -0.0204,1.16307 -0.031,1.7446 -0.0254,1.42485 -0.0479,2.84973 -0.0682,4.27467 0.261927,0 0.523867,0 0.793747,0 1.208444,1.45077 1.771661,3.1102 2.212768,4.91546 0.20364,0.77457 0.445627,1.34778 0.962214,1.96371 0.680237,0.35636 0.680237,0.35636 1.322904,0.52916 -0.446477,0.19844 -0.446477,0.19844 -1.058324,0.26459 -1.366964,-0.76684 -1.671631,-1.76574 -2.116658,-3.175 -0.593427,-1.82899 -0.593427,-1.82899 -1.587494,-3.43959 -0.827177,-0.11045 -0.827177,-0.11045 -1.587491,0 -0.682827,1.12589 -1.33005,2.19438 -1.62057,3.4892 -0.27136,1.18237 -0.5324,2.23055 -1.53789,2.97656 -0.63684,0.17368 -0.98876,0.10398 -1.604037,-0.11576 0.294339,-0.0921 0.588678,-0.18417 0.891937,-0.27905 0.86412,-0.37174 0.93193,-0.44649 1.31671,-1.37666 0.0624,-0.33765 0.12483,-0.67531 0.18914,-1.02319 0.36649,-1.71331 0.87041,-3.17282 2.10013,-4.46485 0.392907,-0.13097 0.392907,-0.13097 0.793747,-0.26458 -0.004,-1.68986 -0.0189,-3.37941 -0.0404,-5.06914 -0.006,-0.57401 -0.01,-1.14806 -0.0114,-1.72211 -0.002,-0.82841 -0.0134,-1.65636 -0.0258,-2.48467 0.001,-0.25393 0.002,-0.50786 0.003,-0.76949 -0.0345,-1.61482 -0.355527,-2.67234 -1.230324,-4.03587 -0.282813,-0.4708 -0.282813,-0.4708 -0.282813,-0.99997 z"
       fill="#c2c3c3"
       id="path70"
       style="stroke-width:0.264583" />
    <path
       d="m 94.86134,147.11545 c 2.302018,-0.17799 3.850629,0.10245 5.8208,1.32292 -0.52916,0.26458 -0.52916,0.26458 -1.268134,0.0682 -0.29638,-0.0989 -0.592767,-0.19782 -0.898127,-0.29972 -1.230001,-0.39546 -2.369975,-0.70733 -3.654539,-0.82683 0,-0.0873 0,-0.17462 0,-0.26458 z"
       fill="#e0e0e0"
       id="path169"
       style="stroke-width:0.264583" />
    <path
       d="m 120.38171,107.83457 c 0.86242,-0.0965 1.23105,-0.0634 1.95647,0.43718 2.98333,2.81947 5.55558,5.9361 7.83311,9.3524 0.91487,-0.30495 1.04086,-0.51049 1.57923,-1.27847 0.14973,-0.20988 0.29946,-0.41977 0.45372,-0.63601 0.1586,-0.22497 0.31719,-0.44995 0.48059,-0.68174 1.90483,-2.64389 3.87811,-5.19587 6.48229,-7.19336 0.76068,-0.0827 0.76068,-0.0827 1.32292,0 -0.29077,0.87232 -0.51487,1.07069 -1.20716,1.63711 -0.16951,0.14018 -0.33902,0.28035 -0.51366,0.42478 -0.19595,0.15808 -0.19595,0.15808 -0.39585,0.31936 1.48829,-1.32292 1.48829,-1.32292 2.38125,-1.32292 0.0713,2.01364 -0.20266,3.88256 -0.55087,5.86321 -0.087,0.51081 -0.1739,1.02161 -0.26077,1.53243 -0.12168,0.71289 -0.24511,1.42546 -0.3686,2.13804 -1.38093,7.96858 -2.52929,15.75808 -2.557,23.85343 -0.002,0.45523 -0.002,0.45523 -0.004,0.91965 -0.10305,3.07694 -0.10305,3.07694 1.07869,5.81069 1.11714,1.57367 1.42715,2.67533 1.20302,4.5837 -0.12816,0.5426 -0.12816,0.5426 -0.65732,1.33635 0.0218,0.25648 0.0436,0.51296 0.0661,0.77722 -0.0661,0.81028 -0.0661,0.81028 -0.69453,1.38906 -3.7159,2.10334 -9.25784,2.10253 -13.2767,0.99529 -0.72242,-0.28043 -1.33384,-0.60175 -1.96991,-1.0449 -0.31419,-0.74414 -0.31419,-0.74414 -0.52917,-1.5875 -0.14734,-0.35198 -0.14734,-0.35198 -0.29765,-0.71107 -0.52589,-1.99085 -0.45532,-3.56118 0.52917,-5.39088 0.4161,-0.70054 0.77995,-1.25952 1.35598,-1.83555 0.0566,-0.80973 0.0803,-1.59481 0.0796,-2.40502 0.001,-0.24416 0.003,-0.48832 0.005,-0.73988 0.003,-0.79831 0.001,-1.5965 -10e-4,-2.39481 -4.7e-4,-0.27179 -9.5e-4,-0.54359 -0.001,-0.82361 -0.0129,-4.28374 -0.21351,-8.44853 -0.87499,-12.68668 -0.0468,-0.30939 -0.0936,-0.61878 -0.14185,-0.93754 -0.46717,-3.06565 -0.98611,-6.12233 -1.50729,-9.17913 -0.14798,-0.86931 -0.29498,-1.73879 -0.44197,-2.60827 -0.106,-0.62339 -0.21391,-1.24642 -0.32198,-1.86945 -0.0656,-0.38552 -0.13112,-0.77105 -0.19657,-1.15659 -0.0581,-0.33714 -0.11617,-0.67428 -0.17602,-1.02164 -0.12382,-0.94749 -0.14709,-1.85222 -0.12473,-2.80655 2.47917,0.48938 3.92257,3.1085 5.29166,5.02709 -1.40452,-2.22255 -2.79122,-4.13839 -5.02708,-5.55625 0,-0.17463 0,-0.34925 0,-0.52917 z"
       fill="#1f2323"
       id="path6-8"
       style="stroke-width:0.264583" />
    <path
       d="m 122.63135,156.19842 c 0.18825,0.0786 0.37649,0.15719 0.57044,0.23816 2.41811,0.93516 4.77195,1.22363 7.35052,1.20051 0.30069,-0.001 0.60138,-0.002 0.91119,-0.003 2.18319,-0.0374 3.96254,-0.32333 5.98452,-1.17093 0.35097,-0.0951 0.70326,-0.18613 1.05833,-0.26458 0.13097,0.78581 0.13097,0.78581 0.26458,1.5875 -3.17255,2.42116 -7.55426,2.35958 -11.37708,2.11667 -1.65599,-0.2517 -3.11256,-0.61775 -4.49792,-1.5875 -0.3638,-0.81029 -0.3638,-0.81029 -0.52916,-1.5875 0.0873,-0.17463 0.17462,-0.34925 0.26458,-0.52917 z"
       fill="#505353"
       id="path55-5"
       style="stroke-width:0.264583" />
    <path
       d="m 128.71677,119.9505 c 0.92163,0.79874 1.26777,1.47349 1.5875,2.64583 0.17462,0 0.34925,0 0.52917,0 0.17462,-0.43656 0.34925,-0.87312 0.52916,-1.32291 0.0873,0.17462 0.17463,0.34925 0.26459,0.52916 -0.0801,0.16002 -0.16023,0.32004 -0.24278,0.48491 -0.32674,0.65423 -0.35876,1.08338 -0.37075,1.81082 -0.005,0.24359 -0.0105,0.48718 -0.0159,0.73815 -0.005,0.39114 -0.005,0.39114 -0.009,0.79018 -0.005,0.26865 -0.0102,0.53729 -0.0155,0.81408 -0.0158,0.85723 -0.0281,1.71447 -0.0403,2.57176 -0.0101,0.58154 -0.0204,1.16307 -0.031,1.7446 -0.0254,1.42485 -0.0479,2.84973 -0.0682,4.27467 0.26193,0 0.52387,0 0.79375,0 1.20845,1.45077 1.77167,3.1102 2.21278,4.91546 0.20364,0.77457 0.44563,1.34778 0.96222,1.96371 0.68024,0.35636 0.68024,0.35636 1.32291,0.52916 -0.44648,0.19844 -0.44648,0.19844 -1.05833,0.26459 -1.36697,-0.76684 -1.67164,-1.76574 -2.11667,-3.175 -0.59343,-1.82899 -0.59343,-1.82899 -1.5875,-3.43959 -0.82718,-0.11045 -0.82718,-0.11045 -1.5875,0 -0.68283,1.12589 -1.33005,2.19438 -1.62057,3.4892 -0.27136,1.18237 -0.5324,2.23055 -1.53789,2.97656 -0.63684,0.17368 -0.98876,0.10398 -1.60404,-0.11576 0.29434,-0.0921 0.58868,-0.18417 0.89194,-0.27905 0.86412,-0.37174 0.93193,-0.44649 1.31671,-1.37666 0.0624,-0.33765 0.12483,-0.67531 0.18914,-1.02319 0.36649,-1.71331 0.87041,-3.17282 2.10013,-4.46485 0.39291,-0.13097 0.39291,-0.13097 0.79375,-0.26458 -0.004,-1.68986 -0.0189,-3.37941 -0.0404,-5.06914 -0.006,-0.57401 -0.01,-1.14806 -0.0114,-1.72211 -0.002,-0.82841 -0.0134,-1.65636 -0.0258,-2.48467 0.001,-0.25393 0.002,-0.50786 0.003,-0.76949 -0.0345,-1.61482 -0.35553,-2.67234 -1.23033,-4.03587 -0.28281,-0.4708 -0.28281,-0.4708 -0.28281,-0.99997 z"
       fill="#c2c3c3"
       id="path70-7"
       style="stroke-width:0.264583" />
    <path
       d="m 130.56885,147.20259 c 2.30203,-0.17799 3.85065,0.10245 5.82083,1.32292 -0.52916,0.26458 -0.52916,0.26458 -1.26814,0.0682 -0.29638,-0.0989 -0.59277,-0.19782 -0.89813,-0.29972 -1.23001,-0.39546 -2.36999,-0.70733 -3.65456,-0.82683 0,-0.0873 0,-0.17462 0,-0.26458 z"
       fill="#e0e0e0"
       id="path169-6"
       style="stroke-width:0.264583" />
  </g>
</svg>
