<?xml version="1.0" encoding="UTF-8" standalone="no"?>
<!-- Created with Inkscape (http://www.inkscape.org/) -->

<svg
   width="132.42395mm"
   height="67.204163mm"
   viewBox="0 0 132.42395 67.204163"
   version="1.1"
   id="svg1"
   inkscape:version="1.4.2 (f4327f4, 2025-05-13)"
   sodipodi:docname="burger.svg"
   xmlns:inkscape="http://www.inkscape.org/namespaces/inkscape"
   xmlns:sodipodi="http://sodipodi.sourceforge.net/DTD/sodipodi-0.dtd"
   xmlns="http://www.w3.org/2000/svg"
   xmlns:svg="http://www.w3.org/2000/svg">
  <sodipodi:namedview
     id="namedview1"
     pagecolor="#ffffff"
     bordercolor="#000000"
     borderopacity="0.25"
     inkscape:showpageshadow="2"
     inkscape:pageopacity="0.0"
     inkscape:pagecheckerboard="0"
     inkscape:deskcolor="#d1d1d1"
     inkscape:document-units="mm"
     inkscape:zoom="0.69753788"
     inkscape:cx="265.21857"
     inkscape:cy="242.99756"
     inkscape:window-width="1920"
     inkscape:window-height="1001"
     inkscape:window-x="-9"
     inkscape:window-y="-9"
     inkscape:window-maximized="1"
     inkscape:current-layer="layer1" />
  <defs
     id="defs1" />
  <g
     inkscape:label="Layer 1"
     inkscape:groupmode="layer"
     id="layer1"
     transform="translate(-34.727509,-84.062357)">
    <g
       id="g18"
       transform="matrix(0.26458333,0,0,0.26458333,-188.13103,43.316524)">
	<g
   id="g4">
		<path
   class="st1"
   d="M 1241.3,154 H 1228 v 61 c 0,11.7 -9.8,21.2 -21.5,21.2 -11.7,0 -21.5,-9.5 -21.5,-21.2 v -61 h -75 v 61 c 0,11.7 -9.3,21.2 -21,21.2 -11.7,0 -21,-9.5 -21,-21.2 v -61 h -72 v 61 c 0,11.7 -9.8,21.2 -21.5,21.2 -11.7,0 -21.5,-9.5 -21.5,-21.2 v -61 h -5.4 C 898.1,154 848,202.6 848,241.3 V 275 h 487 v -33.7 c 0,-38.7 -44.2,-87.3 -93.7,-87.3 z"
   id="path1"
   style="fill:#ffc482" />

		<path
   class="st2"
   d="m 1089,236.2 c 11.7,0 21,-9.5 21,-21.2 v -61 h -42 v 61 c 0,11.7 9.3,21.2 21,21.2 z"
   id="path2"
   style="fill:#fc9b3e" />

		<path
   class="st2"
   d="m 974.5,236.2 c 11.7,0 21.5,-9.5 21.5,-21.2 v -61 h -43 v 61 c 0,11.7 9.8,21.2 21.5,21.2 z"
   id="path3"
   style="fill:#fc9b3e" />

		<path
   class="st2"
   d="m 1206.5,236.2 c 11.7,0 21.5,-9.5 21.5,-21.2 v -61 h -43 v 61 c 0,11.7 9.8,21.2 21.5,21.2 z"
   id="path4"
   style="fill:#fc9b3e" />

	</g>

	<path
   class="st3"
   d="m 1335,298.8 c 0,12.8 -10.4,23.2 -23.2,23.2 H 871.2 C 858.4,322 848,311.6 848,298.8 v -0.5 c 0,-12.8 10.4,-23.2 23.2,-23.2 h 440.5 c 12.8,0 23.2,10.4 23.2,23.2 v 0.5 z"
   id="path5"
   style="fill:#f43e31" />

	<path
   class="st4"
   d="m 911,273.6 c 0,16.6 -12.7,30 -28.5,30 -15.7,0 -28.5,-13.4 -28.5,-30"
   id="path6"
   style="fill:#84cc5a" />

	<path
   class="st4"
   d="m 963.6,273.6 c 0,16.6 -12.7,30 -28.5,30 -15.7,0 -28.5,-13.4 -28.5,-30"
   id="path7"
   style="fill:#84cc5a" />

	<path
   class="st4"
   d="m 1016.1,273.6 c 0,16.6 -12.7,30 -28.5,30 -15.7,0 -28.5,-13.4 -28.5,-30"
   id="path8"
   style="fill:#84cc5a" />

	<path
   class="st4"
   d="m 1068.7,273.6 c 0,16.6 -12.7,30 -28.5,30 -15.7,0 -28.5,-13.4 -28.5,-30"
   id="path9"
   style="fill:#84cc5a" />

	<path
   class="st4"
   d="m 1121.2,273.6 c 0,16.6 -12.7,30 -28.5,30 -15.7,0 -28.5,-13.4 -28.5,-30"
   id="path10"
   style="fill:#84cc5a" />

	<path
   class="st4"
   d="m 1173.7,273.6 c 0,16.6 -12.7,30 -28.5,30 -15.7,0 -28.5,-13.4 -28.5,-30"
   id="path11"
   style="fill:#84cc5a" />

	<path
   class="st4"
   d="m 1226.3,273.6 c 0,16.6 -12.7,30 -28.5,30 -15.7,0 -28.5,-13.4 -28.5,-30"
   id="path12"
   style="fill:#84cc5a" />

	<path
   class="st4"
   d="m 1278.8,273.6 c 0,16.6 -12.7,30 -28.5,30 -15.7,0 -28.5,-13.4 -28.5,-30"
   id="path13"
   style="fill:#84cc5a" />

	<path
   class="st4"
   d="m 1331.4,273.6 c 0,16.6 -12.7,30 -28.5,30 -15.7,0 -28.5,-13.4 -28.5,-30"
   id="path14"
   style="fill:#84cc5a" />

	<path
   class="st5"
   d="m 1335,340.8 c 0,12.8 -10.4,23.2 -23.2,23.2 H 871.2 C 858.4,364 848,353.6 848,340.8 v -0.5 c 0,-12.8 10.4,-23.2 23.2,-23.2 h 440.5 c 12.8,0 23.2,10.4 23.2,23.2 v 0.5 z"
   id="path15"
   style="fill:#ff8768" />

	<path
   class="st1"
   d="m 1342.8,385 c 0,12.8 -2.5,23 -16.1,23 H 858.4 c -13.6,0 -16.1,-10.2 -16.1,-23 v 0 c 0,-12.8 2.5,-23 16.1,-23 h 468.3 c 13.7,0 16.1,10.2 16.1,23 z"
   id="path16"
   style="fill:#ffc482" />

	<polyline
   class="st6"
   points="872.3,317.1 1092.6,350.7 1303.8,317.1  "
   id="polyline16"
   style="fill:#ffcd5a" />

	<g
   class="st7"
   id="g17"
   style="opacity:0.1">
		<path
   class="st8"
   d="m 1326.7,362 h -4.4 c 8.1,-4 13.8,-12 13.8,-21.5 0,-9.5 -5.7,-17.7 -13.8,-21.3 8.1,-3.6 13.8,-11.8 13.8,-21.3 0,-6 -2.3,-11.2 -6,-15.3 0.7,-2.5 1.1,-5.6 1.2,-7.6 h 3.7 v -33.7 c 0,-38.7 -44.2,-87.3 -93.7,-87.3 h -12.3 -42.4 -74.8 -24.8 v 254 h 239.7 c 13.6,0 16.1,-10.2 16.1,-23 0,-12.8 -2.4,-23 -16.1,-23 z"
   id="path17"
   style="fill:#1d1d1b" />

	</g>

</g>
  </g>
</svg>
