<?xml version="1.0" encoding="UTF-8" standalone="no"?>
<!-- Created with Inkscape (http://www.inkscape.org/) -->

<svg
   width="61.671436mm"
   height="64.88575mm"
   viewBox="0 0 61.671436 64.88575"
   version="1.1"
   id="svg1"
   inkscape:version="1.4.2 (f4327f4, 2025-05-13)"
   sodipodi:docname="jacket.svg"
   xmlns:inkscape="http://www.inkscape.org/namespaces/inkscape"
   xmlns:sodipodi="http://sodipodi.sourceforge.net/DTD/sodipodi-0.dtd"
   xmlns="http://www.w3.org/2000/svg"
   xmlns:svg="http://www.w3.org/2000/svg">
  <sodipodi:namedview
     id="namedview1"
     pagecolor="#ffffff"
     bordercolor="#000000"
     borderopacity="0.25"
     inkscape:showpageshadow="2"
     inkscape:pageopacity="0.0"
     inkscape:pagecheckerboard="0"
     inkscape:deskcolor="#d1d1d1"
     inkscape:document-units="mm"
     inkscape:zoom="0.69753788"
     inkscape:cx="124.72441"
     inkscape:cy="222.92696"
     inkscape:window-width="1920"
     inkscape:window-height="1001"
     inkscape:window-x="-9"
     inkscape:window-y="-9"
     inkscape:window-maximized="1"
     inkscape:current-layer="layer1" />
  <defs
     id="defs1" />
  <g
     inkscape:label="Layer 1"
     inkscape:groupmode="layer"
     id="layer1"
     transform="translate(-71.991074,-89.347778)">
    <g
       id="g113"
       transform="matrix(0.26458333,0,0,0.26458333,-209.03758,62.96882)">
				<g
   id="g109">
					<path
   class="st34"
   d="m 1187.2,136.6 c 0,0 -3.5,64.4 3,95.3 6.5,30.9 0.3,78.8 0.3,78.8 0,0 7.5,8 29.3,5.4 16.3,-1.9 23.1,-11.9 23.1,-11.9 0,0 -15.2,-65.8 -8.1,-84.6 5.8,-15.4 6.8,-29.5 6.8,-29.5 0,0 12.8,40.4 15.7,58.1 2.9,17.8 9.1,95.4 9.1,95.4 0,0 5.7,1.6 14.4,1.3 8.7,-0.3 12.4,-1.6 12.4,-1.6 0,0 4.6,-77.4 0,-95.7 -4.6,-18.3 -25.5,-99.8 -31.7,-111.6 -6.2,-11.8 -12.6,-20.2 -32.2,-24.1 -5.4,-1.1 -16.7,-5.2 -22.2,-2.4 -14.2,7.4 -19.9,27.1 -19.9,27.1 z"
   id="path106"
   style="fill:#4f1304" />

					<g
   id="g108">
						<g
   id="g107">
							<path
   class="st58"
   d="m 1219.4,308.9 c -16.3,1.9 -24.8,-1.9 -28.2,-4.1 -0.4,3.7 -0.7,5.9 -0.7,5.9 0,0 7.5,8 29.3,5.4 16.3,-1.9 23.1,-11.9 23.1,-11.9 0,0 -0.5,-2.2 -1.3,-5.8 -2.7,2.9 -9.7,9 -22.2,10.5 z"
   id="path107"
   style="fill:#210802" />

						</g>

					</g>

					<path
   class="st58"
   d="m 1202.1,99.7 c 0,0 5.9,1.6 9.6,8.8 0.6,1.2 -2.6,10 -8.4,16.5 -7.8,8.9 -18,16.7 -18.5,12 -1.9,-16.4 1.5,-14.1 8.6,-21.2 7,-7 8.7,-16.1 8.7,-16.1 z"
   id="path108"
   style="fill:#210802" />

				</g>

				<g
   id="g112">
					<path
   class="st34"
   d="m 1170.2,136.6 c 0,0 3.5,64.4 -3,95.3 -6.5,30.9 -0.3,78.8 -0.3,78.8 0,0 -7.5,8 -29.3,5.4 -16.3,-1.9 -23.1,-11.9 -23.1,-11.9 0,0 15.2,-65.8 8.1,-84.6 -5.8,-15.4 -6.8,-29.5 -6.8,-29.5 0,0 -12.8,40.4 -15.7,58.1 -2.9,17.8 -9.1,95.4 -9.1,95.4 0,0 -5.7,1.6 -14.4,1.3 -8.7,-0.3 -12.4,-1.6 -12.4,-1.6 0,0 -4.6,-77.4 0,-95.7 4.6,-18.3 25.5,-99.8 31.7,-111.6 6.2,-11.8 12.6,-20.2 32.2,-24.1 5.4,-1.1 16.7,-5.2 22.2,-2.4 14.2,7.4 19.9,27.1 19.9,27.1 z"
   id="path109"
   style="fill:#4f1304" />

					<g
   id="g111">
						<g
   id="g110">
							<path
   class="st58"
   d="m 1138.1,308.9 c 16.3,1.9 24.8,-1.9 28.2,-4.1 0.4,3.7 0.7,5.9 0.7,5.9 0,0 -7.5,8 -29.3,5.4 -16.3,-1.9 -23.1,-11.9 -23.1,-11.9 0,0 0.5,-2.2 1.3,-5.8 2.6,2.9 9.6,9 22.2,10.5 z"
   id="path110"
   style="fill:#210802" />

						</g>

					</g>

					<path
   class="st58"
   d="m 1155.4,99.7 c 0,0 -5.9,1.6 -9.6,8.8 -0.6,1.2 2.6,10 8.4,16.5 7.8,8.9 18,16.7 18.5,12 1.9,-16.4 -1.5,-14.1 -8.6,-21.2 -7.1,-7 -8.7,-16.1 -8.7,-16.1 z"
   id="path111"
   style="fill:#210802" />

				</g>

			</g>
  </g>
</svg>
