<?xml version="1.0" encoding="UTF-8" standalone="no"?>
<!-- Created with Inkscape (http://www.inkscape.org/) -->

<svg
   width="246.31145mm"
   height="640.39752mm"
   viewBox="0 0 246.31145 640.39752"
   version="1.1"
   id="svg1"
   inkscape:version="1.4.2 (f4327f4, 2025-05-13)"
   sodipodi:docname="man.svg"
   xmlns:inkscape="http://www.inkscape.org/namespaces/inkscape"
   xmlns:sodipodi="http://sodipodi.sourceforge.net/DTD/sodipodi-0.dtd"
   xmlns="http://www.w3.org/2000/svg"
   xmlns:svg="http://www.w3.org/2000/svg">
  <sodipodi:namedview
     id="namedview1"
     pagecolor="#ffffff"
     bordercolor="#000000"
     borderopacity="0.25"
     inkscape:showpageshadow="2"
     inkscape:pageopacity="0.0"
     inkscape:pagecheckerboard="0"
     inkscape:deskcolor="#d1d1d1"
     inkscape:document-units="mm"
     inkscape:zoom="0.24661688"
     inkscape:cx="-1076.5686"
     inkscape:cy="1254.983"
     inkscape:window-width="1920"
     inkscape:window-height="1001"
     inkscape:window-x="-9"
     inkscape:window-y="-9"
     inkscape:window-maximized="1"
     inkscape:current-layer="layer1" />
  <defs
     id="defs1" />
  <g
     inkscape:label="Layer 1"
     inkscape:groupmode="layer"
     id="layer1"
     transform="translate(-265.17982,174.26787)">
    <g
       id="g14"
       transform="matrix(0.26458333,0,0,0.26458333,236.29366,-219.19412)">
			
			<path
   fill="#fac8ac"
   d="M 574.7,1382.8 H 367.9 V 2511 H 511 l 54.1,-880.5 c 0.7,-11.9 18.3,-11.9 19,0 L 638.2,2511 H 781.4 V 1382.8 Z"
   id="path3" />

			<g
   id="g13">
				<g
   id="g8">
					<path
   fill="#fac8ac"
   d="m 1038.7,1440.9 -34.9,-77.2 -145.4,-550 C 849.1,778.5 821.2,751.4 785.8,743 L 637,707.8 V 610.4 H 512.3 v 97.4 L 363.5,743 c -35.4,8.4 -63.3,35.6 -72.6,70.7 l -145.4,550 -34.9,77.2 c -2.3,7.6 -1.8,15.8 1.4,22.2 -1.9,7.4 -1.3,15.1 1.7,21.2 0.7,1.5 1.8,2.6 3.1,3.4 -0.2,5 0.8,9.9 2.8,14 v 0 c 1.4,2.8 3.9,4.2 6.5,4.4 -0.2,5 0.7,9.9 2.8,14.1 3.1,6.4 12.4,5.8 14.7,-1 l 29.8,-87.3 c 0.7,-2 3.8,-1.3 3.4,0.8 l -4.4,28.3 c -2.6,8.6 -2,17.8 1.6,24.9 3.5,7.1 13.8,6.4 16.4,-1.1 l 30.4,-106.5 147,-428.9 v 433.3 H 574.6 781.4 V 949.5 l 147,428.9 30.4,106.5 c 2.6,7.5 12.9,8.2 16.4,1.1 3.6,-7.1 4.2,-16.3 1.6,-24.9 l -4.4,-28.3 c -0.3,-2.1 2.7,-2.9 3.4,-0.8 l 29.8,87.3 c 2.3,6.7 11.6,7.3 14.7,1 2.1,-4.1 3,-9.1 2.8,-14.1 2.6,-0.2 5.2,-1.6 6.5,-4.4 v 0 c 2.1,-4.1 3,-9 2.8,-14 1.3,-0.7 2.4,-1.8 3.1,-3.4 3.1,-6.1 3.6,-13.8 1.7,-21.2 3.3,-6.5 3.8,-14.7 1.5,-22.3 z"
   id="path4" />

					<path
   opacity="0.1"
   d="m 624.6,682.8 c 4,-2 8.2,-4.1 12.5,-6.4 V 610.3 H 512.3 v 66.1 c 4.3,2.3 8.4,4.5 12.5,6.4 31.5,15.6 68.3,15.6 99.8,0 z"
   id="path5" />

					<g
   id="g7">
						<g
   id="g6">
							<path
   id="XMLID_7_"
   fill="#808080"
   d="m 437.9,2455.8 c -61.8,0 -112,50.1 -112,112 h 224 c 0,-61.8 -50.1,-112 -112,-112 z" />

							<path
   id="XMLID_6_"
   fill="#808080"
   d="m 711.4,2455.8 c -61.8,0 -112,50.1 -112,112 h 224 c 0,-61.8 -50.1,-112 -112,-112 z" />

							<rect
   x="325.89999"
   y="2567.8"
   fill="#404041"
   width="224"
   height="22.4"
   id="rect5" />

							<rect
   x="599.5"
   y="2567.8"
   fill="#404041"
   width="224"
   height="22.4"
   id="rect6" />

						</g>

					</g>

					<path
   fill="#808080"
   d="m 561.4,1691.4 3.7,-60.9 c 0.7,-11.9 18.3,-11.9 19,0 l 3.7,60.9 H 781.3 V 1382.8 H 574.7 367.9 v 308.6 z"
   id="path7" />

				</g>

				<g
   id="g12">
					<path
   id="XMLID_118_"
   fill="#fac8ac"
   d="m 768.1,415.5 c -5.9,-1.9 -11.9,-2.2 -17.9,-1.2 V 307.1 c 0,-71.9 -78.6,-130.2 -175.5,-130.2 -96.9,0 -175.5,58.3 -175.5,130.2 v 107.1 c -6,-1 -12,-0.6 -17.9,1.2 -24.3,7.8 -36,39.1 -26.1,69.8 8.2,25.4 28.6,42.5 49.2,43.2 17.6,63.2 76.7,102.8 120.4,124.3 31.5,15.5 68.3,15.5 99.8,0 43.7,-21.6 102.9,-61.1 120.4,-124.3 v 0 c 20.6,-0.7 41,-17.8 49.2,-43.2 9.9,-30.6 -1.8,-61.9 -26.1,-69.7 z" />

					<g
   id="XMLID_115_"
   opacity="0.1">
						<path
   id="XMLID_117_"
   d="m 408,455.4 c -12,-11.2 -27.9,-13.5 -35.7,-5.2 -7.8,8.3 -4.3,24.1 7.6,35.2 1.5,1.4 3.2,2.7 4.8,3.9 2.9,2 6.9,-1 5.6,-4.3 -2.8,-7.2 -2.3,-14.3 2,-18.9 3.1,-3.4 7.8,-4.8 12.9,-4.4 3.4,0.3 5.4,-3.9 2.8,-6.3 0.1,0 0,0 0,0 z" />

						<path
   id="XMLID_116_"
   d="m 777,450.2 c -7.8,-8.3 -23.7,-6 -35.7,5.2 0,0 -0.1,0.1 -0.1,0.1 -2.5,2.3 -0.5,6.5 2.9,6.3 5.1,-0.4 9.8,1 12.9,4.4 4.3,4.6 4.8,11.7 2,18.9 -1.3,3.3 2.6,6.3 5.6,4.3 1.7,-1.1 3.3,-2.4 4.8,-3.9 12,-11.3 15.4,-27 7.6,-35.3 z" />

					</g>

					<path
   id="XMLID_111_"
   fill="#333333"
   d="m 465.9,283.4 c 55.5,42.3 173.4,34.7 237.5,63.5 27.7,12.4 26.3,76.3 26.3,76.3 6.3,-4.7 13.3,-7.7 20.5,-8.9 v 0 V 300 c 0,-71.9 -78.6,-130.2 -175.5,-130.2 -96.9,0 -175.5,58.3 -175.5,130.2 v 114.2 0 c 7.1,1.2 14.1,4.3 20.5,8.9 0,-83.8 18.9,-99.6 46.2,-139.7 z" />

					<path
   id="XMLID_119_"
   fill="#333333"
   d="m 519.3,552.4 c -5.9,0 -10.6,5.3 -9.6,11.1 5.3,31.1 32.4,54.8 65,54.8 32.6,0 59.7,-23.7 65,-54.8 1,-5.8 -3.7,-11.1 -9.6,-11.1 z" />

					<path
   fill="#ff7090"
   d="m 634.3,580.4 c -18.4,-7.6 -38.5,-11.7 -59.7,-11.7 -21.2,0 -41.3,4.2 -59.7,11.7 10.5,22.4 33.3,37.9 59.7,37.9 26.5,0 49.2,-15.5 59.7,-37.9 z"
   id="path8" />

					<g
   id="g11">
						<g
   id="g9">
							<g
   id="XMLID_20_">
								<path
   id="XMLID_21_"
   fill="#333333"
   d="m 451.8,423.8 c 3.8,-6.1 8.9,-11.3 14.9,-15.4 6,-4.2 12.9,-7.1 20,-8.8 7.1,-1.6 14.5,-2.1 21.7,-1.5 7.2,0.6 14.2,2.3 20.8,5 -7.1,-0.1 -14.1,-0.3 -20.9,0.1 -6.8,0.4 -13.6,1.1 -20.1,2.7 -6.5,1.5 -12.8,3.8 -18.9,6.8 -6,3 -11.7,6.8 -17.5,11.1 z" />

							</g>

							<g
   id="XMLID_16_">
								<path
   id="XMLID_17_"
   fill="#333333"
   d="m 697.5,423.8 c -5.7,-4.2 -11.5,-8.1 -17.5,-11.1 -6.1,-3 -12.4,-5.4 -18.9,-6.8 -6.5,-1.6 -13.2,-2.3 -20.1,-2.7 -6.8,-0.3 -13.8,-0.2 -20.9,-0.1 6.6,-2.7 13.6,-4.4 20.8,-5 7.2,-0.7 14.5,-0.2 21.7,1.5 7.1,1.7 14,4.6 20,8.8 6,4 11.1,9.3 14.9,15.4 z" />

							</g>

						</g>

						<g
   id="g10">
							<path
   fill="#333333"
   d="m 461.5,464.1 c 0.7,-8.1 5.5,-15.7 12.2,-21 6.7,-5.3 15.5,-8.3 24.3,-8.3 8.8,0 17.6,3 24.3,8.3 6.7,5.3 11.5,12.9 12.2,21 -6.6,-4.7 -12.6,-7.9 -18.6,-10 -6,-2.1 -11.9,-3.1 -17.9,-3.1 -6,0 -11.9,1 -17.9,3.1 -6,2.1 -12,5.3 -18.6,10 z"
   id="path9" />

							<path
   fill="#333333"
   d="m 620.1,464.1 c 0.7,-8.1 5.5,-15.7 12.2,-21 6.7,-5.3 15.5,-8.3 24.3,-8.3 8.8,0 17.6,3 24.3,8.3 6.7,5.3 11.5,12.9 12.2,21 -6.6,-4.7 -12.6,-7.9 -18.6,-10 -6,-2.1 -11.9,-3.1 -17.9,-3.1 -6,0 -11.9,1 -17.9,3.1 -6,2.1 -12,5.3 -18.6,10 z"
   id="path10" />

						</g>

					</g>

				</g>

			</g>

		</g>
  </g>
</svg>
