<?xml version="1.0" encoding="UTF-8" standalone="no"?>
<!-- Created with Inkscape (http://www.inkscape.org/) -->

<svg
   width="44.205055mm"
   height="102.79063mm"
   viewBox="0 0 44.205056 102.79063"
   version="1.1"
   id="svg1"
   inkscape:version="1.4.2 (f4327f4, 2025-05-13)"
   sodipodi:docname="pant.svg"
   xmlns:inkscape="http://www.inkscape.org/namespaces/inkscape"
   xmlns:sodipodi="http://sodipodi.sourceforge.net/DTD/sodipodi-0.dtd"
   xmlns="http://www.w3.org/2000/svg"
   xmlns:svg="http://www.w3.org/2000/svg">
  <sodipodi:namedview
     id="namedview1"
     pagecolor="#ffffff"
     bordercolor="#000000"
     borderopacity="0.25"
     inkscape:showpageshadow="2"
     inkscape:pageopacity="0.0"
     inkscape:pagecheckerboard="0"
     inkscape:deskcolor="#d1d1d1"
     inkscape:document-units="mm"
     showborder="true"
     inkscape:zoom="0.69753788"
     inkscape:cx="-146.94542"
     inkscape:cy="-36.557154"
     inkscape:window-width="1920"
     inkscape:window-height="1001"
     inkscape:window-x="-9"
     inkscape:window-y="-9"
     inkscape:window-maximized="1"
     inkscape:current-layer="layer1" />
  <defs
     id="defs1" />
  <g
     inkscape:label="Layer 1"
     inkscape:groupmode="layer"
     id="layer1"
     transform="translate(-144.19792,-158.22084)">
    <g
       id="g41"
       transform="matrix(0.26458333,0,0,0.26458333,115.57982,48.31292)">
		<path
   class="st10"
   d="m 274.8,673.4 c -1.9,-22.6 -5.6,-35.1 -8.8,-46.1 -3,-10.4 -5.6,-19.3 -5.9,-34.1 -0.1,-6.7 1.1,-16.7 2.7,-29.4 2.3,-18.5 8,-61.5 4.9,-92.6 -3.4,-34.1 -15.7,-55.7 -15.7,-55.7 -0.2,0 -30.1,6.6 -60.1,6.6 -30.1,0 -60.4,-6.5 -60.5,-6.6 0,0 -12.3,21.6 -15.7,55.7 -3.1,31.1 2.6,74.2 4.9,92.6 1.5,12.7 2.8,22.7 2.7,29.4 -0.2,14.8 -2.9,23.7 -5.9,34.1 -3.2,11.1 -6.9,23.6 -8.8,46.1 -2.4,28 5.6,67.2 11.4,95.8 2.8,13.8 5.2,25.7 5.8,32.9 l 0.1,1.8 H 155 l -0.2,-2.1 c -0.2,-3.3 5.9,-82.2 9.1,-119.4 1.1,-12.3 1.2,-22.9 1.4,-32.3 0.3,-16.6 0.5,-29.8 5.7,-42.2 9.8,-23.4 17.2,-69.2 20.7,-91.2 0,0 0,-0.1 0,-0.1 0,0 0,0.1 0,0.1 0,0 0,-0.1 0,-0.1 0,0 0,0.1 0,0.1 3.6,22 11,67.7 20.7,91.2 5.2,12.4 5.4,25.6 5.7,42.2 0.2,9.3 0.3,19.9 1.4,32.3 3.2,37.2 9.2,116 9.1,119.4 l -0.2,2.1 h 29.1 l 0.1,-1.8 c 0.6,-7.2 3,-19.1 5.8,-32.9 5.8,-28.6 13.8,-67.8 11.4,-95.8 z"
   id="path34"
   style="fill:#052f59" />

		<path
   class="st11"
   d="M 203.4,432.8 H 202 c 0,0.3 -0.3,29.5 -0.3,36 0,5.3 -7.4,16 -9.4,19.5 0.3,-21.8 0.5,-56.3 0.5,-56.3 h -2.2 c 0,0 0.4,73.6 1.1,73.6 0.2,0 0.4,-6.7 0.6,-16 2.2,-1.3 11,-14.9 11,-20.8 0.1,-6.5 0.1,-35.7 0.1,-36 z"
   id="path35"
   style="fill:#03264a" />

		<path
   class="st11"
   d="m 121.2,441.6 c 2.7,0.9 5.7,1.4 8.9,1.4 11.3,0 20.5,-6.5 20.5,-14.5 0,-4.3 -2.7,-8.2 -7,-10.9 -7.5,-1.2 -12.2,-2.2 -12.2,-2.2 -0.1,0 -5.6,9.6 -10.2,26.2 z"
   id="path36"
   style="fill:#03264a" />

		<path
   class="st11"
   d="m 262.1,441.6 c -2.7,0.9 -5.7,1.4 -8.9,1.4 -11.3,0 -20.5,-6.5 -20.5,-14.5 0,-4.3 2.7,-8.2 7,-10.9 7.5,-1.2 12.2,-2.2 12.2,-2.2 0,0 5.5,9.6 10.2,26.2 z"
   id="path37"
   style="fill:#03264a" />

		<path
   class="st12"
   d="m 191.9,432.9 c 28.8,0 57.5,-5.3 64.9,-6.8 -2.7,-6.8 -4.9,-10.6 -4.9,-10.6 -0.2,0 -30.1,6.5 -60.1,6.5 -30.1,0 -60.4,-6.6 -60.5,-6.6 0,0 -2.1,3.8 -4.9,10.6 7.5,1.4 36.5,6.8 65.5,6.9 z"
   id="path38"
   style="fill:#021a30" />

		<g
   id="g40">
			<path
   class="st13"
   d="m 224.9,418.4 5.4,-0.5 c 1,-0.1 2,0.7 2.1,1.7 l 0.8,9.7 c 0.1,1 -0.7,1.9 -1.7,2 l -5.4,0.5 c -1,0.1 -2,-0.7 -2.1,-1.7 l -0.8,-9.7 c -0.1,-1 0.7,-1.9 1.7,-2 z"
   id="path39"
   style="fill:#063e73" />

			<path
   class="st13"
   d="m 158.7,418.4 -5.4,-0.5 c -1,-0.1 -2,0.7 -2.1,1.7 l -0.8,9.7 c -0.1,1 0.7,1.9 1.7,2 l 5.4,0.5 c 1,0.1 2,-0.7 2.1,-1.7 l 0.8,-9.7 c 0.1,-1 -0.6,-1.9 -1.7,-2 z"
   id="path40"
   style="fill:#063e73" />

		</g>

		<circle
   class="st14"
   cx="197.10001"
   cy="427.39999"
   r="3.3"
   id="circle40"
   style="fill:#cff4ff" />

	</g>
  </g>
</svg>
