<?xml version="1.0" encoding="UTF-8" standalone="no"?>
<!-- Created with Inkscape (http://www.inkscape.org/) -->

<svg
   width="66.201614mm"
   height="225.21765mm"
   viewBox="0 0 66.201614 225.21765"
   version="1.1"
   id="svg1"
   inkscape:version="1.4.2 (f4327f4, 2025-05-13)"
   sodipodi:docname="paper-doll.svg"
   xmlns:inkscape="http://www.inkscape.org/namespaces/inkscape"
   xmlns:sodipodi="http://sodipodi.sourceforge.net/DTD/sodipodi-0.dtd"
   xmlns="http://www.w3.org/2000/svg"
   xmlns:svg="http://www.w3.org/2000/svg">
  <sodipodi:namedview
     id="namedview1"
     pagecolor="#ffffff"
     bordercolor="#000000"
     borderopacity="0.25"
     inkscape:showpageshadow="2"
     inkscape:pageopacity="0.0"
     inkscape:pagecheckerboard="0"
     inkscape:deskcolor="#d1d1d1"
     inkscape:document-units="mm"
     inkscape:zoom="0.69753788"
     inkscape:cx="164.8656"
     inkscape:cy="417.89845"
     inkscape:window-width="1920"
     inkscape:window-height="1001"
     inkscape:window-x="-9"
     inkscape:window-y="-9"
     inkscape:window-maximized="1"
     inkscape:current-layer="layer1" />
  <defs
     id="defs1" />
  <g
     inkscape:label="Layer 1"
     inkscape:groupmode="layer"
     id="layer1"
     transform="translate(-61.623922,-37.965733)">
    <g
       id="g32"
       transform="matrix(0.26458333,0,0,0.26458333,33.89702,20.926566)">
			<g
   id="g5">
				<path
   class="st30"
   d="m 279,255.4 c 7,-6 23.2,-7.4 31.9,17.8 8.7,25.2 25.1,90.4 29.2,105.6 4,14.6 -0.3,99.5 -1.3,108.3 -0.5,4.2 -17.2,5.1 -17.5,-0.3 -0.8,-14 -2.2,-38.2 -3.7,-65.4 -0.9,-16.7 -4.1,-36.4 -9.1,-55.5 -6.8,-26.2 -16.8,-51.3 -28.6,-66.5 -12.3,-15.9 -10.3,-36 -0.9,-44 z"
   id="path1"
   style="fill:#f8ab83" />

				<g
   id="g4">
					<path
   class="st31"
   d="m 344.7,490 c 0,0 10.3,17.8 10.3,22.5 0.1,4.7 -1.2,27.6 -2.8,27.2 -1.5,-0.4 -1.7,-1.1 -1.7,-1.1 0,0 3.4,-21.2 -1.1,-31.7 -4.5,-10.5 -4.7,-16.9 -4.7,-16.9 z"
   id="path2"
   style="fill:#de8658" />

					<path
   class="st31"
   d="m 337.9,505.6 c 3.4,8.7 -6.7,19.7 -7.2,24.2 -0.4,3.6 1,4.2 2.6,1.9 1.6,-2.3 9,-17.5 9.5,-13 0.5,4.5 -6.1,14.1 -5.4,18.1 0.5,2.9 2.4,1.8 4.8,-2 2.4,-4 4.2,-9.2 4.2,-9.2 0,0 6.4,-19.6 -0.6,-31.1 0,0.1 -11.1,3.1 -7.9,11.1 z"
   id="path3"
   style="fill:#de8658" />

					<path
   class="st30"
   d="m 321.8,481 c -5.3,5.4 2.9,21.9 4.4,27.8 2.6,10.1 0.6,12.5 3.1,11.5 2.6,-1 5.5,-4.4 5.1,-11 -0.2,-3.5 -0.7,-6.6 -0.7,-8.9 3.4,3 6.7,5.7 8.5,7.9 5.7,6.8 3.4,17.7 3,25.2 -0.4,7.5 3.6,7.8 4.6,7.1 1,-0.8 2.7,-16.1 3.3,-23.5 0.6,-7.4 0.3,-8.3 -6.9,-23.9 C 339.8,479.1 328.8,474 321.8,481 Z"
   id="path4"
   style="fill:#f8ab83" />

				</g>

			</g>

			<g
   id="g9">
				<path
   class="st30"
   d="m 180.8,255.4 c -7,-6 -23.2,-7.4 -31.9,17.8 -8.7,25.2 -25.1,90.4 -29.2,105.6 -4,14.6 0.3,99.5 1.3,108.3 0.5,4.2 17.2,5.1 17.5,-0.3 0.8,-14 2.2,-38.2 3.7,-65.4 0.9,-16.7 4.1,-36.4 9.1,-55.5 6.8,-26.2 16.8,-51.3 28.6,-66.5 12.2,-15.9 10.2,-36 0.9,-44 z"
   id="path5"
   style="fill:#f8ab83" />

				<g
   id="g8">
					<path
   class="st31"
   d="m 115.1,490 c 0,0 -10.3,17.8 -10.3,22.5 -0.1,4.7 1.2,27.6 2.8,27.2 1.5,-0.4 1.7,-1.1 1.7,-1.1 0,0 -3.4,-21.2 1.1,-31.7 4.5,-10.5 4.7,-16.9 4.7,-16.9 z"
   id="path6"
   style="fill:#de8658" />

					<path
   class="st31"
   d="m 121.8,505.6 c -3.4,8.7 6.7,19.7 7.2,24.2 0.4,3.6 -1,4.2 -2.6,1.9 -1.6,-2.3 -9,-17.5 -9.5,-13 -0.5,4.5 6.1,14.1 5.4,18.1 -0.5,2.9 -2.4,1.8 -4.8,-2 -2.4,-4 -4.2,-9.2 -4.2,-9.2 0,0 -6.4,-19.6 0.6,-31.1 0,0.1 11.1,3.1 7.9,11.1 z"
   id="path7"
   style="fill:#de8658" />

					<path
   class="st30"
   d="m 138,481 c 5.3,5.4 -2.9,21.9 -4.4,27.8 -2.6,10.1 -0.6,12.5 -3.1,11.5 -2.6,-1 -5.5,-4.4 -5.1,-11 0.2,-3.5 0.7,-6.6 0.7,-8.9 -3.4,3 -6.7,5.7 -8.5,7.9 -5.7,6.8 -3.4,17.7 -3,25.2 0.4,7.5 -3.6,7.8 -4.6,7.1 -1,-0.8 -2.7,-16.1 -3.3,-23.5 -0.6,-7.4 -0.3,-8.3 6.9,-23.9 6.3,-14.1 17.3,-19.2 24.4,-12.2 z"
   id="path8"
   style="fill:#f8ab83" />

				</g>

			</g>

			<path
   class="st30"
   d="m 308.4,698.6 c -3.8,-44.1 -13.8,-58.5 -14.3,-89.2 -0.4,-26.2 9.4,-91.8 -0.1,-150.7 -4.3,-26.5 -13.9,-38.7 -15.9,-107.5 17.3,-12.2 13.6,-25.8 11.9,-37.3 14.6,17.3 18.8,-46.9 15.3,-52.2 -6.5,-9.9 -16.7,-11.4 -38.7,-17.2 -7.1,-1.9 -13.3,-6.5 -13.3,-14.5 V 181.6 H 229.9 206.6 V 230 c 0,8 -6.2,12.6 -13.3,14.5 -22,5.9 -32.2,7.3 -38.7,17.2 -3.4,5.3 0.7,69.5 15.3,52.2 -1.7,11.5 -5.4,25.1 11.9,37.3 0.3,68.6 -11.6,81 -15.9,107.5 -9.5,58.9 0.3,124.5 -0.1,150.7 -0.5,30.7 -10.5,45.1 -14.3,89.2 -3.8,44.1 15.2,115.4 14.4,132.8 -0.5,10.6 -8.9,44.4 -6.3,67.8 1.2,10.9 1.6,12.3 3.2,13.6 1.9,1.5 3.5,0.1 3.5,0.1 0,0 1,1.8 3.6,2.1 2.6,0.2 3.5,-0.9 3.5,-0.9 0,0 1.5,1.7 4.4,1.5 2.9,-0.2 3.2,-1.4 3.2,-1.4 0,0 1.4,1.5 4.2,1.1 2.8,-0.5 3.4,-2.3 3.4,-2.3 0,0 1.2,1.5 5.1,1.3 3.3,-0.2 5.7,-0.9 5.4,-9 -0.8,-17.8 -6.5,-56.3 -8.9,-86.3 -3.1,-38.1 6.8,-77 9.8,-111.7 3,-34.7 -2.5,-44.6 7.2,-75.3 18,-56.6 14.7,-122.5 14.6,-122.6 0.5,0 4.6,0.9 8.3,0.9 3.1,0 7.2,-0.9 7.7,-0.9 0,0.1 -3.3,66 14.6,122.6 9.8,30.7 4.2,40.6 7.2,75.3 3,34.7 12.9,73.6 9.8,111.7 -2.4,30 -8.1,68.4 -8.9,86.3 -0.4,8.1 2.1,8.8 5.4,9 4,0.2 5.1,-1.4 5.1,-1.3 0,0 0.7,1.8 3.4,2.3 2.8,0.5 4.2,-1.1 4.2,-1.1 0,0 0.3,1.2 3.2,1.4 2.9,0.2 4.4,-1.5 4.4,-1.5 0,0 0.9,1.1 3.5,0.9 2.6,-0.3 3.6,-2.1 3.6,-2.1 0,0 1.7,1.3 3.5,-0.1 1.6,-1.2 2,-2.7 3.2,-13.6 2.6,-23.4 -5.8,-57.2 -6.3,-67.8 -0.5,-17.4 18.5,-88.7 14.7,-132.8 z"
   id="path9"
   style="fill:#f8ab83" />

			<path
   class="st31"
   d="m 232.3,239.4 c 8.9,0 16.2,-6.2 20.9,-11.6 v -46.3 h -22.7 -0.5 -0.2 -23.3 v 42.4 c 5.7,6.8 14.9,15.5 25.8,15.5 z"
   id="path10"
   style="fill:#de8658" />

			<g
   id="g13">
				<g
   id="g12">
					<g
   id="g11">
						<path
   class="st32"
   d="m 296,473.4 c 0,0 0.5,-8.8 -0.4,-15 -1.3,-8.9 -4,-11.7 -4,-11.7 0,0 -24.4,12.3 -61.3,12.3 -36.7,0 -62.2,-11.7 -62.2,-11.7 0,0 -2.6,4.9 -3.5,11.6 -1.2,9.1 -0.9,15.4 -0.9,15.4 0,0 13.9,8.5 28.1,16.9 18.7,11.1 28.4,20.4 30.3,21.9 1.1,0.9 14.3,1 15.5,0 1.9,-1.5 11.7,-9.8 30.4,-20.9 14.3,-8.4 28,-18.8 28,-18.8 z"
   id="path11"
   style="fill:#062f7f" />

					</g>

				</g>

			</g>

			<path
   class="st33"
   d="m 282.2,352.2 c 15.2,-18.1 8.6,-36.9 8.6,-36.9 0,0 -5.7,-13.8 -7.1,-33 -1.2,-16.3 -1.5,-34.9 -1.5,-34.9 l -11.1,-2.7 c 0,0 -7.2,46.7 -41.1,46.7 -38.8,0 -41.1,-46.7 -41.1,-46.7 l -11.1,2.7 c 0,0 -0.3,18.6 -1.5,34.9 -1.4,19.2 -7.1,33 -7.1,33 0,0 -6.7,18.8 8.6,36.9 8.4,10 -12.3,98.4 -12.3,98.4 0,0 23.8,9.6 65.3,9.6 41.5,0 63.9,-9.6 63.9,-9.6 0,0 -20.9,-88.4 -12.5,-98.4 z"
   id="path13"
   style="fill:#110628" />

			<g
   id="g31">
				<circle
   class="st34"
   cx="231.5"
   cy="83.300003"
   r="18.9"
   id="circle13"
   style="fill:#4f1304" />

				<path
   class="st35"
   d="m 231.5,87.7 c -6,0 -11.6,0.7 -16.2,1.9 -1.6,0.4 -2.5,2 -1.9,3.4 2.8,6.6 9.9,11.3 18.1,11.3 8.2,0 15.3,-4.7 18.1,-11.3 0.6,-1.4 -0.3,-3 -1.9,-3.4 -4.6,-1.2 -10.2,-1.9 -16.2,-1.9 z"
   id="path14"
   style="fill:#8a4821" />

				<path
   class="st36"
   d="m 231.5,89.3 c -6.4,0 -12.3,0.8 -17.3,2 -1.7,0.4 -2.7,2.1 -2,3.6 3,7 10.5,12 19.3,12 8.8,0 16.3,-5 19.3,-12 0.7,-1.5 -0.3,-3.2 -2,-3.6 -4.9,-1.2 -10.9,-2 -17.3,-2 z"
   id="path15"
   style="fill:#a85a27" />

				<path
   class="st34"
   d="m 181.6,179.6 c 0,0 5.2,26 48.8,26 43.6,0 50.6,-25.2 50.6,-25.2 z"
   id="path16"
   style="fill:#4f1304" />

				<path
   class="st31"
   d="m 267.1,178.2 c -0.1,5.7 3.7,4.5 8.5,4.6 4.8,0.1 12.9,-8.8 13,-14.4 0.1,-5.7 -3.3,-7.1 -8.3,-8.9 -6.7,-2.5 -13.1,13 -13.2,18.7 z"
   id="path17"
   style="fill:#de8658" />

				<path
   class="st31"
   d="m 196.6,178.2 c 0.1,5.7 -3.7,4.5 -8.5,4.6 -4.8,0.1 -12.9,-8.8 -13,-14.4 -0.1,-5.7 3.3,-7.1 8.3,-8.9 6.7,-2.5 13.1,13 13.2,18.7 z"
   id="path18"
   style="fill:#de8658" />

				<path
   class="st30"
   d="m 231.8,94.5 c -26.8,0.2 -48,23.9 -46.3,52 0,0 2.1,42.6 16.9,59.8 6.6,7.7 14.9,14.8 14.9,14.8 4.2,3.7 9.3,5.5 14.5,5.6 5.1,-0.1 10.3,-1.9 14.5,-5.6 0,0 8.3,-7.1 14.9,-14.8 14.9,-17.3 16.9,-59.8 16.9,-59.8 1.7,-28.1 -19.5,-51.8 -46.3,-52 z"
   id="path19"
   style="fill:#f8ab83" />

				<g
   id="g21">
					<g
   id="g20">
						<path
   class="st34"
   d="m 254.8,158.8 c -6,-0.1 -9,2.6 -9.2,2.7 -0.7,0.6 -1.9,0.7 -2.7,0.2 -0.8,-0.5 -0.9,-1.5 -0.2,-2.1 0.2,-0.2 4.3,-3.9 12.2,-3.8 7.8,0.1 13.4,5.5 12.6,6.1 -0.5,0.3 -6.6,-3 -12.7,-3.1 z"
   id="path20"
   style="fill:#4f1304" />

					</g>

				</g>

				<g
   id="g23">
					<g
   id="g22">
						<path
   class="st34"
   d="m 208.3,158.8 c 6,-0.1 9,2.6 9.2,2.7 0.7,0.6 1.9,0.7 2.7,0.2 0.8,-0.5 0.9,-1.5 0.2,-2.1 -0.2,-0.2 -4.3,-3.9 -12.2,-3.8 -7.8,0.1 -13.4,5.5 -12.6,6.1 0.5,0.3 6.6,-3 12.7,-3.1 z"
   id="path21"
   style="fill:#4f1304" />

					</g>

				</g>

				<path
   class="st34"
   d="m 231.8,91.2 c -66.6,0 -53.7,70.7 -53.7,70.7 0,0 1.6,-0.9 4.2,-2 0,0 0.1,0 0.1,0 1.6,-0.7 3.5,0.5 3.6,2.3 l 3.4,49.4 c 0,0 0.5,-45.8 4.5,-57.1 1.4,-4.1 5.6,-5.9 12.6,-8.6 -1.2,1 -2.4,1.9 -3.4,2.8 -2.1,1.9 -3.5,3.7 -4.3,5 -0.4,0.7 -0.7,1.2 -0.9,1.6 -0.2,0.4 -0.3,0.6 -0.3,0.6 0,0 0.2,-0.1 0.4,-0.4 0.3,-0.3 0.7,-0.7 1.3,-1.2 1.2,-1 2.9,-2.2 5.2,-3.6 2.3,-1.3 5.2,-2.8 8.4,-4.5 3.2,-1.7 6.6,-3.7 10.1,-6 3,-1.9 5.8,-3.8 8.3,-5.8 1.9,-1 3.5,-2 5,-2.9 -2.9,3.2 -5.9,5.9 -8.4,7.8 -1.5,1.2 -2.9,2.1 -3.8,2.7 -1,0.6 -1.5,1 -1.5,1 0,0 0.6,0 1.8,-0.2 1.1,-0.2 2.8,-0.6 4.7,-1.3 3.9,-1.4 9.1,-4.3 13.2,-9.4 1.2,-1.5 2.2,-3 3,-4.6 2.2,2.7 7.5,10.3 17.4,17.6 13.3,9.9 11.1,63.3 11.1,63.3 l 3.6,-47.8 c 0.1,-1.1 1.1,-1.8 2.1,-1.5 0,0 0,0 0.1,0 2.1,0.6 3.5,1.3 3.5,1.3 0,0 12.3,-69.2 -51.3,-69.2 z"
   id="path23"
   style="fill:#4f1304" />

				<g
   id="g30">
					<g
   id="g26">
						<path
   class="st8"
   d="m 243.6,172.2 c 0,0 4.9,-13.1 21.1,-6.3 -2.6,5.7 -7.3,11.2 -21.1,6.3 z"
   id="path24"
   style="fill:#ffffff" />

						<path
   class="st3"
   d="m 243.6,171.9 c 0,0 0.1,0 0,0 0.8,-1.6 6.1,-12.3 21.1,-6 0.5,-0.9 0.6,-0.9 0.9,-1.4 -16.8,-7.9 -22,7.4 -22,7.4 z"
   id="path25"
   style="fill:#242121" />

						<circle
   class="st3"
   cx="252.5"
   cy="167.8"
   r="4.4000001"
   id="circle25"
   style="fill:#242121" />

						<circle
   class="st8"
   cx="249.7"
   cy="169.3"
   r="1.9"
   id="circle26"
   style="fill:#ffffff" />

					</g>

					<g
   id="g28">
						<path
   class="st8"
   d="m 219.1,172.2 c 0,0 -4.9,-13.1 -21.1,-6.3 2.5,5.7 7.3,11.2 21.1,6.3 z"
   id="path26"
   style="fill:#ffffff" />

						<path
   class="st3"
   d="m 219,171.9 c 0,0 0,0 0,0 -0.8,-1.6 -6.1,-12.3 -21.1,-6 -0.5,-0.9 -0.6,-0.9 -0.9,-1.4 16.9,-7.9 22,7.4 22,7.4 z"
   id="path27"
   style="fill:#242121" />

						<circle
   class="st3"
   cx="210.2"
   cy="167.8"
   r="4.4000001"
   id="circle27"
   style="fill:#242121" />

						<circle
   class="st8"
   cx="207.60001"
   cy="168.89999"
   r="1.9"
   id="circle28"
   style="fill:#ffffff" />

					</g>

					<path
   class="st31"
   d="m 225.1,170.9 c 0,0 3.9,2.3 3.9,10.2 v 10.5 c 0,1.5 1.5,2.7 3.3,2.7 h 0.7 c 0,0 -2.8,3.9 -6.9,0.6 -4.1,-3.3 4.3,-11.7 -1,-24 z"
   id="path28"
   style="fill:#de8658" />

					<path
   class="st9"
   d="m 235.4,201.5 c -1.1,-0.3 -2.2,0 -3.1,1 l -1.2,1.3 -1.2,-1.3 c -0.9,-1 -2,-1.3 -3.1,-1 l -8.4,2.6 c 5.1,11.3 20.4,11.3 25.5,0 z"
   id="path29"
   style="fill:#ed4f4c" />

					<path
   class="st5"
   d="m 243.8,204.1 -8.4,-2.6 c -1.1,-0.3 -2.2,0 -3.1,1 l -1.2,1.3 -1.2,-1.3 c -0.9,-1 -2,-1.3 -3.1,-1 l -8.4,2.6 c -0.1,0 12.7,7.6 25.4,0 z"
   id="path30"
   style="fill:#d92622" />

				</g>

			</g>

		</g>
  </g>
</svg>
