<?xml version="1.0" encoding="utf-8"?>
<!-- Generator: Adobe Illustrator 19.0.0, SVG Export Plug-In . SVG Version: 6.00 Build 0)  -->
<svg xmlns="http://www.w3.org/2000/svg" xmlns:xlink="http://www.w3.org/1999/xlink" version="1.1" id="Layer_1" x="0px" y="0px" viewBox="0 0 1400 980" style="enable-background:new 0 0 1400 980;" xml:space="preserve">
<style type="text/css">
	.st0{fill:#FFEDCC;}
	.st1{fill:#FFC482;}
	.st2{fill:#FC9B3E;}
	.st3{fill:#F43E31;}
	.st4{fill:#84CC5A;}
	.st5{fill:#FF8768;}
	.st6{fill:#FFCD5A;}
	.st7{opacity:0.1;}
	.st8{fill:#1D1D1B;}
	.st9{fill:#55CD69;}
	.st10{fill:#FF6664;}
	.st11{fill:#FFFFFF;}
	.st12{fill:#47372C;}
	.st13{opacity:0.2;}
	.st14{fill:#996047;}
	.st15{fill:#AF795B;}
	.st16{fill:#FF9B8A;}
	.st17{fill:#FF6266;}
	.st18{fill:#FFCFCA;}
	.st19{fill:#ECAA66;}
	.st20{fill:#D8975B;}
	.st21{fill:#EAE8E5;}
	.st22{fill:#D3D3D3;}
	.st23{fill:#F44545;}
	.st24{fill:#98C8F4;}
	.st25{fill:#F24664;}
	.st26{fill:#82C45F;}
</style>

<g>
	<g>
		<path class="st1" d="M1241.3,154H1228v61c0,11.7-9.8,21.2-21.5,21.2s-21.5-9.5-21.5-21.2v-61h-75v61c0,11.7-9.3,21.2-21,21.2    s-21-9.5-21-21.2v-61h-72v61c0,11.7-9.8,21.2-21.5,21.2c-11.7,0-21.5-9.5-21.5-21.2v-61h-5.4c-49.5,0-99.6,48.6-99.6,87.3V275h487    v-33.7C1335,202.6,1290.8,154,1241.3,154z"/>
		<path class="st2" d="M1089,236.2c11.7,0,21-9.5,21-21.2v-61h-42v61C1068,226.7,1077.3,236.2,1089,236.2z"/>
		<path class="st2" d="M974.5,236.2c11.7,0,21.5-9.5,21.5-21.2v-61h-43v61C953,226.7,962.8,236.2,974.5,236.2z"/>
		<path class="st2" d="M1206.5,236.2c11.7,0,21.5-9.5,21.5-21.2v-61h-43v61C1185,226.7,1194.8,236.2,1206.5,236.2z"/>
	</g>
	<path class="st3" d="M1335,298.8c0,12.8-10.4,23.2-23.2,23.2H871.2c-12.8,0-23.2-10.4-23.2-23.2v-0.5c0-12.8,10.4-23.2,23.2-23.2   h440.5c12.8,0,23.2,10.4,23.2,23.2V298.8z"/>
	<path class="st4" d="M911,273.6c0,16.6-12.7,30-28.5,30c-15.7,0-28.5-13.4-28.5-30"/>
	<path class="st4" d="M963.6,273.6c0,16.6-12.7,30-28.5,30c-15.7,0-28.5-13.4-28.5-30"/>
	<path class="st4" d="M1016.1,273.6c0,16.6-12.7,30-28.5,30c-15.7,0-28.5-13.4-28.5-30"/>
	<path class="st4" d="M1068.7,273.6c0,16.6-12.7,30-28.5,30c-15.7,0-28.5-13.4-28.5-30"/>
	<path class="st4" d="M1121.2,273.6c0,16.6-12.7,30-28.5,30c-15.7,0-28.5-13.4-28.5-30"/>
	<path class="st4" d="M1173.7,273.6c0,16.6-12.7,30-28.5,30c-15.7,0-28.5-13.4-28.5-30"/>
	<path class="st4" d="M1226.3,273.6c0,16.6-12.7,30-28.5,30c-15.7,0-28.5-13.4-28.5-30"/>
	<path class="st4" d="M1278.8,273.6c0,16.6-12.7,30-28.5,30c-15.7,0-28.5-13.4-28.5-30"/>
	<path class="st4" d="M1331.4,273.6c0,16.6-12.7,30-28.5,30c-15.7,0-28.5-13.4-28.5-30"/>
	<path class="st5" d="M1335,340.8c0,12.8-10.4,23.2-23.2,23.2H871.2c-12.8,0-23.2-10.4-23.2-23.2v-0.5c0-12.8,10.4-23.2,23.2-23.2   h440.5c12.8,0,23.2,10.4,23.2,23.2V340.8z"/>
	<path class="st1" d="M1342.8,385c0,12.8-2.5,23-16.1,23H858.4c-13.6,0-16.1-10.2-16.1-23l0,0c0-12.8,2.5-23,16.1-23h468.3   C1340.4,362,1342.8,372.2,1342.8,385L1342.8,385z"/>
	<polyline class="st6" points="872.3,317.1 1092.6,350.7 1303.8,317.1  "/>
	<g class="st7">
		<path class="st8" d="M1326.7,362h-4.4c8.1-4,13.8-12,13.8-21.5c0-9.5-5.7-17.7-13.8-21.3c8.1-3.6,13.8-11.8,13.8-21.3    c0-6-2.3-11.2-6-15.3c0.7-2.5,1.1-5.6,1.2-7.6h3.7v-33.7c0-38.7-44.2-87.3-93.7-87.3H1229h-42.4h-74.8H1087v254h239.7    c13.6,0,16.1-10.2,16.1-23S1340.4,362,1326.7,362z"/>
	</g>
</g>
<g>
	<g>
		<path class="st9" d="M1037.2,584.2c0,115.9-103.8,209.9-231.8,209.9c-128,0-231.8-94-231.8-209.9"/>
		<path class="st10" d="M611,583.6c0,97,87,179,194.5,179c107.5,0,194.7-80.3,194.7-177.3L611,583.6z"/>
		<path class="st11" d="M805.5,768.4c-112.4,0-203.8-84.4-203.8-185.4h18.2c0,91,83.3,167.2,185.6,167.2S991.1,674,991.1,583h18.2    C1009.3,684,917.8,768.4,805.5,768.4z"/>
	</g>
	<g>
		<g>
			<path class="st12" d="M714,617.5c0,4.2-3.4,7.5-7.5,7.5h-20.9c-4.2,0-7.5-3.4-7.5-7.5v-0.9c0-4.2,3.4-7.5,7.5-7.5h20.9     c4.2,0,7.5,3.4,7.5,7.5V617.5z"/>
			<path class="st12" d="M749,662.3c0,4.2-2.4,6.7-6.6,6.7h-21.1c-4.2,0-9.3-2.5-9.3-6.7v-0.8c0-4.2,5.2-8.6,9.3-8.6h21.1     c4.2,0,6.6,4.4,6.6,8.6V662.3z"/>
			<path class="st12" d="M823,662.3c0,4.2-1.8,6.7-6,6.7h-21.1c-4.2,0-8.9-2.5-8.9-6.7v-0.8c0-4.2,4.8-8.6,8.9-8.6H817     c4.2,0,6,4.4,6,8.6V662.3z"/>
			<path class="st12" d="M785,617.1c0,4.2-2.2,6.9-6.4,6.9h-21.1c-4.2,0-8.5-2.7-8.5-6.9v-0.8c0-4.2,4.3-7.3,8.5-7.3h21.1     c4.2,0,6.4,3.2,6.4,7.3V617.1z"/>
			<path class="st12" d="M785,703c0,4.2-2.2,7-6.4,7h-21.1c-4.2,0-8.5-2.8-8.5-7v-0.8c0-4.2,4.3-8.2,8.5-8.2h21.1     c4.2,0,6.4,4.1,6.4,8.2V703z"/>
		</g>
		<g>
			<path class="st12" d="M932,616.5c0-4.2-3.4-7.5-7.5-7.5h-20.9c-4.2,0-7.5,3.4-7.5,7.5v0.9c0,4.2,3.4,7.5,7.5,7.5h20.9     c4.2,0,7.5-3.4,7.5-7.5V616.5z"/>
			<path class="st12" d="M862,662.3c0,4.2,4.4,6.7,8.5,6.7h21.1c4.2,0,6.4-2.5,6.4-6.7v-0.8c0-4.2-2.2-8.6-6.4-8.6h-21.1     c-4.2,0-8.5,4.4-8.5,8.6V662.3z"/>
			<path class="st12" d="M787,662.3c0,4.2,4.8,6.7,8.9,6.7H817c4.2,0,6-2.5,6-6.7v-0.8c0-4.2-1.8-8.6-6-8.6h-21.1     c-4.2,0-8.9,4.4-8.9,8.6V662.3z"/>
			<path class="st12" d="M862,616.5c0-4.2-3.4-7.5-7.5-7.5h-20.9c-4.2,0-7.5,3.4-7.5,7.5v0.9c0,4.2,3.4,7.5,7.5,7.5h20.9     c4.2,0,7.5-3.4,7.5-7.5V616.5z"/>
			<path class="st12" d="M862,701.5c0-4.2-3.4-7.5-7.5-7.5h-20.9c-4.2,0-7.5,3.4-7.5,7.5v0.9c0,4.2,3.4,7.5,7.5,7.5h20.9     c4.2,0,7.5-3.4,7.5-7.5V701.5z"/>
		</g>
	</g>
	<g class="st13">
		<path class="st12" d="M1037.2,585h-28c0-2,0-2,0-2h-18.2c0,0,0,0,0,2H805v210.2C935,794.7,1037.2,700,1037.2,585z"/>
	</g>
</g>
<g>
	<path class="st14" d="M480.6,560H270c-25.5,0-35,37.4-35,58.3v17.6c0,16.2,10,25.4,22,28.8v128.8c0,13.3,11.5,24.6,24.8,24.6h181.8   c13.3,0,24.4-11.3,24.4-24.6V665.6c15-2.1,28-11.6,28-29.7v-17.6C516,597.4,506,560,480.6,560z"/>
	<path class="st15" d="M290.6,560H96.2C70.7,560,61,597.4,61,618.3v17.6c0,16.2,10,25.4,23,28.8v128.8c0,13.3,10.7,24.6,24,24.6   h165.6c13.3,0,23.3-11.3,23.3-24.6V665.6c17-2.1,28-11.6,28-29.7v-17.6C325,597.4,316.1,560,290.6,560z"/>
	<path class="st1" d="M279.6,576H107.2C86.7,576,79,592.3,79,621.5v14.1c0,13,9,17.4,19,20.1v128.4c0,10.7,9,19.9,19.7,19.9H264   c10.7,0,20-9.3,20-19.9V656.5c12-1.7,23-6.3,23-20.9v-14.1C307,599.3,300,576,279.6,576z"/>
	<circle class="st14" cx="154.5" cy="648.3" r="9.6"/>
	<circle class="st14" cx="204.5" cy="625.5" r="7.1"/>
	<circle class="st14" cx="204" cy="688.7" r="6.6"/>
	<circle class="st14" cx="151.9" cy="726.6" r="7.1"/>
	<circle class="st14" cx="212.1" cy="753.9" r="8.1"/>
	<circle class="st14" cx="248.9" cy="701.3" r="6.1"/>
	<circle class="st14" cx="256" cy="625.5" r="7.1"/>
	<path class="st14" d="M116.6,599.3c0,2.2-1.8,4-4,4c-2.2,0-4-1.8-4-4c0-2.2,1.8-4,4-4C114.8,595.2,116.6,597,116.6,599.3z"/>
	<circle class="st14" cx="132.2" cy="776.6" r="7.6"/>
	<path class="st14" d="M191.4,780.6c0,2.2-1.8,4-4,4c-2.2,0-4-1.8-4-4c0-2.2,1.8-4,4-4C189.5,776.6,191.4,778.4,191.4,780.6z"/>
	<circle class="st14" cx="248.7" cy="774.8" r="5.8"/>
</g>
<g>
	<path class="st16" d="M384,288.4c0,0-25.2,20.3-32.8,15.5c-9.4-5.9-9-38.2,0.2-44.5c7.2-4.9,32.6,12.8,32.6,12.8V288.4z"/>
	<g>
		<path class="st17" d="M497,280.8v-0.3c0-29.5,23.2-53.5,52.7-53.5H422.3c-29.5,0-52.3,24-52.3,53.5v0.3    c0,29.5,22.8,52.2,52.3,52.2h127.3C520.2,333,497,310.3,497,280.8z"/>
		<path class="st16" d="M608,280.8v-0.3c0-29.5-24.5-53.5-54-53.5h-4.3c-29.5,0-52.7,24-52.7,53.5v0.3c0,29.5,23.2,52.2,52.7,52.2    h4.3C583.5,333,608,310.3,608,280.8z"/>
	</g>
	<path class="st17" d="M711.6,227h-4.3h-40.4c-29.5,0-51.9,24-51.9,53.5v0.3c0,29.5,22.4,52.2,51.9,52.2h40.4h4.3   c29.5,0,54.4-22.7,54.4-52.2v-0.3C766,251,741.1,227,711.6,227z"/>
	<circle class="st18" cx="557.6" cy="250.6" r="5.8"/>
	<circle class="st18" cx="530.7" cy="275.7" r="6.1"/>
	<circle class="st18" cx="564.7" cy="280" r="4.3"/>
	<circle class="st18" cx="568" cy="310" r="4.5"/>
	<circle class="st18" cx="533.4" cy="303.7" r="6.3"/>
	<circle class="st18" cx="597" cy="280" r="4.3"/>
	<circle class="st18" cx="581" cy="253.5" r="2.9"/>
	<circle class="st18" cx="521.5" cy="247.8" r="3"/>
	<path class="st16" d="M754,286.4c0,0,19.7,20.3,27.3,15.5c9.4-5.9,9.7-38.2,0.5-44.5c-7.2-4.9-27.8,12.8-27.8,12.8V286.4z"/>
</g>
<g>
	<g>
		<g>
			<path class="st19" d="M179,240.4l0,1.9c33.4,0.4,69.7-2.5,105.6-11.2c-12.5-41.5-55.2-59.7-106-59.7c-50.7,0-93.4,18.2-106,59.7     c26,5.1,63.8,10.8,106.4,11.2L179,240.4z"/>
			<path class="st20" d="M72.5,231c-2.4,8.1-3.8,16.8-3.8,26.7c0,5.2,0.4,11.3,1.1,15.3h53l-3.3-26.8l3.3,26.8h56l0.1-31     C136.4,241.6,98.6,236.2,72.5,231z"/>
			<path class="st20" d="M179,242l-0.1,31h55.6l3.3-26.8l-3.3,26.8h52.8c0.7-4,1.1-10,1.1-15.3c0-9.9-1.3-18.8-3.8-26.8     C248.6,239.6,212.3,242.4,179,242z"/>
		</g>
		<polygon class="st21" points="122.9,273 133.3,358.1 140.9,421 178.3,421 178.5,367.9 178.8,273   "/>
		<polygon class="st22" points="178.8,273 178.5,367.9 178.3,421 216.4,421 224,358 234.4,273   "/>
		<polygon class="st21" points="287.2,273 234.4,273 224,358 216.4,421 249.9,421 253,421 288.5,273   "/>
		<polygon class="st22" points="133.3,358.1 122.9,273 69.9,273 69,273 104.6,421 107.7,421 140.9,421   "/>
	</g>
	<circle class="st23" cx="178.6" cy="172.5" r="31.3"/>
</g>
<g>
	<g>
		<path class="st24" d="M1295,567v-10h-166v10c-11,4.3-23,20.8-23,33.4v230.1c0,14.6,11.7,26.5,26.3,26.5h159.3    c14.6,0,26.3-11.9,26.3-26.5V600.4C1318,587.8,1304,571.3,1295,567z"/>
		<path class="st25" d="M1122,559v-16.9c0-13.4,12.7-20.1,26.2-20.1h132.5c13.4,0,21.4,6.7,21.4,20.1V559"/>
		<path class="st25" d="M1298,627v177.4c0,16.7-12.7,31.6-29.4,31.6h-113.2c-16.7,0-31.4-14.9-31.4-31.6V627"/>
		<circle class="st11" cx="1212.5" cy="732.1" r="65.2"/>
		<g>
			<g>
				<path class="st26" d="M1211.5,684.6c0,0-25.3,30.8,0,42.6C1211.5,727.1,1234.1,713.3,1211.5,684.6z"/>
				<path class="st26" d="M1188.4,693.7c0,0-0.3,39.9,26.8,33.1C1215.2,726.8,1224,701.9,1188.4,693.7z"/>
				<path class="st26" d="M1232.8,690.7c0,0-37,15-20.3,37.4C1212.4,728,1238.9,726.7,1232.8,690.7z"/>
			</g>
			<path class="st25" d="M1245.3,731c0,18.2-20.2,45.1-33,45.1c-12.8,0-33-26.9-33-45.1c0-18.2,14.8-22.9,33-22.9     C1230.5,708,1245.3,712.7,1245.3,731z"/>
		</g>
	</g>
	<g class="st7">
		<path d="M1295,567v-8h7v-16.9c0-13.4-7.9-20.1-21.4-20.1h-69.7l0.1,335h80.7c14.6,0,26.3-11.9,26.3-26.5V600.4    C1318,587.8,1304,571.3,1295,567z"/>
	</g>
</g>
</svg>
