<?xml version="1.0" encoding="UTF-8"?>
<svg xmlns="http://www.w3.org/2000/svg" xmlns:xlink="http://www.w3.org/1999/xlink" width="3872.99" height="3872.99" viewBox="0 0 3872.99 3872.99">
<defs>
<clipPath id="clip-0">
<path clip-rule="nonzero" d="M 0 0 L 3872.988281 0 L 3872.988281 3872.988281 L 0 3872.988281 Z M 0 0 "/>
</clipPath>
<clipPath id="clip-1">
<path clip-rule="evenodd" d="M 459.511719 196.929688 C 315.09375 196.929688 196.925781 315.089844 196.925781 459.511719 L 196.925781 3413.46875 C 196.925781 3557.898438 315.09375 3676.058594 459.511719 3676.058594 L 3413.46875 3676.058594 C 3557.898438 3676.058594 3676.058594 3557.898438 3676.058594 3413.46875 L 3676.058594 459.511719 C 3676.058594 315.089844 3557.898438 196.929688 3413.46875 196.929688 Z M 459.511719 0 L 3413.46875 0 C 3666.210938 0 3872.988281 206.78125 3872.988281 459.511719 L 3872.988281 3413.46875 C 3872.988281 3666.210938 3666.210938 3872.988281 3413.46875 3872.988281 L 459.511719 3872.988281 C 206.777344 3872.988281 0 3666.210938 0 3413.46875 L 0 459.511719 C 0 206.78125 206.777344 0 459.511719 0 "/>
</clipPath>
<linearGradient id="linear-pattern-0" gradientUnits="userSpaceOnUse" x1="-0.260024" y1="0" x2="1.260167" y2="0" gradientTransform="matrix(2547.7, 2547.7, -2547.7, 2547.7, 662.464, 662.46)">
<stop offset="0" stop-color="rgb(98.431396%, 76.469421%, 26.66626%)" stop-opacity="1"/>
<stop offset="0.125" stop-color="rgb(98.431396%, 76.469421%, 26.66626%)" stop-opacity="1"/>
<stop offset="0.15625" stop-color="rgb(98.431396%, 76.469421%, 26.66626%)" stop-opacity="1"/>
<stop offset="0.171875" stop-color="rgb(98.429871%, 76.49231%, 26.679993%)" stop-opacity="1"/>
<stop offset="0.175781" stop-color="rgb(98.423767%, 76.739502%, 26.831055%)" stop-opacity="1"/>
<stop offset="0.179688" stop-color="rgb(98.419189%, 76.96228%, 26.968384%)" stop-opacity="1"/>
<stop offset="0.183594" stop-color="rgb(98.414612%, 77.185059%, 27.104187%)" stop-opacity="1"/>
<stop offset="0.1875" stop-color="rgb(98.410034%, 77.407837%, 27.241516%)" stop-opacity="1"/>
<stop offset="0.191406" stop-color="rgb(98.403931%, 77.630615%, 27.377319%)" stop-opacity="1"/>
<stop offset="0.195313" stop-color="rgb(98.399353%, 77.853394%, 27.514648%)" stop-opacity="1"/>
<stop offset="0.199219" stop-color="rgb(98.39325%, 78.076172%, 27.650452%)" stop-opacity="1"/>
<stop offset="0.203125" stop-color="rgb(98.388672%, 78.29895%, 27.787781%)" stop-opacity="1"/>
<stop offset="0.207031" stop-color="rgb(98.384094%, 78.521729%, 27.92511%)" stop-opacity="1"/>
<stop offset="0.210938" stop-color="rgb(98.379517%, 78.744507%, 28.062439%)" stop-opacity="1"/>
<stop offset="0.214844" stop-color="rgb(98.373413%, 78.967285%, 28.198242%)" stop-opacity="1"/>
<stop offset="0.21875" stop-color="rgb(98.368835%, 79.190063%, 28.335571%)" stop-opacity="1"/>
<stop offset="0.222656" stop-color="rgb(98.362732%, 79.412842%, 28.471375%)" stop-opacity="1"/>
<stop offset="0.226563" stop-color="rgb(98.358154%, 79.63562%, 28.608704%)" stop-opacity="1"/>
<stop offset="0.230469" stop-color="rgb(98.353577%, 79.858398%, 28.744507%)" stop-opacity="1"/>
<stop offset="0.234375" stop-color="rgb(98.348999%, 80.081177%, 28.881836%)" stop-opacity="1"/>
<stop offset="0.238281" stop-color="rgb(98.342896%, 80.303955%, 29.017639%)" stop-opacity="1"/>
<stop offset="0.242188" stop-color="rgb(98.338318%, 80.526733%, 29.154968%)" stop-opacity="1"/>
<stop offset="0.246094" stop-color="rgb(98.332214%, 80.749512%, 29.290771%)" stop-opacity="1"/>
<stop offset="0.25" stop-color="rgb(98.327637%, 80.97229%, 29.428101%)" stop-opacity="1"/>
<stop offset="0.253906" stop-color="rgb(98.323059%, 81.195068%, 29.56543%)" stop-opacity="1"/>
<stop offset="0.257812" stop-color="rgb(98.318481%, 81.417847%, 29.702759%)" stop-opacity="1"/>
<stop offset="0.261719" stop-color="rgb(98.312378%, 81.640625%, 29.838562%)" stop-opacity="1"/>
<stop offset="0.265625" stop-color="rgb(98.3078%, 81.863403%, 29.975891%)" stop-opacity="1"/>
<stop offset="0.269531" stop-color="rgb(98.303223%, 82.086182%, 30.111694%)" stop-opacity="1"/>
<stop offset="0.273438" stop-color="rgb(98.298645%, 82.30896%, 30.249023%)" stop-opacity="1"/>
<stop offset="0.277344" stop-color="rgb(98.292542%, 82.531738%, 30.384827%)" stop-opacity="1"/>
<stop offset="0.28125" stop-color="rgb(98.287964%, 82.754517%, 30.522156%)" stop-opacity="1"/>
<stop offset="0.285156" stop-color="rgb(98.28186%, 82.977295%, 30.657959%)" stop-opacity="1"/>
<stop offset="0.289062" stop-color="rgb(98.277283%, 83.200073%, 30.795288%)" stop-opacity="1"/>
<stop offset="0.292969" stop-color="rgb(98.272705%, 83.422852%, 30.931091%)" stop-opacity="1"/>
<stop offset="0.296875" stop-color="rgb(98.268127%, 83.64563%, 31.06842%)" stop-opacity="1"/>
<stop offset="0.300781" stop-color="rgb(98.262024%, 83.868408%, 31.204224%)" stop-opacity="1"/>
<stop offset="0.304688" stop-color="rgb(98.257446%, 84.091187%, 31.341553%)" stop-opacity="1"/>
<stop offset="0.308594" stop-color="rgb(98.251343%, 84.312439%, 31.478882%)" stop-opacity="1"/>
<stop offset="0.3125" stop-color="rgb(98.246765%, 84.535217%, 31.616211%)" stop-opacity="1"/>
<stop offset="0.316406" stop-color="rgb(98.242188%, 84.757996%, 31.752014%)" stop-opacity="1"/>
<stop offset="0.320312" stop-color="rgb(98.23761%, 84.980774%, 31.889343%)" stop-opacity="1"/>
<stop offset="0.324219" stop-color="rgb(98.231506%, 85.203552%, 32.025146%)" stop-opacity="1"/>
<stop offset="0.328125" stop-color="rgb(98.226929%, 85.426331%, 32.162476%)" stop-opacity="1"/>
<stop offset="0.332031" stop-color="rgb(98.220825%, 85.649109%, 32.298279%)" stop-opacity="1"/>
<stop offset="0.335938" stop-color="rgb(98.216248%, 85.871887%, 32.435608%)" stop-opacity="1"/>
<stop offset="0.339844" stop-color="rgb(98.21167%, 86.094666%, 32.571411%)" stop-opacity="1"/>
<stop offset="0.34375" stop-color="rgb(98.207092%, 86.317444%, 32.70874%)" stop-opacity="1"/>
<stop offset="0.347656" stop-color="rgb(98.200989%, 86.540222%, 32.844543%)" stop-opacity="1"/>
<stop offset="0.351562" stop-color="rgb(98.196411%, 86.763%, 32.981873%)" stop-opacity="1"/>
<stop offset="0.355469" stop-color="rgb(98.191833%, 86.985779%, 33.119202%)" stop-opacity="1"/>
<stop offset="0.359375" stop-color="rgb(98.187256%, 87.208557%, 33.256531%)" stop-opacity="1"/>
<stop offset="0.363281" stop-color="rgb(98.181152%, 87.431335%, 33.392334%)" stop-opacity="1"/>
<stop offset="0.367188" stop-color="rgb(98.176575%, 87.654114%, 33.529663%)" stop-opacity="1"/>
<stop offset="0.371094" stop-color="rgb(98.170471%, 87.876892%, 33.665466%)" stop-opacity="1"/>
<stop offset="0.375" stop-color="rgb(98.165894%, 88.09967%, 33.802795%)" stop-opacity="1"/>
<stop offset="0.378906" stop-color="rgb(98.161316%, 88.322449%, 33.938599%)" stop-opacity="1"/>
<stop offset="0.382813" stop-color="rgb(98.156738%, 88.545227%, 34.075928%)" stop-opacity="1"/>
<stop offset="0.386719" stop-color="rgb(98.150635%, 88.768005%, 34.211731%)" stop-opacity="1"/>
<stop offset="0.390625" stop-color="rgb(98.146057%, 88.990784%, 34.34906%)" stop-opacity="1"/>
<stop offset="0.394531" stop-color="rgb(98.139954%, 89.213562%, 34.484863%)" stop-opacity="1"/>
<stop offset="0.398438" stop-color="rgb(98.135376%, 89.43634%, 34.622192%)" stop-opacity="1"/>
<stop offset="0.402344" stop-color="rgb(98.130798%, 89.659119%, 34.757996%)" stop-opacity="1"/>
<stop offset="0.40625" stop-color="rgb(98.126221%, 89.881897%, 34.895325%)" stop-opacity="1"/>
<stop offset="0.410156" stop-color="rgb(98.120117%, 90.104675%, 35.032654%)" stop-opacity="1"/>
<stop offset="0.414062" stop-color="rgb(98.11554%, 90.327454%, 35.169983%)" stop-opacity="1"/>
<stop offset="0.417969" stop-color="rgb(98.109436%, 90.550232%, 35.305786%)" stop-opacity="1"/>
<stop offset="0.421875" stop-color="rgb(98.104858%, 90.77301%, 35.443115%)" stop-opacity="1"/>
<stop offset="0.425781" stop-color="rgb(98.100281%, 90.995789%, 35.578918%)" stop-opacity="1"/>
<stop offset="0.429688" stop-color="rgb(98.095703%, 91.218567%, 35.716248%)" stop-opacity="1"/>
<stop offset="0.433594" stop-color="rgb(98.0896%, 91.441345%, 35.852051%)" stop-opacity="1"/>
<stop offset="0.4375" stop-color="rgb(98.085022%, 91.664124%, 35.98938%)" stop-opacity="1"/>
<stop offset="0.441406" stop-color="rgb(98.080444%, 91.886902%, 36.125183%)" stop-opacity="1"/>
<stop offset="0.445313" stop-color="rgb(98.075867%, 92.10968%, 36.262512%)" stop-opacity="1"/>
<stop offset="0.449219" stop-color="rgb(98.069763%, 92.332458%, 36.398315%)" stop-opacity="1"/>
<stop offset="0.453125" stop-color="rgb(98.065186%, 92.555237%, 36.535645%)" stop-opacity="1"/>
<stop offset="0.457031" stop-color="rgb(98.059082%, 92.778015%, 36.672974%)" stop-opacity="1"/>
<stop offset="0.460938" stop-color="rgb(98.054504%, 93.000793%, 36.810303%)" stop-opacity="1"/>
<stop offset="0.464844" stop-color="rgb(98.049927%, 93.223572%, 36.946106%)" stop-opacity="1"/>
<stop offset="0.46875" stop-color="rgb(98.045349%, 93.44635%, 37.083435%)" stop-opacity="1"/>
<stop offset="0.476562" stop-color="rgb(97.85614%, 93.522644%, 37.207031%)" stop-opacity="1"/>
<stop offset="0.480469" stop-color="rgb(97.171021%, 93.431091%, 37.434387%)" stop-opacity="1"/>
<stop offset="0.484375" stop-color="rgb(96.67511%, 93.263245%, 37.538147%)" stop-opacity="1"/>
<stop offset="0.488281" stop-color="rgb(96.179199%, 93.093872%, 37.641907%)" stop-opacity="1"/>
<stop offset="0.492188" stop-color="rgb(95.683289%, 92.926025%, 37.745667%)" stop-opacity="1"/>
<stop offset="0.496094" stop-color="rgb(95.187378%, 92.758179%, 37.849426%)" stop-opacity="1"/>
<stop offset="0.5" stop-color="rgb(94.691467%, 92.590332%, 37.953186%)" stop-opacity="1"/>
<stop offset="0.503906" stop-color="rgb(94.195557%, 92.420959%, 38.05542%)" stop-opacity="1"/>
<stop offset="0.507813" stop-color="rgb(93.699646%, 92.253113%, 38.15918%)" stop-opacity="1"/>
<stop offset="0.511719" stop-color="rgb(93.203735%, 92.085266%, 38.262939%)" stop-opacity="1"/>
<stop offset="0.515625" stop-color="rgb(92.707825%, 91.917419%, 38.366699%)" stop-opacity="1"/>
<stop offset="0.519531" stop-color="rgb(92.211914%, 91.748047%, 38.470459%)" stop-opacity="1"/>
<stop offset="0.523438" stop-color="rgb(91.716003%, 91.5802%, 38.574219%)" stop-opacity="1"/>
<stop offset="0.527344" stop-color="rgb(91.220093%, 91.412354%, 38.676453%)" stop-opacity="1"/>
<stop offset="0.53125" stop-color="rgb(90.724182%, 91.244507%, 38.780212%)" stop-opacity="1"/>
<stop offset="0.535156" stop-color="rgb(90.228271%, 91.075134%, 38.883972%)" stop-opacity="1"/>
<stop offset="0.539062" stop-color="rgb(89.732361%, 90.907288%, 38.987732%)" stop-opacity="1"/>
<stop offset="0.542969" stop-color="rgb(89.23645%, 90.739441%, 39.091492%)" stop-opacity="1"/>
<stop offset="0.546875" stop-color="rgb(88.74054%, 90.571594%, 39.195251%)" stop-opacity="1"/>
<stop offset="0.550781" stop-color="rgb(88.244629%, 90.403748%, 39.297485%)" stop-opacity="1"/>
<stop offset="0.554688" stop-color="rgb(87.748718%, 90.235901%, 39.401245%)" stop-opacity="1"/>
<stop offset="0.558594" stop-color="rgb(87.252808%, 90.066528%, 39.505005%)" stop-opacity="1"/>
<stop offset="0.5625" stop-color="rgb(86.756897%, 89.898682%, 39.608765%)" stop-opacity="1"/>
<stop offset="0.566406" stop-color="rgb(86.260986%, 89.730835%, 39.712524%)" stop-opacity="1"/>
<stop offset="0.570313" stop-color="rgb(85.765076%, 89.562988%, 39.816284%)" stop-opacity="1"/>
<stop offset="0.574219" stop-color="rgb(85.269165%, 89.393616%, 39.918518%)" stop-opacity="1"/>
<stop offset="0.578125" stop-color="rgb(84.773254%, 89.225769%, 40.022278%)" stop-opacity="1"/>
<stop offset="0.582031" stop-color="rgb(84.277344%, 89.057922%, 40.126038%)" stop-opacity="1"/>
<stop offset="0.585938" stop-color="rgb(83.781433%, 88.890076%, 40.229797%)" stop-opacity="1"/>
<stop offset="0.589844" stop-color="rgb(83.285522%, 88.720703%, 40.332031%)" stop-opacity="1"/>
<stop offset="0.59375" stop-color="rgb(82.789612%, 88.552856%, 40.435791%)" stop-opacity="1"/>
<stop offset="0.597656" stop-color="rgb(82.293701%, 88.38501%, 40.539551%)" stop-opacity="1"/>
<stop offset="0.601562" stop-color="rgb(81.797791%, 88.217163%, 40.643311%)" stop-opacity="1"/>
<stop offset="0.605469" stop-color="rgb(81.30188%, 88.047791%, 40.74707%)" stop-opacity="1"/>
<stop offset="0.609375" stop-color="rgb(80.805969%, 87.879944%, 40.85083%)" stop-opacity="1"/>
<stop offset="0.613281" stop-color="rgb(80.310059%, 87.712097%, 40.953064%)" stop-opacity="1"/>
<stop offset="0.617188" stop-color="rgb(79.814148%, 87.54425%, 41.056824%)" stop-opacity="1"/>
<stop offset="0.621094" stop-color="rgb(79.318237%, 87.376404%, 41.160583%)" stop-opacity="1"/>
<stop offset="0.625" stop-color="rgb(78.822327%, 87.208557%, 41.264343%)" stop-opacity="1"/>
<stop offset="0.628906" stop-color="rgb(78.326416%, 87.039185%, 41.368103%)" stop-opacity="1"/>
<stop offset="0.632813" stop-color="rgb(77.830505%, 86.871338%, 41.471863%)" stop-opacity="1"/>
<stop offset="0.636719" stop-color="rgb(77.334595%, 86.703491%, 41.574097%)" stop-opacity="1"/>
<stop offset="0.640625" stop-color="rgb(76.838684%, 86.535645%, 41.677856%)" stop-opacity="1"/>
<stop offset="0.644531" stop-color="rgb(76.342773%, 86.366272%, 41.781616%)" stop-opacity="1"/>
<stop offset="0.648438" stop-color="rgb(75.846863%, 86.198425%, 41.885376%)" stop-opacity="1"/>
<stop offset="0.652344" stop-color="rgb(75.350952%, 86.030579%, 41.989136%)" stop-opacity="1"/>
<stop offset="0.65625" stop-color="rgb(74.855042%, 85.862732%, 42.092896%)" stop-opacity="1"/>
<stop offset="0.660156" stop-color="rgb(74.359131%, 85.693359%, 42.195129%)" stop-opacity="1"/>
<stop offset="0.664062" stop-color="rgb(73.86322%, 85.525513%, 42.298889%)" stop-opacity="1"/>
<stop offset="0.667969" stop-color="rgb(73.36731%, 85.357666%, 42.402649%)" stop-opacity="1"/>
<stop offset="0.671875" stop-color="rgb(72.871399%, 85.189819%, 42.506409%)" stop-opacity="1"/>
<stop offset="0.675781" stop-color="rgb(72.375488%, 85.020447%, 42.610168%)" stop-opacity="1"/>
<stop offset="0.679688" stop-color="rgb(71.879578%, 84.8526%, 42.713928%)" stop-opacity="1"/>
<stop offset="0.683594" stop-color="rgb(71.383667%, 84.684753%, 42.816162%)" stop-opacity="1"/>
<stop offset="0.6875" stop-color="rgb(70.887756%, 84.516907%, 42.919922%)" stop-opacity="1"/>
<stop offset="0.691406" stop-color="rgb(70.391846%, 84.34906%, 43.023682%)" stop-opacity="1"/>
<stop offset="0.695313" stop-color="rgb(69.895935%, 84.181213%, 43.127441%)" stop-opacity="1"/>
<stop offset="0.699219" stop-color="rgb(69.400024%, 84.011841%, 43.231201%)" stop-opacity="1"/>
<stop offset="0.703125" stop-color="rgb(68.904114%, 83.843994%, 43.334961%)" stop-opacity="1"/>
<stop offset="0.707031" stop-color="rgb(68.408203%, 83.676147%, 43.437195%)" stop-opacity="1"/>
<stop offset="0.710938" stop-color="rgb(67.912292%, 83.508301%, 43.540955%)" stop-opacity="1"/>
<stop offset="0.714844" stop-color="rgb(67.414856%, 83.338928%, 43.644714%)" stop-opacity="1"/>
<stop offset="0.71875" stop-color="rgb(66.918945%, 83.171082%, 43.748474%)" stop-opacity="1"/>
<stop offset="0.722656" stop-color="rgb(66.423035%, 83.003235%, 43.852234%)" stop-opacity="1"/>
<stop offset="0.726562" stop-color="rgb(65.927124%, 82.835388%, 43.955994%)" stop-opacity="1"/>
<stop offset="0.730469" stop-color="rgb(65.431213%, 82.666016%, 44.058228%)" stop-opacity="1"/>
<stop offset="0.734375" stop-color="rgb(64.935303%, 82.498169%, 44.161987%)" stop-opacity="1"/>
<stop offset="0.738281" stop-color="rgb(64.439392%, 82.330322%, 44.265747%)" stop-opacity="1"/>
<stop offset="0.742188" stop-color="rgb(63.943481%, 82.162476%, 44.369507%)" stop-opacity="1"/>
<stop offset="0.746094" stop-color="rgb(63.447571%, 81.993103%, 44.473267%)" stop-opacity="1"/>
<stop offset="0.75" stop-color="rgb(62.95166%, 81.825256%, 44.577026%)" stop-opacity="1"/>
<stop offset="0.753906" stop-color="rgb(62.45575%, 81.65741%, 44.67926%)" stop-opacity="1"/>
<stop offset="0.757813" stop-color="rgb(61.959839%, 81.489563%, 44.78302%)" stop-opacity="1"/>
<stop offset="0.761719" stop-color="rgb(61.463928%, 81.321716%, 44.88678%)" stop-opacity="1"/>
<stop offset="0.765625" stop-color="rgb(60.968018%, 81.15387%, 44.99054%)" stop-opacity="1"/>
<stop offset="0.769531" stop-color="rgb(60.472107%, 80.984497%, 45.094299%)" stop-opacity="1"/>
<stop offset="0.773438" stop-color="rgb(59.976196%, 80.81665%, 45.198059%)" stop-opacity="1"/>
<stop offset="0.777344" stop-color="rgb(59.480286%, 80.648804%, 45.300293%)" stop-opacity="1"/>
<stop offset="0.78125" stop-color="rgb(58.984375%, 80.480957%, 45.404053%)" stop-opacity="1"/>
<stop offset="0.785156" stop-color="rgb(58.488464%, 80.311584%, 45.507812%)" stop-opacity="1"/>
<stop offset="0.789062" stop-color="rgb(57.992554%, 80.143738%, 45.611572%)" stop-opacity="1"/>
<stop offset="0.792969" stop-color="rgb(57.496643%, 79.975891%, 45.715332%)" stop-opacity="1"/>
<stop offset="0.796875" stop-color="rgb(57.000732%, 79.808044%, 45.819092%)" stop-opacity="1"/>
<stop offset="0.800781" stop-color="rgb(56.504822%, 79.638672%, 45.921326%)" stop-opacity="1"/>
<stop offset="0.804688" stop-color="rgb(56.008911%, 79.470825%, 46.025085%)" stop-opacity="1"/>
<stop offset="0.808594" stop-color="rgb(55.513%, 79.302979%, 46.128845%)" stop-opacity="1"/>
<stop offset="0.8125" stop-color="rgb(55.01709%, 79.135132%, 46.232605%)" stop-opacity="1"/>
<stop offset="0.816406" stop-color="rgb(54.521179%, 78.965759%, 46.336365%)" stop-opacity="1"/>
<stop offset="0.820313" stop-color="rgb(54.025269%, 78.797913%, 46.440125%)" stop-opacity="1"/>
<stop offset="0.824219" stop-color="rgb(53.529358%, 78.630066%, 46.542358%)" stop-opacity="1"/>
<stop offset="0.828125" stop-color="rgb(53.033447%, 78.462219%, 46.646118%)" stop-opacity="1"/>
<stop offset="0.84375" stop-color="rgb(52.986145%, 78.445435%, 46.655273%)" stop-opacity="1"/>
<stop offset="0.875" stop-color="rgb(52.940369%, 78.430176%, 46.665955%)" stop-opacity="1"/>
<stop offset="1" stop-color="rgb(52.940369%, 78.430176%, 46.665955%)" stop-opacity="1"/>
</linearGradient>
</defs>
<path fill-rule="evenodd" fill="rgb(89.84375%, 89.84375%, 89.84375%)" fill-opacity="1" d="M 511.644531 258.320312 C 372.316406 258.320312 258.332031 372.308594 258.332031 511.648438 L 258.332031 3361.359375 C 258.332031 3500.691406 372.316406 3614.671875 511.644531 3614.671875 L 3361.359375 3614.671875 C 3500.691406 3614.671875 3614.671875 3500.691406 3614.671875 3361.359375 L 3614.671875 511.648438 C 3614.671875 372.308594 3500.691406 258.320312 3361.359375 258.320312 Z M 511.644531 68.351562 L 3361.359375 68.351562 C 3605.160156 68.351562 3804.628906 267.828125 3804.628906 511.648438 L 3804.628906 3361.359375 C 3804.628906 3605.160156 3605.160156 3804.628906 3361.359375 3804.628906 L 511.644531 3804.628906 C 267.832031 3804.628906 68.347656 3605.160156 68.347656 3361.359375 L 68.347656 511.648438 C 68.347656 267.828125 267.832031 68.351562 511.644531 68.351562 "/>
<g clip-path="url(#clip-0)">
<g clip-path="url(#clip-1)">
<path fill-rule="nonzero" fill="url(#linear-pattern-0)" d="M 1936.496094 -1936.496094 L -1936.496094 1936.496094 L 1936.496094 5809.484375 L 5809.484375 1936.496094 Z M 1936.496094 -1936.496094 "/>
</g>
</g>
<path fill-rule="evenodd" fill="rgb(73.242188%, 45.092773%, 25.87738%)" fill-opacity="1" d="M 1138.96875 1790.789062 L 983.914062 1790.789062 C 974.984375 1790.789062 966.640625 1786.449219 961.542969 1779.148438 C 956.417969 1771.851562 955.191406 1762.519531 958.234375 1754.140625 L 1174.449219 1158.429688 C 1218.890625 1035.960938 1286.878906 976.441406 1382.308594 976.441406 L 1624.519531 976.441406 C 1639.621094 976.441406 1651.859375 988.679688 1651.859375 1003.769531 L 1651.859375 1149.71875 C 1651.859375 1134.628906 1639.621094 1122.390625 1624.519531 1122.390625 L 1382.308594 1122.390625 C 1347.398438 1122.390625 1328.078125 1162.691406 1312.398438 1206.210938 L 1113.300781 1754.109375 C 1110.25 1762.5 1111.5 1771.820312 1116.601562 1779.128906 C 1121.699219 1786.449219 1130.050781 1790.789062 1138.96875 1790.789062 Z M 2889.011719 1790.789062 L 2735.679688 1790.789062 C 2744.609375 1790.789062 2753 1786.421875 2758.078125 1779.089844 C 2763.191406 1771.769531 2764.398438 1762.390625 2761.320312 1754.03125 L 2561.269531 1209.730469 L 2560.421875 1207.390625 C 2544.46875 1163.230469 2524.78125 1122.390625 2489 1122.390625 L 2248.371094 1122.390625 C 2233.289062 1122.390625 2221.019531 1134.628906 2221.019531 1149.71875 L 2221.019531 1003.769531 C 2221.019531 988.679688 2233.289062 976.441406 2248.371094 976.441406 L 2489 976.441406 C 2585.039062 976.441406 2653.539062 1036.429688 2698.449219 1159.871094 L 2914.679688 1754.128906 C 2917.710938 1762.5 2916.5 1771.859375 2911.378906 1779.148438 C 2906.269531 1786.441406 2897.921875 1790.789062 2889.011719 1790.789062 "/>
<path fill-rule="evenodd" fill="rgb(100%, 73.631287%, 52.146912%)" fill-opacity="1" d="M 2655.730469 2958.53125 L 1220.21875 2958.53125 C 1093.621094 2958.53125 991.226562 2892.640625 982.003906 2805.28125 L 898.441406 2014.070312 C 897.625 2006.359375 900.128906 1998.671875 905.3125 1992.941406 C 910.492188 1987.148438 917.882812 1983.851562 925.621094 1983.851562 L 1463.808594 1983.851562 C 1471.070312 1983.851562 1478.011719 1986.730469 1483.128906 1991.859375 L 1936.46875 2445.25 L 2389.828125 1991.859375 C 2394.980469 1986.75 2401.921875 1983.851562 2409.171875 1983.851562 L 2947.351562 1983.851562 C 2955.101562 1983.851562 2962.5 1987.148438 2967.671875 1992.898438 C 2972.839844 1998.671875 2975.328125 2006.359375 2974.511719 2014.070312 L 2890.929688 2807.101562 C 2881.851562 2893.421875 2780.730469 2958.53125 2655.730469 2958.53125 "/>
<path fill-rule="evenodd" fill="rgb(84.375%, 53.709412%, 33.325195%)" fill-opacity="1" d="M 1316.800781 2190.480469 L 1191.289062 2190.480469 C 1176.199219 2190.480469 1163.960938 2178.230469 1163.960938 2163.160156 C 1163.960938 2148.078125 1176.199219 2135.828125 1191.289062 2135.828125 L 1316.800781 2135.828125 C 1331.878906 2135.828125 1344.128906 2148.078125 1344.128906 2163.160156 C 1344.128906 2178.230469 1331.878906 2190.480469 1316.800781 2190.480469 "/>
<path fill-rule="evenodd" fill="rgb(84.375%, 53.709412%, 33.325195%)" fill-opacity="1" d="M 1589.78125 2190.480469 L 1464.269531 2190.480469 C 1449.179688 2190.480469 1436.929688 2178.230469 1436.929688 2163.160156 C 1436.929688 2148.078125 1449.179688 2135.828125 1464.269531 2135.828125 L 1589.78125 2135.828125 C 1604.859375 2135.828125 1617.109375 2148.078125 1617.109375 2163.160156 C 1617.109375 2178.230469 1604.859375 2190.480469 1589.78125 2190.480469 "/>
<path fill-rule="evenodd" fill="rgb(84.375%, 53.709412%, 33.325195%)" fill-opacity="1" d="M 2408.679688 2190.480469 L 2283.171875 2190.480469 C 2268.089844 2190.480469 2255.839844 2178.230469 2255.839844 2163.160156 C 2255.839844 2148.078125 2268.089844 2135.828125 2283.171875 2135.828125 L 2408.679688 2135.828125 C 2423.78125 2135.828125 2436.011719 2148.078125 2436.011719 2163.160156 C 2436.011719 2178.230469 2423.78125 2190.480469 2408.679688 2190.480469 "/>
<path fill-rule="evenodd" fill="rgb(84.375%, 53.709412%, 33.325195%)" fill-opacity="1" d="M 2681.648438 2190.480469 L 2556.148438 2190.480469 C 2541.058594 2190.480469 2528.828125 2178.230469 2528.828125 2163.160156 C 2528.828125 2148.078125 2541.078125 2135.828125 2556.148438 2135.828125 L 2681.648438 2135.828125 C 2696.738281 2135.828125 2709 2148.078125 2709 2163.160156 C 2709 2178.230469 2696.738281 2190.480469 2681.648438 2190.480469 "/>
<path fill-rule="evenodd" fill="rgb(84.375%, 53.709412%, 33.325195%)" fill-opacity="1" d="M 1453.28125 2343.640625 L 1327.769531 2343.640625 C 1312.679688 2343.640625 1300.429688 2331.390625 1300.429688 2316.320312 C 1300.429688 2301.238281 1312.679688 2288.988281 1327.769531 2288.988281 L 1453.28125 2288.988281 C 1468.371094 2288.988281 1480.609375 2301.238281 1480.609375 2316.320312 C 1480.609375 2331.390625 1468.390625 2343.640625 1453.28125 2343.640625 "/>
<path fill-rule="evenodd" fill="rgb(84.375%, 53.709412%, 33.325195%)" fill-opacity="1" d="M 1726.25 2343.640625 L 1600.75 2343.640625 C 1585.648438 2343.640625 1573.410156 2331.390625 1573.410156 2316.320312 C 1573.410156 2301.238281 1585.648438 2288.988281 1600.75 2288.988281 L 1726.25 2288.988281 C 1741.339844 2288.988281 1753.578125 2301.238281 1753.578125 2316.320312 C 1753.578125 2331.390625 1741.351562 2343.640625 1726.25 2343.640625 "/>
<path fill-rule="evenodd" fill="rgb(84.375%, 53.709412%, 33.325195%)" fill-opacity="1" d="M 2272.210938 2343.640625 L 2146.691406 2343.640625 C 2131.621094 2343.640625 2119.359375 2331.390625 2119.359375 2316.320312 C 2119.359375 2301.238281 2131.621094 2288.988281 2146.691406 2288.988281 L 2272.210938 2288.988281 C 2287.28125 2288.988281 2299.539062 2301.238281 2299.539062 2316.320312 C 2299.539062 2331.390625 2287.28125 2343.640625 2272.210938 2343.640625 "/>
<path fill-rule="evenodd" fill="rgb(84.375%, 53.709412%, 33.325195%)" fill-opacity="1" d="M 2545.140625 2343.640625 L 2419.660156 2343.640625 C 2404.570312 2343.640625 2392.328125 2331.390625 2392.328125 2316.320312 C 2392.328125 2301.238281 2404.589844 2288.988281 2419.660156 2288.988281 L 2545.140625 2288.988281 C 2560.230469 2288.988281 2572.46875 2301.238281 2572.46875 2316.320312 C 2572.46875 2331.390625 2560.230469 2343.640625 2545.140625 2343.640625 "/>
<path fill-rule="evenodd" fill="rgb(84.375%, 53.709412%, 33.325195%)" fill-opacity="1" d="M 1316.800781 2496.820312 L 1191.289062 2496.820312 C 1176.199219 2496.820312 1163.960938 2484.570312 1163.960938 2469.5 C 1163.960938 2454.421875 1176.199219 2442.171875 1191.289062 2442.171875 L 1316.800781 2442.171875 C 1331.878906 2442.171875 1344.128906 2454.421875 1344.128906 2469.5 C 1344.128906 2484.570312 1331.878906 2496.820312 1316.800781 2496.820312 "/>
<path fill-rule="evenodd" fill="rgb(84.375%, 53.709412%, 33.325195%)" fill-opacity="1" d="M 1589.78125 2496.820312 L 1464.269531 2496.820312 C 1449.179688 2496.820312 1436.929688 2484.570312 1436.929688 2469.5 C 1436.929688 2454.421875 1449.179688 2442.171875 1464.269531 2442.171875 L 1589.78125 2442.171875 C 1604.859375 2442.171875 1617.109375 2454.421875 1617.109375 2469.5 C 1617.109375 2484.570312 1604.859375 2496.820312 1589.78125 2496.820312 "/>
<path fill-rule="evenodd" fill="rgb(84.375%, 53.709412%, 33.325195%)" fill-opacity="1" d="M 1862.730469 2496.820312 L 1737.238281 2496.820312 C 1722.160156 2496.820312 1709.898438 2484.570312 1709.898438 2469.5 C 1709.898438 2454.421875 1722.160156 2442.171875 1737.238281 2442.171875 L 1862.730469 2442.171875 C 1877.820312 2442.171875 1890.070312 2454.421875 1890.070312 2469.5 C 1890.070312 2484.570312 1877.839844 2496.820312 1862.730469 2496.820312 "/>
<path fill-rule="evenodd" fill="rgb(84.375%, 53.709412%, 33.325195%)" fill-opacity="1" d="M 2135.699219 2496.820312 L 2010.199219 2496.820312 C 1995.109375 2496.820312 1982.871094 2484.570312 1982.871094 2469.5 C 1982.871094 2454.421875 1995.128906 2442.171875 2010.199219 2442.171875 L 2135.699219 2442.171875 C 2150.789062 2442.171875 2163.039062 2454.421875 2163.039062 2469.5 C 2163.039062 2484.570312 2150.789062 2496.820312 2135.699219 2496.820312 "/>
<path fill-rule="evenodd" fill="rgb(84.375%, 53.709412%, 33.325195%)" fill-opacity="1" d="M 2408.679688 2496.820312 L 2283.171875 2496.820312 C 2268.089844 2496.820312 2255.839844 2484.570312 2255.839844 2469.5 C 2255.839844 2454.421875 2268.089844 2442.171875 2283.171875 2442.171875 L 2408.679688 2442.171875 C 2423.78125 2442.171875 2436.011719 2454.421875 2436.011719 2469.5 C 2436.011719 2484.570312 2423.78125 2496.820312 2408.679688 2496.820312 "/>
<path fill-rule="evenodd" fill="rgb(84.375%, 53.709412%, 33.325195%)" fill-opacity="1" d="M 2681.648438 2496.820312 L 2556.148438 2496.820312 C 2541.058594 2496.820312 2528.828125 2484.570312 2528.828125 2469.5 C 2528.828125 2454.421875 2541.078125 2442.171875 2556.148438 2442.171875 L 2681.648438 2442.171875 C 2696.738281 2442.171875 2709 2454.421875 2709 2469.5 C 2709 2484.570312 2696.738281 2496.820312 2681.648438 2496.820312 "/>
<path fill-rule="evenodd" fill="rgb(84.375%, 53.709412%, 33.325195%)" fill-opacity="1" d="M 1453.28125 2649.96875 L 1327.769531 2649.96875 C 1312.679688 2649.96875 1300.429688 2637.710938 1300.429688 2622.640625 C 1300.429688 2607.570312 1312.679688 2595.308594 1327.769531 2595.308594 L 1453.28125 2595.308594 C 1468.371094 2595.308594 1480.609375 2607.570312 1480.609375 2622.640625 C 1480.609375 2637.710938 1468.390625 2649.96875 1453.28125 2649.96875 "/>
<path fill-rule="evenodd" fill="rgb(84.375%, 53.709412%, 33.325195%)" fill-opacity="1" d="M 1726.25 2649.96875 L 1600.75 2649.96875 C 1585.648438 2649.96875 1573.410156 2637.710938 1573.410156 2622.640625 C 1573.410156 2607.570312 1585.648438 2595.308594 1600.75 2595.308594 L 1726.25 2595.308594 C 1741.339844 2595.308594 1753.578125 2607.570312 1753.578125 2622.640625 C 1753.578125 2637.710938 1741.351562 2649.96875 1726.25 2649.96875 "/>
<path fill-rule="evenodd" fill="rgb(84.375%, 53.709412%, 33.325195%)" fill-opacity="1" d="M 1999.21875 2649.96875 L 1873.71875 2649.96875 C 1858.628906 2649.96875 1846.390625 2637.710938 1846.390625 2622.640625 C 1846.390625 2607.570312 1858.628906 2595.308594 1873.71875 2595.308594 L 1999.21875 2595.308594 C 2014.308594 2595.308594 2026.570312 2607.570312 2026.570312 2622.640625 C 2026.570312 2637.710938 2014.308594 2649.96875 1999.21875 2649.96875 "/>
<path fill-rule="evenodd" fill="rgb(84.375%, 53.709412%, 33.325195%)" fill-opacity="1" d="M 2272.210938 2649.96875 L 2146.691406 2649.96875 C 2131.621094 2649.96875 2119.359375 2637.710938 2119.359375 2622.640625 C 2119.359375 2607.570312 2131.621094 2595.308594 2146.691406 2595.308594 L 2272.210938 2595.308594 C 2287.28125 2595.308594 2299.539062 2607.570312 2299.539062 2622.640625 C 2299.539062 2637.710938 2287.28125 2649.96875 2272.210938 2649.96875 "/>
<path fill-rule="evenodd" fill="rgb(84.375%, 53.709412%, 33.325195%)" fill-opacity="1" d="M 2545.140625 2649.96875 L 2419.660156 2649.96875 C 2404.570312 2649.96875 2392.328125 2637.710938 2392.328125 2622.640625 C 2392.328125 2607.570312 2404.589844 2595.308594 2419.660156 2595.308594 L 2545.140625 2595.308594 C 2560.230469 2595.308594 2572.46875 2607.570312 2572.46875 2622.640625 C 2572.46875 2637.710938 2560.230469 2649.96875 2545.140625 2649.96875 "/>
<path fill-rule="evenodd" fill="rgb(84.375%, 53.709412%, 33.325195%)" fill-opacity="1" d="M 1316.800781 2803.128906 L 1191.289062 2803.128906 C 1176.199219 2803.128906 1163.960938 2790.871094 1163.960938 2775.800781 C 1163.960938 2760.730469 1176.199219 2748.46875 1191.289062 2748.46875 L 1316.800781 2748.46875 C 1331.878906 2748.46875 1344.128906 2760.730469 1344.128906 2775.800781 C 1344.128906 2790.871094 1331.878906 2803.128906 1316.800781 2803.128906 "/>
<path fill-rule="evenodd" fill="rgb(84.375%, 53.709412%, 33.325195%)" fill-opacity="1" d="M 1589.78125 2803.128906 L 1464.269531 2803.128906 C 1449.179688 2803.128906 1436.929688 2790.871094 1436.929688 2775.800781 C 1436.929688 2760.730469 1449.179688 2748.46875 1464.269531 2748.46875 L 1589.78125 2748.46875 C 1604.859375 2748.46875 1617.109375 2760.730469 1617.109375 2775.800781 C 1617.109375 2790.871094 1604.859375 2803.128906 1589.78125 2803.128906 "/>
<path fill-rule="evenodd" fill="rgb(84.375%, 53.709412%, 33.325195%)" fill-opacity="1" d="M 1862.730469 2803.128906 L 1737.238281 2803.128906 C 1722.160156 2803.128906 1709.898438 2790.871094 1709.898438 2775.800781 C 1709.898438 2760.730469 1722.160156 2748.46875 1737.238281 2748.46875 L 1862.730469 2748.46875 C 1877.820312 2748.46875 1890.070312 2760.730469 1890.070312 2775.800781 C 1890.070312 2790.871094 1877.839844 2803.128906 1862.730469 2803.128906 "/>
<path fill-rule="evenodd" fill="rgb(84.375%, 53.709412%, 33.325195%)" fill-opacity="1" d="M 2135.699219 2803.128906 L 2010.199219 2803.128906 C 1995.109375 2803.128906 1982.871094 2790.871094 1982.871094 2775.800781 C 1982.871094 2760.730469 1995.128906 2748.46875 2010.199219 2748.46875 L 2135.699219 2748.46875 C 2150.789062 2748.46875 2163.039062 2760.730469 2163.039062 2775.800781 C 2163.039062 2790.871094 2150.789062 2803.128906 2135.699219 2803.128906 "/>
<path fill-rule="evenodd" fill="rgb(84.375%, 53.709412%, 33.325195%)" fill-opacity="1" d="M 2408.679688 2803.128906 L 2283.171875 2803.128906 C 2268.089844 2803.128906 2255.839844 2790.871094 2255.839844 2775.800781 C 2255.839844 2760.730469 2268.089844 2748.46875 2283.171875 2748.46875 L 2408.679688 2748.46875 C 2423.78125 2748.46875 2436.011719 2760.730469 2436.011719 2775.800781 C 2436.011719 2790.871094 2423.78125 2803.128906 2408.679688 2803.128906 "/>
<path fill-rule="evenodd" fill="rgb(84.375%, 53.709412%, 33.325195%)" fill-opacity="1" d="M 2681.648438 2803.128906 L 2556.148438 2803.128906 C 2541.058594 2803.128906 2528.828125 2790.871094 2528.828125 2775.800781 C 2528.828125 2760.730469 2541.078125 2748.46875 2556.148438 2748.46875 L 2681.648438 2748.46875 C 2696.738281 2748.46875 2709 2760.730469 2709 2775.800781 C 2709 2790.871094 2696.738281 2803.128906 2681.648438 2803.128906 "/>
<path fill-rule="evenodd" fill="rgb(84.375%, 53.709412%, 33.325195%)" fill-opacity="1" d="M 1463.789062 2038.53125 L 859.035156 2038.53125 C 810.070312 2038.53125 770.253906 1998.691406 770.253906 1949.738281 L 770.253906 1824.921875 C 770.253906 1775.949219 810.070312 1736.128906 859.035156 1736.128906 L 1216.058594 1736.128906 C 1223.320312 1736.128906 1230.269531 1739 1235.378906 1744.140625 L 1483.121094 1991.859375 C 1490.929688 1999.691406 1493.269531 2011.441406 1489.050781 2021.660156 C 1484.808594 2031.851562 1474.839844 2038.53125 1463.789062 2038.53125 "/>
<path fill-rule="evenodd" fill="rgb(84.375%, 53.709412%, 33.325195%)" fill-opacity="1" d="M 3013.910156 2038.53125 L 2409.171875 2038.53125 C 2398.121094 2038.53125 2388.160156 2031.851562 2383.929688 2021.640625 C 2379.671875 2011.441406 2382.019531 1999.691406 2389.851562 1991.859375 L 2637.578125 1744.128906 C 2642.738281 1739 2649.671875 1736.121094 2656.921875 1736.121094 L 3013.949219 1736.128906 C 3062.910156 1736.128906 3102.761719 1775.949219 3102.761719 1824.921875 L 3102.761719 1949.738281 C 3102.679688 1998.691406 3062.859375 2038.53125 3013.910156 2038.53125 "/>
<path fill-rule="evenodd" fill="rgb(100%, 73.631287%, 52.146912%)" fill-opacity="1" d="M 2215.71875 1239.039062 L 1657.238281 1239.039062 C 1624.128906 1239.039062 1597.210938 1212.121094 1597.210938 1179.03125 L 1597.210938 974.460938 C 1597.210938 941.371094 1624.128906 914.460938 1657.238281 914.460938 L 2215.71875 914.460938 C 2248.789062 914.460938 2275.730469 941.371094 2275.730469 974.460938 L 2275.730469 1179.019531 C 2275.730469 1212.121094 2248.789062 1239.039062 2215.71875 1239.039062 "/>
<path fill-rule="evenodd" fill="rgb(99.21875%, 35.301208%, 39.208984%)" fill-opacity="1" d="M 1936.46875 2304.769531 C 1943.441406 2304.769531 1950.410156 2302.109375 1955.761719 2296.808594 L 2518.289062 1736.128906 L 1354.628906 1736.128906 L 1917.191406 2296.789062 C 1922.519531 2302.101562 1929.480469 2304.769531 1936.46875 2304.769531 Z M 1936.46875 2511.210938 C 1929.21875 2511.210938 1922.269531 2508.339844 1917.148438 2503.199219 L 1150.449219 1736.128906 L 1150.441406 1736.121094 L 2723.371094 1736.121094 L 1955.761719 2503.199219 C 1950.679688 2508.339844 1943.699219 2511.210938 1936.46875 2511.210938 "/>
<path fill-rule="evenodd" fill="rgb(100%, 89.84375%, 89.84375%)" fill-opacity="1" d="M 1936.46875 2304.769531 C 1929.480469 2304.769531 1922.519531 2302.101562 1917.191406 2296.789062 L 1354.628906 1736.128906 L 2518.289062 1736.128906 L 1955.761719 2296.808594 C 1950.410156 2302.109375 1943.441406 2304.769531 1936.46875 2304.769531 "/>
<path fill-rule="evenodd" fill="rgb(73.242188%, 45.092773%, 25.87738%)" fill-opacity="1" d="M 2025.378906 1104.078125 L 1847.558594 1104.078125 C 1832.480469 1104.078125 1820.230469 1091.839844 1820.230469 1076.75 C 1820.230469 1061.671875 1832.480469 1049.421875 1847.558594 1049.421875 L 2025.378906 1049.421875 C 2040.46875 1049.421875 2052.710938 1061.671875 2052.710938 1076.75 C 2052.710938 1091.839844 2040.46875 1104.078125 2025.378906 1104.078125 "/>
</svg>
