<?xml version="1.0" encoding="UTF-8" standalone="no"?>
<!-- Created with Inkscape (http://www.inkscape.org/) -->

<svg
   width="48.789165mm"
   height="57.388123mm"
   viewBox="0 0 48.789165 57.388123"
   version="1.1"
   id="svg1"
   inkscape:version="1.4.2 (f4327f4, 2025-05-13)"
   sodipodi:docname="purple-top.svg"
   xmlns:inkscape="http://www.inkscape.org/namespaces/inkscape"
   xmlns:sodipodi="http://sodipodi.sourceforge.net/DTD/sodipodi-0.dtd"
   xmlns="http://www.w3.org/2000/svg"
   xmlns:svg="http://www.w3.org/2000/svg">
  <sodipodi:namedview
     id="namedview1"
     pagecolor="#ffffff"
     bordercolor="#000000"
     borderopacity="0.25"
     inkscape:showpageshadow="2"
     inkscape:pageopacity="0.0"
     inkscape:pagecheckerboard="0"
     inkscape:deskcolor="#d1d1d1"
     inkscape:document-units="mm"
     inkscape:zoom="0.69753788"
     inkscape:cx="51.6101"
     inkscape:cy="230.09503"
     inkscape:window-width="1920"
     inkscape:window-height="1001"
     inkscape:window-x="-9"
     inkscape:window-y="-9"
     inkscape:window-maximized="1"
     inkscape:current-layer="layer1" />
  <defs
     id="defs1" />
  <g
     inkscape:label="Layer 1"
     inkscape:groupmode="layer"
     id="layer1"
     transform="translate(-91.310124,-87.488146)">
    <g
       id="g53"
       transform="matrix(0.26458333,0,0,0.26458333,-28.757791,12.82273)">
				<g
   id="g39">
					<path
   class="st37"
   d="m 638.2,331.2 c 0,0 -10.7,-27.4 -18.8,-37.4 -8.1,-10 -33.6,-11.5 -33.6,-11.5 0,0 -19.9,18.6 -39.8,18.6 -20.2,0 -39.9,-18.7 -39.9,-18.7 0,0 -25.4,1.5 -33.5,11.5 -8.1,10 -18.8,37.4 -18.8,37.4 l 26.9,33.7 3,-3.5 c -0.3,7.2 1.3,17.9 10,28.4 8.4,10.1 -12.3,99.7 -12.3,99.7 0,0 22.4,9.7 63.9,9.7 0.2,0 0.5,0 0.7,0 0.2,0 0.5,0 0.7,0 41.5,0 63.9,-9.7 63.9,-9.7 0,0 -20.7,-89.5 -12.3,-99.7 8.7,-10.5 10.3,-21.2 10,-28.4 l 3,3.5 z"
   id="path32"
   style="fill:#8b65a8" />

					<g
   id="g38">
						<path
   d="M 520.2,342.4 V 394 h 51.6 v -51.6 z m 47.9,47.9 h -44.2 v -44.2 h 44.2 z"
   id="path33" />

						<g
   id="g37">
							<path
   class="st5"
   d="m 527,356.3 h 3.6 V 376 h 5.9 v 3.3 H 527 Z"
   id="path34"
   style="fill:#d92622" />

							<path
   class="st5"
   d="m 538.1,356.3 h 3.6 v 23 h -3.6 z"
   id="path35"
   style="fill:#d92622" />

							<path
   class="st5"
   d="m 547.9,366.5 h 4.7 v 3.3 h -4.7 v 9.5 h -3.6 v -23 h 9.5 v 3.3 h -5.9 z"
   id="path36"
   style="fill:#d92622" />

							<path
   class="st5"
   d="m 559.2,365.9 h 5 v 3.3 h -5 v 6.7 h 6.2 v 3.3 h -9.8 v -23 h 9.8 v 3.3 h -6.2 z"
   id="path37"
   style="fill:#d92622" />

						</g>

					</g>

				</g>

				<g
   id="g45">
					<g
   id="g44">
						<path
   d="M 520.2,342.4 V 394 h 51.6 v -51.6 z m 47.9,47.9 h -44.2 v -44.2 h 44.2 z"
   id="path39" />

						<g
   id="g43">
							<path
   class="st5"
   d="m 527,356.3 h 3.6 V 376 h 5.9 v 3.3 H 527 Z"
   id="path40"
   style="fill:#d92622" />

							<path
   class="st5"
   d="m 538.1,356.3 h 3.6 v 23 h -3.6 z"
   id="path41"
   style="fill:#d92622" />

							<path
   class="st5"
   d="m 547.9,366.5 h 4.7 v 3.3 h -4.7 v 9.5 h -3.6 v -23 h 9.5 v 3.3 h -5.9 z"
   id="path42"
   style="fill:#d92622" />

							<path
   class="st5"
   d="m 559.2,365.9 h 5 v 3.3 h -5 v 6.7 h 6.2 v 3.3 h -9.8 v -23 h 9.8 v 3.3 h -6.2 z"
   id="path43"
   style="fill:#d92622" />

						</g>

					</g>

				</g>

				<g
   id="g52">
					<path
   d="m 546,305.9 c 22.9,0 42.2,-19.1 46.4,-22.8 -3.9,-0.6 -6.7,-0.7 -6.7,-0.7 0,0 -19.9,18.6 -39.8,18.6 -20.2,0 -39.9,-18.7 -39.9,-18.7 0,0 -2.7,0.2 -6.7,0.7 4.4,3.8 22.3,22.9 46.7,22.9 z"
   id="path45" />

					<g
   id="g51">
						<path
   d="M 520.2,342.4 V 394 h 51.6 v -51.6 z m 47.9,47.9 h -44.2 v -44.2 h 44.2 z"
   id="path46" />

						<g
   id="g50">
							<path
   class="st8"
   d="m 527,356.3 h 3.6 V 376 h 5.9 v 3.3 H 527 Z"
   id="path47"
   style="fill:#ffffff" />

							<path
   class="st8"
   d="m 538.1,356.3 h 3.6 v 23 h -3.6 z"
   id="path48"
   style="fill:#ffffff" />

							<path
   class="st8"
   d="m 547.9,366.5 h 4.7 v 3.3 h -4.7 v 9.5 h -3.6 v -23 h 9.5 v 3.3 h -5.9 z"
   id="path49"
   style="fill:#ffffff" />

							<path
   class="st8"
   d="m 559.2,365.9 h 5 v 3.3 h -5 v 6.7 h 6.2 v 3.3 h -9.8 v -23 h 9.8 v 3.3 h -6.2 z"
   id="path50"
   style="fill:#ffffff" />

						</g>

					</g>

				</g>

			</g>
  </g>
</svg>
