<?xml version="1.0" encoding="UTF-8" standalone="no"?>
<!-- Created with Inkscape (http://www.inkscape.org/) -->

<svg
   width="39.740417mm"
   height="26.404169mm"
   viewBox="0 0 39.740417 26.404169"
   version="1.1"
   id="svg1"
   inkscape:version="1.4.2 (f4327f4, 2025-05-13)"
   sodipodi:docname="red-shoes.svg"
   xmlns:inkscape="http://www.inkscape.org/namespaces/inkscape"
   xmlns:sodipodi="http://sodipodi.sourceforge.net/DTD/sodipodi-0.dtd"
   xmlns="http://www.w3.org/2000/svg"
   xmlns:svg="http://www.w3.org/2000/svg">
  <sodipodi:namedview
     id="namedview1"
     pagecolor="#ffffff"
     bordercolor="#000000"
     borderopacity="0.25"
     inkscape:showpageshadow="2"
     inkscape:pageopacity="0.0"
     inkscape:pagecheckerboard="true"
     inkscape:deskcolor="#d1d1d1"
     inkscape:document-units="mm"
     showborder="false"
     inkscape:zoom="0.69753788"
     inkscape:cx="98.919359"
     inkscape:cy="95.335324"
     inkscape:window-width="1920"
     inkscape:window-height="1001"
     inkscape:window-x="-9"
     inkscape:window-y="-9"
     inkscape:window-maximized="1"
     inkscape:current-layer="layer1" />
  <defs
     id="defs1" />
  <g
     inkscape:label="Layer 1"
     inkscape:groupmode="layer"
     id="layer1"
     transform="translate(-79.018311,-123.36027)">
    <g
       id="g120"
       transform="matrix(0.26458333,0,0,0.26458333,-215.70106,-85.369517)">
				<path
   class="st5"
   d="m 1217.7,855 c 1.8,-22.4 7.9,-46.8 7.9,-46.8 l 4.4,-19.3 3,3.4 c 0.9,1 2.4,1.1 3.3,0.1 0.8,-0.8 1.8,-1.3 2.9,-1.2 l 7.9,0.4 c 0.7,0 1.4,0.3 1.9,0.7 1.3,1.1 3.3,0.9 4.5,-0.3 l 1.6,-1.6 c 0,0 10.7,39.4 8.6,66.6 -2.1,27.3 -14.8,32.4 -27,31.5 -13.6,-0.9 -20.8,-11.1 -19,-33.5 z"
   id="path113"
   style="fill:#d92622" />

				<path
   class="st54"
   d="m 1236.7,852.4 c 22.6,0 25,22 27,-5.3 0.1,-1.6 0.2,-3.3 0.3,-4.8 0.2,4.7 0.1,9.6 -0.3,14.8 -2.1,27.3 -14.8,32.4 -27,31.5 -13.3,-1 -20.6,-10.8 -19.1,-32.3 1.2,14.6 2.6,-3.9 19.1,-3.9 z"
   id="path114"
   style="fill:#c2c2c2" />

				<g
   id="g119">
					<g
   id="g115">
						<circle
   class="st54"
   cx="1232.6"
   cy="820.20001"
   r="3.2"
   id="circle114"
   style="fill:#c2c2c2" />

						<circle
   class="st54"
   cx="1249"
   cy="820.79999"
   r="3.2"
   id="circle115"
   style="fill:#c2c2c2" />

						<path
   class="st34"
   d="m 1250.3,821.8 c -0.6,0.6 -1.5,0.9 -2.3,0.7 -1.3,-0.2 -4,-0.6 -7.2,-0.7 -3.1,-0.1 -6,0.1 -7.5,0.3 -1,0.1 -1.9,-0.3 -2.3,-1.2 -0.3,-0.6 -0.4,-1.5 0.6,-2.4 1.5,-1.4 6.2,-1.4 9.2,-1.3 4.9,0.1 9.7,0.9 10,2.9 0,0.8 -0.2,1.3 -0.5,1.7 z"
   id="path115"
   style="fill:#4f1304" />

					</g>

					<g
   id="g116">
						
							<circle
   transform="matrix(0.00693786,-1,1,0.00693786,392.5389,2058.1785)"
   class="st54"
   cx="1232.5"
   cy="831.5"
   id="ellipse115"
   style="fill:#c2c2c2"
   r="3.0999999" />

						
							<circle
   transform="matrix(0.00693786,-1,1,0.00693786,408.0855,2075.1648)"
   class="st54"
   cx="1248.8"
   cy="832.09998"
   id="ellipse116"
   style="fill:#c2c2c2"
   r="3.0999999" />

						<path
   class="st34"
   d="m 1250,833.1 c -0.6,0.6 -1.5,0.9 -2.3,0.7 -1.3,-0.2 -4,-0.6 -7.1,-0.7 -3.1,-0.1 -6,0.1 -7.5,0.2 -0.9,0.1 -1.9,-0.4 -2.3,-1.2 -0.3,-0.6 -0.4,-1.5 0.6,-2.4 1.5,-1.4 6.1,-1.3 9.1,-1.2 4.8,0.2 9.6,1 9.9,2.9 0.2,0.8 0,1.3 -0.4,1.7 z"
   id="path116"
   style="fill:#4f1304" />

					</g>

					<g
   id="g118">
						
							<circle
   transform="matrix(0.00693786,-1,1,0.00693786,380.6359,2068.1702)"
   class="st54"
   cx="1231.6"
   cy="842.40002"
   id="ellipse117"
   style="fill:#c2c2c2"
   r="3.0999999" />

						
							<circle
   transform="matrix(0.00693786,-1,1,0.00693786,396.1824,2085.1565)"
   class="st54"
   cx="1247.9"
   cy="843.09998"
   id="ellipse118"
   style="fill:#c2c2c2"
   r="3.0999999" />

						<path
   class="st34"
   d="m 1249.1,844.1 c -0.6,0.6 -1.5,0.9 -2.3,0.7 -1.3,-0.2 -4,-0.6 -7.1,-0.7 -3.1,-0.1 -6,0.1 -7.5,0.2 -0.9,0.1 -1.9,-0.4 -2.3,-1.2 -0.3,-0.6 -0.4,-1.5 0.6,-2.4 1.5,-1.4 6.1,-1.3 9.1,-1.2 4.8,0.2 9.6,1 9.9,2.9 0.2,0.8 0,1.3 -0.4,1.7 z"
   id="path118"
   style="fill:#4f1304" />

					</g>

				</g>

				<path
   class="st59"
   d="m 1233.5,792.8 c 0,0 0,0 0,0 0.9,0.5 2,0.4 2.8,-0.3 l -4,16.4 z"
   id="path119"
   style="fill:#b51f1c" />

				<path
   class="st59"
   d="m 1252.3,792.8 1.2,15.2 -3.7,-15.2 c 0.8,0.4 1.7,0.4 2.5,0 z"
   id="path120"
   style="fill:#b51f1c" />

			</g>
    <g
       id="g128"
       transform="matrix(0.26458333,0,0,0.26458333,-215.70106,-85.369517)">
				<path
   class="st5"
   d="m 1160.3,855 c -1.8,-22.4 -7.9,-46.8 -7.9,-46.8 l -4.4,-19.3 -3,3.4 c -0.9,1 -2.4,1.1 -3.3,0.1 -0.8,-0.8 -1.8,-1.3 -2.9,-1.2 l -7.9,0.4 c -0.7,0 -1.4,0.3 -1.9,0.7 -1.3,1.1 -3.3,0.9 -4.5,-0.3 l -1.6,-1.6 c 0,0 -10.7,39.4 -8.6,66.6 2.1,27.3 14.8,32.4 27,31.5 13.6,-0.9 20.8,-11.1 19,-33.5 z"
   id="path121"
   style="fill:#d92622" />

				<path
   class="st54"
   d="m 1141.3,852.4 c -22.6,0 -25,22 -27,-5.3 -0.1,-1.6 -0.2,-3.3 -0.3,-4.8 -0.2,4.7 -0.1,9.6 0.3,14.8 2.1,27.3 14.8,32.4 27,31.5 13.3,-1 20.6,-10.8 19.1,-32.3 -1.2,14.6 -2.6,-3.9 -19.1,-3.9 z"
   id="path122"
   style="fill:#c2c2c2" />

				<g
   id="g127">
					<g
   id="g123">
						<circle
   class="st54"
   cx="1145.4"
   cy="820.20001"
   r="3.2"
   id="circle122"
   style="fill:#c2c2c2" />

						<circle
   class="st54"
   cx="1128.9"
   cy="820.79999"
   r="3.2"
   id="circle123"
   style="fill:#c2c2c2" />

						<path
   class="st34"
   d="m 1127.7,821.8 c 0.6,0.6 1.5,0.9 2.3,0.7 1.3,-0.2 4,-0.6 7.2,-0.7 3.1,-0.1 6,0.1 7.5,0.3 1,0.1 1.9,-0.3 2.3,-1.2 0.3,-0.6 0.4,-1.5 -0.6,-2.4 -1.5,-1.4 -6.2,-1.4 -9.1,-1.3 -4.9,0.1 -9.7,0.9 -10,2.9 -0.2,0.8 0,1.3 0.4,1.7 z"
   id="path123"
   style="fill:#4f1304" />

					</g>

					<g
   id="g124">
						
							<circle
   transform="matrix(1,-0.00693786,0.00693786,1,-5.7409,7.9669)"
   class="st54"
   cx="1145.4"
   cy="831.5"
   id="ellipse123"
   style="fill:#c2c2c2"
   r="3.0999999" />

						
							<circle
   transform="matrix(1,-0.00693786,0.00693786,1,-5.7459,7.8536)"
   class="st54"
   cx="1129.1"
   cy="832.09998"
   id="ellipse124"
   style="fill:#c2c2c2"
   r="3.0999999" />

						<path
   class="st34"
   d="m 1127.9,833.1 c 0.6,0.6 1.5,0.9 2.3,0.7 1.3,-0.2 4,-0.6 7.1,-0.7 3.1,-0.1 6,0.1 7.5,0.2 0.9,0.1 1.9,-0.4 2.3,-1.2 0.3,-0.6 0.4,-1.5 -0.6,-2.4 -1.5,-1.4 -6.1,-1.3 -9.1,-1.2 -4.8,0.2 -9.6,1 -9.9,2.9 -0.2,0.8 0.1,1.3 0.4,1.7 z"
   id="path124"
   style="fill:#4f1304" />

					</g>

					<g
   id="g126">
						
							<circle
   transform="matrix(1,-0.00693786,0.00693786,1,-5.8172,7.9735)"
   class="st54"
   cx="1146.4"
   cy="842.40002"
   id="ellipse125"
   style="fill:#c2c2c2"
   r="3.0999999" />

						
							<circle
   transform="matrix(1,-0.00693786,0.00693786,1,-5.8222,7.8603)"
   class="st54"
   cx="1130"
   cy="843.09998"
   id="ellipse126"
   style="fill:#c2c2c2"
   r="3.0999999" />

						<path
   class="st34"
   d="m 1128.8,844.1 c 0.6,0.6 1.5,0.9 2.3,0.7 1.3,-0.2 4,-0.6 7.1,-0.7 3.1,-0.1 6,0.1 7.5,0.2 0.9,0.1 1.9,-0.4 2.3,-1.2 0.3,-0.6 0.4,-1.5 -0.6,-2.4 -1.5,-1.4 -6.1,-1.3 -9.1,-1.2 -4.8,0.2 -9.6,1 -9.9,2.9 -0.2,0.8 0.1,1.3 0.4,1.7 z"
   id="path126"
   style="fill:#4f1304" />

					</g>

				</g>

				<path
   class="st59"
   d="m 1144.4,792.8 c 0,0 0,0 0,0 -0.9,0.5 -2,0.4 -2.8,-0.3 l 4,16.4 z"
   id="path127"
   style="fill:#b51f1c" />

				<path
   class="st59"
   d="m 1125.6,792.8 -1.2,15.2 3.7,-15.2 c -0.8,0.4 -1.7,0.4 -2.5,0 z"
   id="path128"
   style="fill:#b51f1c" />

			</g>
  </g>
</svg>
