<?xml version="1.0" encoding="UTF-8" standalone="no"?>
<!-- Created with Inkscape (http://www.inkscape.org/) -->

<svg
   width="36.522846mm"
   height="30.823957mm"
   viewBox="0 0 36.522846 30.823957"
   version="1.1"
   id="svg1"
   inkscape:version="1.4.2 (f4327f4, 2025-05-13)"
   sodipodi:docname="shorts.svg"
   xmlns:inkscape="http://www.inkscape.org/namespaces/inkscape"
   xmlns:sodipodi="http://sodipodi.sourceforge.net/DTD/sodipodi-0.dtd"
   xmlns="http://www.w3.org/2000/svg"
   xmlns:svg="http://www.w3.org/2000/svg">
  <sodipodi:namedview
     id="namedview1"
     pagecolor="#ffffff"
     bordercolor="#000000"
     borderopacity="0.25"
     inkscape:showpageshadow="2"
     inkscape:pageopacity="0.0"
     inkscape:pagecheckerboard="0"
     inkscape:deskcolor="#d1d1d1"
     inkscape:document-units="mm"
     inkscape:zoom="0.69753788"
     inkscape:cx="253.74966"
     inkscape:cy="-85.300027"
     inkscape:window-width="1920"
     inkscape:window-height="1001"
     inkscape:window-x="-9"
     inkscape:window-y="-9"
     inkscape:window-maximized="1"
     inkscape:current-layer="layer1" />
  <defs
     id="defs1" />
  <g
     inkscape:label="Layer 1"
     inkscape:groupmode="layer"
     id="layer1"
     transform="translate(-37.835416,-170.92083)">
    <g
       id="g73"
       transform="matrix(0.26458333,0,0,0.26458333,-88.445033,27.119793)">
				<path
   class="st15"
   d="m 615.3,591.8 c -0.2,-31.8 -6.9,-48.3 -6.9,-48.3 0,0 -25.5,11.7 -62.1,11.7 0,0 0,0 0,0 0,0 0,0 0,0 -36.6,0 -62.1,-11.7 -62.1,-11.7 0,0 -6.7,16.5 -6.9,48.3 -0.2,29.2 1.2,50.5 1.2,50.5 0,0 15.9,3.4 29,7 7.6,2.1 28.8,10.7 28.8,10.7 0,0 4.3,-17.1 6.5,-29.2 2.1,-11.4 3.2,-20.9 3.5,-20.9 0.3,0 1.4,9.4 3.5,20.9 2.2,12.1 6.5,29.2 6.5,29.2 0,0 21.2,-8.6 28.8,-10.7 13.1,-3.6 29,-7 29,-7 0,0 1.4,-21.3 1.2,-50.5 z"
   id="path62"
   style="fill:#0099c9" />

				<path
   class="st43"
   d="m 608.4,543.5 c 0,0 -6.6,3 -18,6 -1.4,2.7 -2.1,5.7 -2.1,8.9 0,10.8 8.8,19.6 19.6,19.6 2.4,0 4.7,-0.5 6.8,-1.2 -1.8,-22 -6.3,-33.3 -6.3,-33.3 z"
   id="path63"
   style="fill:#005b78" />

				<path
   class="st44"
   d="m 608.7,573.5 c 2,0 3.8,-0.4 5.6,-1 -1.7,-17.3 -5.1,-27 -5.8,-28.8 -1.8,0.8 -7.1,2.9 -15,5 -1.2,2.3 -1.9,4.9 -1.9,7.7 0,9.5 7.7,17.1 17.1,17.1 z"
   id="path64"
   style="fill:#004b63" />

				<path
   class="st43"
   d="m 484.1,543.5 c 0,0 6.6,3 18,6 1.4,2.7 2.1,5.7 2.1,8.9 0,10.8 -8.8,19.6 -19.6,19.6 -2.4,0 -4.7,-0.5 -6.8,-1.2 1.7,-22 6.3,-33.3 6.3,-33.3 z"
   id="path65"
   style="fill:#005b78" />

				<path
   class="st44"
   d="m 483.7,573.5 c -2,0 -3.8,-0.4 -5.6,-1 1.7,-17.3 5.1,-27 5.8,-28.8 1.8,0.8 7.1,2.9 15,5 1.2,2.3 1.9,4.9 1.9,7.7 0,9.5 -7.6,17.1 -17.1,17.1 z"
   id="path66"
   style="fill:#004b63" />

				<path
   class="st45"
   d="m 546.2,565.2 c 0,0 0,0 0,0 0,0 0.1,0 0,0 29.6,0 53.1,-6.3 65.3,-10.5 -1.6,-7.4 -3.2,-11.2 -3.2,-11.2 0,0 -25.5,11.7 -62.1,11.7 0,0 0,0 0,0 0,0 0,0 0,0 -36.6,0 -62.1,-11.7 -62.1,-11.7 0,0 -1.5,3.8 -3.2,11.2 12.3,4.1 35.8,10.5 65.3,10.5 z"
   id="path67"
   style="fill:#0082ab" />

				<path
   class="st46"
   d="m 614.1,642.2 c 0,0 0.6,-2 0.8,-4.3 0.1,-2.1 -0.3,-4.2 -0.3,-4.2 0,0 -16.9,3.8 -30.6,7.9 -16.3,4.9 -29.5,10.9 -29.5,10.9 0,0 -0.5,1.6 0.3,4.1 0.6,1.9 1.5,3.3 1.5,3.3 0,0 20.4,-8.2 29.3,-10.9 9.3,-2.6 28.5,-6.8 28.5,-6.8 z"
   id="path68"
   style="fill:#47c3ed" />

				<path
   class="st46"
   d="m 478.4,642.2 c 0,0 -0.6,-2 -0.8,-4.3 -0.1,-2.1 0.3,-4.2 0.3,-4.2 0,0 16.9,3.8 30.6,7.9 16.3,4.9 29.5,10.9 29.5,10.9 0,0 0.5,1.6 -0.3,4.1 -0.6,1.9 -1.5,3.3 -1.5,3.3 0,0 -20.4,-8.2 -29.3,-10.9 -9.3,-2.6 -28.5,-6.8 -28.5,-6.8 z"
   id="path69"
   style="fill:#47c3ed" />

				<path
   class="st45"
   d="m 556.7,559.8 h -1.2 c 0,0.2 -0.2,20.5 -0.2,25 0,3.7 -6.7,11.1 -8.4,13.6 0.3,-15.1 0.4,-39.2 0.4,-39.2 h -1.9 c 0,0 0.4,51.2 1,51.2 0.2,0 0.4,-4.6 0.5,-11.1 2,-0.9 9.9,-10.4 9.9,-14.5 -0.1,-4.4 -0.1,-24.7 -0.1,-25 z"
   id="path70"
   style="fill:#0082ab" />

				<g
   id="g72">
					<path
   class="st47"
   d="m 592.1,563.1 -5.2,1 c -1.3,0.2 -2.6,-0.6 -2.9,-2 l -1.7,-9.4 c -0.2,-1.3 0.6,-2.6 2,-2.9 l 5.2,-1 c 1.3,-0.2 2.6,0.6 2.9,2 l 1.7,9.4 c 0.2,1.4 -0.6,2.6 -2,2.9 z"
   id="path71"
   style="fill:#007296" />

					<path
   class="st47"
   d="m 498.4,562 5.2,1 c 1.3,0.2 2.6,-0.6 2.9,-2 l 1.7,-9.4 c 0.2,-1.3 -0.6,-2.6 -2,-2.9 l -5.2,-1 c -1.3,-0.2 -2.6,0.6 -2.9,2 l -1.7,9.4 c -0.3,1.4 0.6,2.7 2,2.9 z"
   id="path72"
   style="fill:#007296" />

				</g>

				<circle
   class="st48"
   cx="551.90002"
   cy="560.29999"
   r="2.7"
   id="circle72"
   style="fill:#a3e9ff" />

			</g>
  </g>
</svg>
