<?xml version="1.0" encoding="UTF-8" standalone="no"?>
<!-- Created with Inkscape (http://www.inkscape.org/) -->

<svg
   width="48.418751mm"
   height="44.400055mm"
   viewBox="0 0 48.418751 44.400055"
   version="1.1"
   id="svg1"
   inkscape:version="1.4.2 (f4327f4, 2025-05-13)"
   sodipodi:docname="skirt.svg"
   xmlns:inkscape="http://www.inkscape.org/namespaces/inkscape"
   xmlns:sodipodi="http://sodipodi.sourceforge.net/DTD/sodipodi-0.dtd"
   xmlns="http://www.w3.org/2000/svg"
   xmlns:svg="http://www.w3.org/2000/svg">
  <sodipodi:namedview
     id="namedview1"
     pagecolor="#ffffff"
     bordercolor="#000000"
     borderopacity="0.25"
     inkscape:showpageshadow="2"
     inkscape:pageopacity="0.0"
     inkscape:pagecheckerboard="0"
     inkscape:deskcolor="#d1d1d1"
     inkscape:document-units="mm"
     inkscape:zoom="0.69753788"
     inkscape:cx="303.92615"
     inkscape:cy="-260.20092"
     inkscape:window-width="1920"
     inkscape:window-height="1001"
     inkscape:window-x="-9"
     inkscape:window-y="-9"
     inkscape:window-maximized="1"
     inkscape:current-layer="layer1" />
  <defs
     id="defs1" />
  <g
     inkscape:label="Layer 1"
     inkscape:groupmode="layer"
     id="layer1"
     transform="translate(-24.606248,-217.22291)">
    <g
       id="g74"
       transform="matrix(0.26458333,0,0,0.26458333,-95.72625,26.511247)">
				<path
   class="st49"
   d="m 615.8,769.5 c -3.1,-31.8 -7,-48.7 -7,-48.7 0,0 -25.6,11.8 -62.5,11.8 0,0 0,0 0,0 0,0 0,0 0,0 -36.9,0 -62.5,-11.8 -62.5,-11.8 0,0 -3.9,16.8 -7,48.7 -6,61.5 -22,95.5 -22,95.5 0,0 3.1,5.7 14.5,9.7 3.3,1.1 10.2,-0.8 14.3,0.5 4.8,1.6 10,6.9 15.9,8 4.9,0.9 11.2,-1.3 16.7,-0.7 5.6,0.6 11.4,6.4 17.6,6.1 4.2,-0.1 8.1,-3.5 12.5,-4.1 4.4,0.5 8.4,3.9 12.5,4.1 6.2,0.2 12,-5.6 17.6,-6.1 5.5,-0.6 11.8,1.6 16.7,0.7 5.9,-1.1 11,-6.4 15.9,-8 4.1,-1.3 11.1,0.6 14.3,-0.5 11.4,-3.9 14.5,-9.7 14.5,-9.7 0,0 -16,-34.1 -22,-95.5 z"
   id="path73"
   style="fill:#ff9a9a" />

				<path
   class="st50"
   d="m 546.2,742.5 c 0,0 0,0 0,0 0,0 0.1,0 0,0 29.5,0 52.8,-6.4 64.7,-10.5 -1.3,-7.4 -2.1,-11.2 -2.1,-11.2 0,0 -25.6,11.8 -62.5,11.8 0,0 0,0 0,0 0,0 0,0 0,0 -36.9,0 -62.5,-11.8 -62.5,-11.8 0,0 -0.9,3.8 -2.1,11.2 11.8,4.2 35.1,10.5 64.5,10.5 z"
   id="path74"
   style="fill:#ff7a7a" />

			</g>
  </g>
</svg>
