<?xml version="1.0" encoding="UTF-8" standalone="no"?>
<!-- Created with Inkscape (http://www.inkscape.org/) -->

<svg
   width="24.950209mm"
   height="8.1491661mm"
   viewBox="0 0 24.950209 8.1491661"
   version="1.1"
   id="svg1"
   inkscape:version="1.4.2 (f4327f4, 2025-05-13)"
   sodipodi:docname="sunnies.svg"
   xmlns:inkscape="http://www.inkscape.org/namespaces/inkscape"
   xmlns:sodipodi="http://sodipodi.sourceforge.net/DTD/sodipodi-0.dtd"
   xmlns="http://www.w3.org/2000/svg"
   xmlns:svg="http://www.w3.org/2000/svg">
  <sodipodi:namedview
     id="namedview1"
     pagecolor="#ffffff"
     bordercolor="#000000"
     borderopacity="0.25"
     inkscape:showpageshadow="2"
     inkscape:pageopacity="0.0"
     inkscape:pagecheckerboard="0"
     inkscape:deskcolor="#d1d1d1"
     inkscape:document-units="mm"
     inkscape:zoom="0.69753788"
     inkscape:cx="197.83872"
     inkscape:cy="303.20934"
     inkscape:window-width="1920"
     inkscape:window-height="1001"
     inkscape:window-x="-9"
     inkscape:window-y="-9"
     inkscape:window-maximized="1"
     inkscape:current-layer="layer1" />
  <defs
     id="defs1" />
  <g
     inkscape:label="Layer 1"
     inkscape:groupmode="layer"
     id="layer1"
     transform="translate(-52.65208,-68.262499)">
    <g
       id="g58"
       transform="matrix(0.26458333,0,0,0.26458333,-79.295627,10.63625)">
				<g
   id="g55">
					<g
   id="g54">
						<path
   class="st38"
   d="m 510.6,220.8 h 21.1 c 4,0 7.3,3.5 7.3,7.8 v 0 c 0,10.3 -7.8,18.7 -17.4,18.7 h -0.9 c -9.6,0 -17.4,-8.4 -17.4,-18.7 v 0 c 0.1,-4.3 3.3,-7.8 7.3,-7.8 z"
   id="path53"
   style="fill:#0e0f0f" />

					</g>

				</g>

				<g
   id="g57">
					<g
   id="g56">
						<path
   class="st38"
   d="m 580.3,220.8 h -21.1 c -4,0 -7.3,3.5 -7.3,7.8 v 0 c 0,10.3 7.8,18.7 17.4,18.7 h 0.9 c 9.6,0 17.4,-8.4 17.4,-18.7 v 0 c -0.1,-4.3 -3.3,-7.8 -7.3,-7.8 z"
   id="path55"
   style="fill:#0e0f0f" />

					</g>

				</g>

				<path
   class="st5"
   d="m 591.5,219.2 h -4 c 0,0 -4,-1.4 -13.9,-1.4 -9.9,0 -19,0.2 -21.6,1.8 -1.6,1 -4.4,1.4 -6.4,1.5 -2,-0.1 -4.8,-0.5 -6.4,-1.5 -2.7,-1.6 -11.7,-1.8 -21.6,-1.8 -9.9,0 -13.9,1.4 -13.9,1.4 h -4 c -0.5,0 -1,0.5 -1,1 v 4.3 c 0,0.6 3.7,4.5 3.7,4.5 0.1,10.8 8.3,19.6 18.5,19.6 h 0.9 c 12.8,0 17.7,-11.5 18,-12.3 l 1.4,-4.1 c 0.3,-1 1.2,-1.6 2.2,-1.6 h 0.2 4.5 0.2 c 1,0 1.9,0.7 2.2,1.6 l 1.4,4.1 c 0.3,0.8 5.5,12.3 18,12.3 h 0.9 c 10.1,0 18.4,-8.8 18.5,-19.6 0,0 3.7,-4 3.7,-4.5 v -4.3 c -0.6,-0.5 -1,-1 -1.5,-1 z m -70,26.9 h -0.9 c -8.8,0 -15.9,-7.7 -15.9,-17.2 0,-3.6 2.6,-6.4 5.9,-6.4 h 20.9 c 3.3,0 5.9,2.9 5.9,6.5 0,9.4 -7.2,17.1 -15.9,17.1 z m 48.7,0 h -0.9 c -8.8,0 -15.9,-7.7 -15.9,-17.2 0,-3.6 2.6,-6.4 5.9,-6.4 h 20.9 c 3.3,0 5.9,2.9 5.9,6.5 0,9.4 -7.1,17.1 -15.9,17.1 z"
   id="path57"
   style="fill:#d92622" />

			</g>
  </g>
</svg>
