<?xml version="1.0" encoding="UTF-8" standalone="no"?>
<!-- Created with Inkscape (http://www.inkscape.org/) -->

<svg
   width="72.802147mm"
   height="160.49644mm"
   viewBox="0 0 72.802147 160.49644"
   version="1.1"
   id="svg1"
   sodipodi:docname="swimwear.svg"
   inkscape:version="1.4.2 (f4327f4, 2025-05-13)"
   xmlns:inkscape="http://www.inkscape.org/namespaces/inkscape"
   xmlns:sodipodi="http://sodipodi.sourceforge.net/DTD/sodipodi-0.dtd"
   xmlns="http://www.w3.org/2000/svg"
   xmlns:svg="http://www.w3.org/2000/svg">
  <sodipodi:namedview
     id="namedview1"
     pagecolor="#ffffff"
     bordercolor="#000000"
     borderopacity="0.25"
     inkscape:showpageshadow="2"
     inkscape:pageopacity="0.0"
     inkscape:pagecheckerboard="0"
     inkscape:deskcolor="#d1d1d1"
     inkscape:document-units="mm"
     inkscape:zoom="0.24661688"
     inkscape:cx="452.11828"
     inkscape:cy="691.35575"
     inkscape:window-width="1920"
     inkscape:window-height="1001"
     inkscape:window-x="-9"
     inkscape:window-y="-9"
     inkscape:window-maximized="1"
     inkscape:current-layer="layer1" />
  <defs
     id="defs1" />
  <g
     inkscape:label="Layer 1"
     inkscape:groupmode="layer"
     id="layer1"
     transform="translate(21.20858,-34.087932)">
    <path
       d="m -4.7377701,34.087932 c 0.0389,0.23875 0.0778,0.47749 0.11782,0.72347 2.2656,13.53404 5.85734,28.19507 16.9643401,37.29385 0.24591,0.20293 0.49182,0.40586 0.74518,0.61495 0.98215,0.74503 1.46556,1.05523 2.71094,1.05523 2.92853,-0.47357 5.1582,-2.87467 6.82956,-5.15938 6.69605,-10.00611 9.68449,-22.5406 11.79049,-34.26354 1.22034,-0.37369 1.99918,-0.12156 3.18844,0.28836 0.17431,0.0591 0.34862,0.1182 0.52821,0.17909 0.55364,0.18848 1.10563,0.38133 1.6577,0.57435 0.37628,0.12897 0.75265,0.25764 1.12913,0.38602 0.92015,0.31448 1.83888,0.63289 2.75694,0.95343 -0.13019,2.24311 -0.26271,4.48598 -0.40618,6.72827 -1.36141,18.42054 -1.36141,18.42054 5.58209,34.92707 0.42344,0.51939 0.63911,0.80111 0.66696,1.47872 -0.0277,0.19035 -0.0554,0.38071 -0.0839,0.57684 -0.0302,0.20998 -0.0604,0.41997 -0.0915,0.63631 -0.16671,0.94751 -0.36786,1.88158 -0.59281,2.81684 -0.0983,0.421 -0.19636,0.84204 -0.29437,1.2631 -0.0515,0.21931 -0.1029,0.43862 -0.15591,0.66458 -3.87873,16.608558 -7.59744,34.447168 -2.0612,51.003448 1.98688,6.03409 3.73508,12.19655 4.76315,18.47226 0.0689,0.41574 0.14769,0.82981 0.22879,1.24334 0.1815,1.29272 0.24198,2.57799 0.28319,3.88193 0.0188,0.26978 0.0375,0.53956 0.0568,0.81752 0.0478,1.93311 0.0478,1.93311 -0.68439,2.72522 -0.62069,0.42237 -1.24415,0.75932 -1.91906,1.08747 -0.37569,0.20957 -0.75089,0.42003 -1.12552,0.63148 -0.37982,0.20323 -0.75982,0.40614 -1.13998,0.60875 -5.00032,2.72873 -9.49475,6.21121 -13.6095,10.13685 -0.22852,0.21453 -0.45703,0.42906 -0.69247,0.65009 -3.35789,3.2376 -6.15271,7.19197 -7.92303,11.52074 -1.3147,2.99208 -3.86929,4.32063 -6.73034,5.55625 -2.33657,0.77886 -5.00021,0.4313 -7.18302,-0.61598 -2.4173901,-1.41732 -3.9789001,-2.99842 -5.2523901,-5.46943 -1.76336,-3.31415 -3.58958,-6.50173 -5.82084003,-9.525 -0.11583,-0.15736 -0.23166,-0.31472 -0.35101,-0.47685 C -5.9395301,171.23768 -12.04991,165.88972 -20.41228,163.61284 c -0.46508,-0.14366 -0.46508,-0.14366 -0.72967,-0.40824 -0.0771,-1.29293 -0.0651,-2.59098 -0.0661,-3.88607 -1.8e-4,-0.19227 -3.5e-4,-0.38454 -5.3e-4,-0.58263 0.0127,-8.60117 1.78975,-18.7628 6.59239,-26.10205 0.4699,-0.86424 0.54399,-1.62552 0.65112,-2.60139 0.0583,-0.50239 0.0583,-0.50239 0.11782,-1.01493 0.31867,-3.36371 0.43284,-6.70476 0.42788,-10.08103 -2.5e-4,-0.22013 -5e-4,-0.44026 -7.4e-4,-0.66706 -0.027,-11.12792 -1.68118,-22.103288 -4.91368,-32.753128 -0.0694,-0.23354 -0.13877,-0.46708 -0.21026,-0.7077 -0.15113,-0.49851 -0.31012,-0.99468 -0.47503,-1.4888 -0.605,-1.92087 -0.605,-1.92087 -0.26349,-2.97527 0.16678,-0.22511 0.33356,-0.45021 0.5054,-0.68213 4.81296,-7.27519 5.63215,-17.5266 5.62239,-26.01185 1.1e-4,-0.19396 2.1e-4,-0.38791 3.2e-4,-0.58775 -0.002,-3.60733 -0.2099,-7.17636 -0.51462,-10.77138 -0.0947,-1.16807 -0.16471,-2.33711 -0.22986,-3.50715 -0.0105,-0.18624 -0.0211,-0.37248 -0.032,-0.56437 -0.0229,-0.40716 -0.0451,-0.81436 -0.0673,-1.22156 1.77622,-0.68085 3.57073,-1.29757 5.3743499,-1.9017 0.28667,-0.0974 0.57333,-0.19474 0.86868,-0.29507 0.27439,-0.0919 0.54878,-0.18383 0.83148,-0.27853 0.2484,-0.0836 0.4968,-0.16725 0.75273,-0.25341 0.63943,-0.18171 0.63943,-0.18171 1.43318,-0.18171 z"
       fill="#ff5deb"
       id="path2"
       style="stroke-width:0.264583" />
  </g>
</svg>
