<?xml version="1.0" encoding="UTF-8" standalone="no"?>
<!-- Created with Inkscape (http://www.inkscape.org/) -->

<svg
   width="208.36536mm"
   height="493.88892mm"
   viewBox="0 0 208.36536 493.88892"
   version="1.1"
   id="svg1"
   inkscape:version="1.4.2 (f4327f4, 2025-05-13)"
   sodipodi:docname="swimsuit.svg"
   xmlns:inkscape="http://www.inkscape.org/namespaces/inkscape"
   xmlns:sodipodi="http://sodipodi.sourceforge.net/DTD/sodipodi-0.dtd"
   xmlns="http://www.w3.org/2000/svg"
   xmlns:svg="http://www.w3.org/2000/svg">
  <sodipodi:namedview
     id="namedview1"
     pagecolor="#ffffff"
     bordercolor="#000000"
     borderopacity="0.25"
     inkscape:showpageshadow="2"
     inkscape:pageopacity="0.0"
     inkscape:pagecheckerboard="0"
     inkscape:deskcolor="#d1d1d1"
     inkscape:document-units="mm"
     inkscape:zoom="0.34876894"
     inkscape:cx="630.79012"
     inkscape:cy="1033.6356"
     inkscape:window-width="1920"
     inkscape:window-height="1001"
     inkscape:window-x="-9"
     inkscape:window-y="-9"
     inkscape:window-maximized="1"
     inkscape:current-layer="layer1" />
  <defs
     id="defs1" />
  <g
     inkscape:label="Layer 1"
     inkscape:groupmode="layer"
     id="layer1"
     transform="translate(123.03123,137.58339)">
    <path
       id="path3"
       d="m 84.497367,243.62125 c 0,0 -6.265334,-0.35278 -15.557501,2.69522 -1.040695,0.34219 -2.102556,0.72319 -3.203223,1.16064 -0.543278,0.20108 -1.097139,0.42333 -1.654528,0.64911 l -0.03528,0.0247 c -0.567972,0.23636 -1.135944,0.48331 -1.725083,0.75495 -20.390557,9.23219 -49.575864,34.51578 -63.8527818,103.46267 0,0 -3.781778,3.937 -17.3178622,3.937 -13.522679,0 -17.316804,-3.937 -17.316804,-3.937 -14.279034,-68.94689 -43.451641,-94.23048 -63.853484,-103.46267 -0.57926,-0.27164 -1.15852,-0.51859 -1.7138,-0.75495 l -0.0473,-0.0247 c -0.55562,-0.22578 -1.09925,-0.44803 -1.64324,-0.64911 -1.09925,-0.43745 -2.16288,-0.81845 -3.20322,-1.16064 -9.29076,-3.048 -15.56738,-2.69522 -15.56738,-2.69522 -3.78248,-27.18506 5.41373,-67.96618 24.350135,-106.97282 10.922,-22.49311 1.867605,-40.64 -7.127875,-59.397195 -3.51049,-7.306029 -6.9977,-14.703779 -9.29075,-22.48253 -1.71415,-5.757333 -2.77778,-11.712223 -2.69487,-18.002251 0.18908,-16.809862 3.04941,-26.359557 6.53662,-33.7114463 1.7847,-3.71122241 3.71157,-6.8544726 5.54355,-10.0965006 4.13702,-7.2425281 7.801675,-14.9401401 8.120586,-30.3635851 0.744714,-37.387391 -9.196206,-100.178312 -9.196206,-100.178312 h 20.011668 c 0,0 10.011834,101.063784 67.09234,101.063784 57.079448,0 67.091282,-101.063784 67.091282,-101.063784 h 20.0237 c 0,0 -9.951862,62.790921 -9.196917,100.178312 0.310444,15.423445 3.986389,23.121057 8.110361,30.3635851 1.830917,3.242028 3.771195,6.38527819 5.54214,10.0965006 3.499555,7.3518893 6.35,16.9015843 6.551083,33.7114463 0.07056,6.290028 -0.980722,12.244918 -2.695222,18.002251 -2.293056,7.778751 -5.792612,15.176501 -9.292167,22.48253 -8.995834,18.757195 -18.062224,36.904085 -7.140223,59.397195 18.937112,39.00664 28.13403,79.78776 24.352252,106.97282"
       style="fill:#029ec0;fill-opacity:1;fill-rule:nonzero;stroke:none;stroke-width:0.0352778" />
    <path
       id="path4"
       d="m -74.889407,137.26227 c -16.599607,35.10844 -26.836513,81.36114 -25.126603,111.64359 -0.58455,-0.27164 -1.15781,-0.51859 -1.72049,-0.75495 l -0.0434,-0.0247 c -0.55209,-0.22578 -1.10384,-0.44803 -1.645,-0.64911 -1.10384,-0.43745 -2.16429,-0.81845 -3.20287,-1.16064 -0.91969,-31.51364 9.457622,-77.37476 25.970798,-112.30329 11.557001,-24.45808 -0.183797,-46.016334 -11.546064,-66.858446 -5.865284,-10.777362 -10.972804,-21.074946 -13.158614,-30.906863 -2.28353,-10.237612 -4.19876,-23.00464 -5.05354,-33.1928633 1.77447,-3.71122241 3.71158,-6.8544726 5.54038,-10.0965006 0.2921,10.4140007 2.66206,23.4879459 5.897734,41.9629189 1.525764,8.713612 6.784976,18.36914 12.357807,28.606752 11.686823,21.452418 24.942801,45.779972 11.729862,73.734092"
       style="fill:#cae8b9;fill-opacity:1;fill-rule:nonzero;stroke:none;stroke-width:0.0352778" />
    <path
       id="path5"
       d="m 37.196919,137.26227 c 16.598196,35.10844 26.835807,81.36114 25.128363,111.64359 0.582083,-0.27164 1.157111,-0.51859 1.718028,-0.75495 l 0.04586,-0.0247 c 0.550333,-0.22578 1.100667,-0.44803 1.643944,-0.64911 1.104195,-0.43745 2.162528,-0.81845 3.203223,-1.16064 C 69.857088,214.80283 59.478365,168.94171 42.964836,134.01318 31.407835,109.5551 43.148281,87.996846 54.511254,67.154734 60.374421,56.377372 65.482643,46.079788 67.669865,36.247871 69.952338,26.010259 71.867921,13.243231 72.721644,3.0550077 70.947171,-0.65621471 69.010421,-3.7994649 67.183032,-7.0414929 66.890227,3.3725078 64.51956,16.446453 61.284587,34.921426 59.760587,43.635038 54.50067,53.290566 48.926781,63.528178 37.239252,84.980596 23.98539,109.30815 37.196919,137.26227"
       style="fill:#cae8b9;fill-opacity:1;fill-rule:nonzero;stroke:none;stroke-width:0.0352778" />
    <path
       id="path6"
       d="m 79.685477,243.89288 c 0,-0.004 0,-0.004 0,-0.007 1.964973,-0.23636 3.393723,-0.27517 4.162778,-0.27517 0.423334,0 0.649112,0.0106 0.649112,0.0106 0.560916,-4.03578 0.836083,-8.36789 0.836083,-12.95401 0,4.58612 -0.275167,8.91823 -0.836083,12.95401 0,0 -0.204612,-0.0106 -0.596195,-0.0106 -0.754944,0 -2.204861,0.0423 -4.215695,0.28222"
       style="fill:#dfdfdf;fill-opacity:1;fill-rule:nonzero;stroke:none;stroke-width:0.0352778" />
    <path
       id="path7"
       d="m 79.685477,243.88583 c 2.162528,-27.66131 -6.561667,-67.0172 -23.569084,-104.76795 -9.89189,-21.93573 -2.511778,-39.814505 5.598583,-58.060173 -3.146778,1.887361 -6.469945,3.453695 -9.902473,4.656667 -2.515305,0.881945 -5.087056,1.559278 -7.679972,2.049639 1.830916,-4.332111 3.961694,-8.611306 6.194778,-12.848167 3.640667,-1.266473 7.154334,-2.963334 10.470445,-5.087056 2.977445,-1.905 5.796139,-4.155723 8.427862,-6.678084 0.92075,-2.532945 1.767416,-5.097639 2.480027,-7.708195 C 73.339005,49.55465 74.33031,43.469233 74.259755,37.048677 74.146866,26.807537 73.137921,19.201648 71.642143,13.133869 72.090171,9.6272582 72.45706,6.2158968 72.721644,3.0550077 v 0 c 3.499555,7.3518893 6.35,16.9015843 6.551083,33.7114463 0,0.197556 0.0035,0.391584 0.0035,0.589139 0,6.071306 -1.040694,11.835695 -2.69875,17.413112 -2.293056,7.778751 -5.792612,15.176501 -9.292167,22.48253 -6.053667,12.622389 -12.135557,24.966085 -12.142612,38.544505 -0.0035,6.60047 1.432278,13.49375 5.002389,20.85269 16.125473,33.21756 25.188335,67.71923 25.188335,94.01881 0,4.58612 -0.275167,8.91823 -0.836083,12.95401 0,0 -0.225778,-0.0106 -0.649112,-0.0106 -0.769055,0 -2.197805,0.0388 -4.162778,0.27517"
       style="fill:#028aa8;fill-opacity:1;fill-rule:nonzero;stroke:none;stroke-width:0.0352778" />
    <path
       id="path8"
       d="m -117.38326,243.89288 c -2.01083,-0.23988 -3.46145,-0.28222 -4.2164,-0.28222 -0.39017,0 -0.59443,0.0106 -0.59443,0.0106 -0.56162,-4.03578 -0.83714,-8.36789 -0.83714,-12.95401 0,4.58612 0.27552,8.91823 0.83714,12.95401 0,0 0.22366,-0.0106 0.64911,-0.0106 0.76976,0 2.19993,0.0388 4.16102,0.27164 0,0.004 3.5e-4,0.007 7e-4,0.0106"
       style="fill:#dfdfdf;fill-opacity:1;fill-rule:nonzero;stroke:none;stroke-width:0.0352778" />
    <path
       id="path9"
       d="m -117.38396,243.8823 c -1.96109,-0.23283 -3.39126,-0.27164 -4.16102,-0.27164 -0.42545,0 -0.64911,0.0106 -0.64911,0.0106 -0.56162,-4.03578 -0.83714,-8.36789 -0.83714,-12.95401 -7.1e-4,-26.29958 9.0618,-60.80125 25.187277,-94.01881 3.572933,-7.35894 5.008033,-14.25222 5.006622,-20.85269 -0.0028,-13.57842 -6.081889,-25.922116 -12.134499,-38.544505 -3.51049,-7.306029 -6.9977,-14.703779 -9.29075,-22.48253 -1.65383,-5.552722 -2.70193,-11.295945 -2.69946,-17.339028 0,-0.22225 0.001,-0.440973 0.005,-0.663223 0.18908,-16.809862 3.04941,-26.359557 6.53662,-33.7114463 1.7847,-3.71122241 3.71157,-6.8544726 5.54355,-10.0965006 4.13702,-7.2425281 7.801677,-14.9401401 8.120588,-30.3635851 0.02716,-1.351139 0.03986,-2.737556 0.03986,-4.148667 -3.53e-4,-37.694308 -9.236068,-96.029645 -9.236068,-96.029645 h 4.95264 c 1.938514,13.94883 8.829675,65.980032 8.215136,98.830701 -0.295627,15.76564 -3.770489,23.629057 -7.695136,31.0268072 -1.30528,2.4694446 -2.65007,4.8859725 -3.9557,7.53180601 -0.22825,-2.41300011 -0.37818,-4.68841701 -0.43885,-6.84741711 -1.8288,3.242028 -3.76591,6.38527819 -5.54038,10.0965006 0.26529,3.1608891 0.63288,6.5722505 1.08162,10.0788613 -1.49719,6.067779 -2.50649,13.673668 -2.61232,23.914808 -0.0825,6.420556 0.92216,12.505973 2.5534,18.393834 0.71332,2.610556 1.55716,5.171723 2.47544,7.704667 2.63561,2.522361 5.45324,4.776612 8.422923,6.681612 3.319639,2.123722 6.832601,3.820583 10.473268,5.087056 2.233436,4.236861 4.363155,8.512528 6.197247,12.848167 -2.595033,-0.493889 -5.167489,-1.167694 -7.687381,-2.049639 -3.423003,-1.202972 -6.742995,-2.769306 -9.890831,-4.656667 8.109303,18.245668 15.479184,36.124443 5.588353,58.060173 -17.007409,37.75075 -25.730549,77.10664 -23.570489,104.76442 M 33.358697,88.780013 c -0.172861,0 -0.345723,0 -0.518584,-0.0035 l -3.7465,-0.130527 c -1.241778,-0.01058 -2.494139,-0.1905 -3.735917,-0.282223 -1.252361,-0.119944 -2.504722,-0.225777 -3.732389,-0.437444 -4.953,-0.723195 -9.884834,-1.905 -14.5979454,-3.559528 C 4.6743337,83.551874 2.3565836,82.652291 0.06352786,81.696263 -2.1942501,80.715541 -4.4167502,79.696013 -6.5792781,78.704707 -10.893751,76.68329 -15.042418,74.732429 -18.84889,74.203262 c -3.794125,0.529167 -7.955139,2.480028 -12.269612,4.501445 -2.162881,0.991306 -4.385028,2.010834 -6.642806,2.991556 -2.281414,0.956028 -4.598458,1.855611 -6.962423,2.670528 -4.716286,1.654528 -9.633303,2.836333 -14.597945,3.559528 -1.229431,0.211667 -2.470503,0.3175 -3.72357,0.437444 -1.252714,0.09172 -2.494139,0.271639 -3.734858,0.282223 l -3.747206,0.130527 c -0.172155,0.0035 -0.345017,0.0035 -0.518583,0.0035 -1.090789,0 -2.208389,-0.05644 -3.299531,-0.08819 -0.0088,0 -0.01834,0 -0.02716,0 -1.501422,-3.961695 -3.250142,-7.838723 -5.115984,-11.627557 1.863726,0.299862 3.746148,0.497417 5.639506,0.589139 l 3.274484,0.07056 3.368675,-0.07056 c 0.04092,0 0.08185,0 0.122767,0 1.071033,0 2.152297,-0.144639 3.222625,-0.211666 1.110897,-0.08467 2.233789,-0.165806 3.345039,-0.345723 1.099256,-0.151694 2.210506,-0.236361 3.321403,-0.423333 l 3.321756,-0.578556 3.285772,-0.744361 3.297767,-0.839611 c 4.385381,-1.217083 8.735484,-2.744611 13.297959,-4.339167 2.293056,-0.769055 4.621742,-1.559278 7.115881,-2.187222 2.130425,-0.511528 4.380089,-0.913695 6.756753,-0.913695 0.419101,0 0.842081,0.01411 1.269295,0.03881 0.426861,-0.0247 0.850194,-0.03881 1.27,-0.03881 2.377722,0 4.628445,0.402167 6.766278,0.913695 2.483556,0.627944 4.8260006,1.418167 7.1190563,2.187222 4.55083361,1.594556 8.9005839,3.122084 13.2856119,4.339167 l 3.2949448,0.839611 3.298472,0.744361 3.323167,0.578556 c 1.097139,0.186972 2.208389,0.271639 3.319639,0.423333 1.100667,0.179917 2.2225,0.261056 3.347862,0.345723 1.068916,0.06703 2.137833,0.211666 3.220861,0.211666 0.0388,0 0.08114,0 0.123472,0 l 3.354917,0.07056 3.287889,-0.07056 c 1.890889,-0.09172 3.771195,-0.289277 5.633862,-0.589139 -1.866195,3.792362 -3.615973,7.665862 -5.115279,11.627557 -0.0071,0 -0.01411,0 -0.02117,0 -1.093611,0.03175 -2.208389,0.08819 -3.302,0.08819 M 72.721644,3.0550077 c -1.068917,-2.2366112 -2.194278,-4.2686113 -3.323167,-6.2371115 1.128889,1.9685002 2.257778,4.0005003 3.323167,6.2371115"
       style="fill:#028aa8;fill-opacity:1;fill-rule:nonzero;stroke:none;stroke-width:0.0352778" />
    <path
       id="path10"
       d="M 66.74206,-0.19407579 C 65.44031,-2.8363815 64.089171,-5.2564372 62.783893,-7.7258818 58.868059,-15.123632 55.382615,-22.987049 55.100392,-38.752689 54.483031,-71.589247 61.376309,-123.62397 63.31306,-137.58339 h 4.953 c 0,0 -9.235723,58.275365 -9.235723,95.9732 0,1.432278 0.01411,2.836334 0.03881,4.205112 0.310444,15.423445 3.986389,23.121057 8.110361,30.3635851 0,0.00353 0.0035,0.00353 0.0035,0.00706 -0.05997,2.1590001 -0.211667,4.4308891 -0.440972,6.84036151"
       style="fill:#028aa8;fill-opacity:1;fill-rule:nonzero;stroke:none;stroke-width:0.0352778" />
    <path
       id="path11"
       d="m -74.372588,88.691819 c -2.487083,-0.15875 -4.979106,-0.458611 -7.45102,-0.927806 -1.834092,-4.335639 -3.963811,-8.611306 -6.197247,-12.848167 2.779536,0.966611 5.632803,1.68275 8.532283,2.148416 1.865842,3.788834 3.614562,7.665862 5.115984,11.627557 m -34.960982,-75.55795 c -0.44874,-3.5066108 -0.81633,-6.9179722 -1.08162,-10.0788613 1.77447,-3.71122241 3.71158,-6.8544726 5.54038,-10.0965006 0.0607,2.1590001 0.2106,4.434417 0.43885,6.84741711 -0.44415,0.89958339 -0.88406,1.82386119 -1.31586,2.78694459 -1.33138,3.0338891 -2.56822,6.4346671 -3.58175,10.5410002"
       style="fill:#b1cba2;fill-opacity:1;fill-rule:nonzero;stroke:none;stroke-width:0.0352778" />
    <path
       id="path12"
       d="m 36.681863,88.691819 c 1.499306,-3.961695 3.249084,-7.835195 5.115279,-11.627557 2.899833,-0.465666 5.753806,-1.181805 8.530167,-2.148416 -2.233084,4.236861 -4.363862,8.516056 -6.194778,12.848167 -2.472973,0.469195 -4.963584,0.772583 -7.450668,0.927806 m 34.96028,-75.55795 C 70.626143,9.0275359 69.391421,5.6267579 68.054393,2.5928688 67.624004,1.6297854 67.18656,0.7055076 66.74206,-0.19407579 c 0.229305,-2.40947241 0.381,-4.68136141 0.440972,-6.84036151 0.726722,1.2841112 1.471084,2.557639 2.215445,3.8523335 1.128889,1.9685002 2.25425,4.0005003 3.323167,6.2371115 v 0 C 72.45706,6.2158968 72.090171,9.6272582 71.642143,13.133869"
       style="fill:#b1cba2;fill-opacity:1;fill-rule:nonzero;stroke:none;stroke-width:0.0352778" />
  </g>
</svg>
