<?xml version="1.0" encoding="UTF-8" standalone="no"?>
<!-- Created with Inkscape (http://www.inkscape.org/) -->

<svg
   width="58.197289mm"
   height="63.261875mm"
   viewBox="0 0 58.197289 63.261875"
   version="1.1"
   id="svg1"
   inkscape:version="1.4.2 (f4327f4, 2025-05-13)"
   sodipodi:docname="tan-top.svg"
   xmlns:inkscape="http://www.inkscape.org/namespaces/inkscape"
   xmlns:sodipodi="http://sodipodi.sourceforge.net/DTD/sodipodi-0.dtd"
   xmlns="http://www.w3.org/2000/svg"
   xmlns:svg="http://www.w3.org/2000/svg">
  <sodipodi:namedview
     id="namedview1"
     pagecolor="#ffffff"
     bordercolor="#000000"
     borderopacity="0.25"
     inkscape:showpageshadow="2"
     inkscape:pageopacity="0.0"
     inkscape:pagecheckerboard="0"
     inkscape:deskcolor="#d1d1d1"
     inkscape:document-units="mm"
     inkscape:zoom="0.69753788"
     inkscape:cx="12.902525"
     inkscape:cy="184.21939"
     inkscape:window-width="1920"
     inkscape:window-height="1001"
     inkscape:window-x="-9"
     inkscape:window-y="-9"
     inkscape:window-maximized="1"
     inkscape:current-layer="layer1" />
  <defs
     id="defs1" />
  <g
     inkscape:label="Layer 1"
     inkscape:groupmode="layer"
     id="layer1"
     transform="translate(-101.51458,-99.739871)">
    <g
       id="g85"
       transform="matrix(0.26458333,0,0,0.26458333,-96.764167,73.387371)">
				<path
   class="st39"
   d="m 966.7,205.9 c -6.3,-30.5 -18.4,-76 -34,-94.8 -8.2,-9.9 -34.9,-11.2 -34.9,-11.2 0,0 4.2,38.4 -37.9,38.4 -37.1,0 -38.1,-38.7 -38.1,-38.7 0,0 -26.4,1.5 -34.7,11.5 -15.6,18.8 -27.7,64.3 -34,94.8 -3.6,17.4 -3.7,26.6 -3.7,26.6 0,0 7.1,0.1 14.8,2.2 8.4,2.3 12.1,5.2 12.1,5.2 0,0 6,-7.6 12.8,-25.1 6,-15.5 9.1,-35.8 9.1,-35.8 -0.3,7.2 2.3,32.4 6.7,52.4 2.8,12.9 -20.5,91.3 -20.5,91.3 0,0 29,16 75.3,16 45.1,0 74.7,-16 74.7,-16 0,0 -22.2,-78.4 -19.4,-91.3 4.4,-20.1 6.9,-45.2 6.7,-52.4 0,0 3.1,20.4 9.1,35.8 6.8,17.5 11.6,25.7 11.6,25.7 0,0 4.8,-3.4 13.2,-5.7 7.7,-2.1 13.6,-2.2 13.6,-2.2 0,0 1.1,-9.3 -2.5,-26.7 z"
   id="path82"
   style="fill:#ffc954" />

				<g
   id="g84">
					<g
   id="g83">
						<path
   class="st41"
   d="m 859.9,155.8 c 51.4,0 57.8,-37.3 58.2,-52.5 -9.8,-2.8 -20.3,-3.3 -20.3,-3.3 0,0 4.2,38.4 -37.9,38.4 -37.1,0 -38.1,-38.7 -38.1,-38.7 0,0 -10,0.6 -19.6,3.3 2.3,15.4 12.5,52.8 57.7,52.8 z"
   id="path83"
   style="fill:#f68333" />

					</g>

				</g>

			</g>
  </g>
</svg>
