<?xml version="1.0" encoding="UTF-8" standalone="no"?>
<!-- Created with Inkscape (http://www.inkscape.org/) -->

<svg
   width="122.66084mm"
   height="56.144581mm"
   viewBox="0 0 122.66084 56.144581"
   version="1.1"
   id="svg1"
   inkscape:version="1.4.2 (f4327f4, 2025-05-13)"
   sodipodi:docname="watermelon.svg"
   xmlns:inkscape="http://www.inkscape.org/namespaces/inkscape"
   xmlns:sodipodi="http://sodipodi.sourceforge.net/DTD/sodipodi-0.dtd"
   xmlns="http://www.w3.org/2000/svg"
   xmlns:svg="http://www.w3.org/2000/svg">
  <sodipodi:namedview
     id="namedview1"
     pagecolor="#ffffff"
     bordercolor="#000000"
     borderopacity="0.25"
     inkscape:showpageshadow="2"
     inkscape:pageopacity="0.0"
     inkscape:pagecheckerboard="0"
     inkscape:deskcolor="#d1d1d1"
     inkscape:document-units="mm"
     inkscape:zoom="0.69753788"
     inkscape:cx="196.4051"
     inkscape:cy="168.44963"
     inkscape:window-width="1920"
     inkscape:window-height="1001"
     inkscape:window-x="-9"
     inkscape:window-y="-9"
     inkscape:window-maximized="1"
     inkscape:current-layer="layer1" />
  <defs
     id="defs1" />
  <g
     inkscape:label="Layer 1"
     inkscape:groupmode="layer"
     id="layer1"
     transform="translate(-53.181248,-103.98125)">
    <g
       id="g33"
       transform="matrix(0.26458333,0,0,0.26458333,-98.58375,-50.27083)">
	<g
   id="g20">
		<path
   class="st9"
   d="m 1037.2,584.2 c 0,115.9 -103.8,209.9 -231.8,209.9 -128,0 -231.8,-94 -231.8,-209.9"
   id="path18"
   style="fill:#55cd69" />

		<path
   class="st10"
   d="m 611,583.6 c 0,97 87,179 194.5,179 107.5,0 194.7,-80.3 194.7,-177.3 z"
   id="path19"
   style="fill:#ff6664" />

		<path
   class="st11"
   d="M 805.5,768.4 C 693.1,768.4 601.7,684 601.7,583 h 18.2 c 0,91 83.3,167.2 185.6,167.2 102.3,0 185.6,-76.2 185.6,-167.2 h 18.2 c 0,101 -91.5,185.4 -203.8,185.4 z"
   id="path20"
   style="fill:#ffffff" />

	</g>

	<g
   id="g31">
		<g
   id="g25">
			<path
   class="st12"
   d="m 714,617.5 c 0,4.2 -3.4,7.5 -7.5,7.5 h -20.9 c -4.2,0 -7.5,-3.4 -7.5,-7.5 v -0.9 c 0,-4.2 3.4,-7.5 7.5,-7.5 h 20.9 c 4.2,0 7.5,3.4 7.5,7.5 z"
   id="path21"
   style="fill:#47372c" />

			<path
   class="st12"
   d="m 749,662.3 c 0,4.2 -2.4,6.7 -6.6,6.7 h -21.1 c -4.2,0 -9.3,-2.5 -9.3,-6.7 v -0.8 c 0,-4.2 5.2,-8.6 9.3,-8.6 h 21.1 c 4.2,0 6.6,4.4 6.6,8.6 z"
   id="path22"
   style="fill:#47372c" />

			<path
   class="st12"
   d="m 823,662.3 c 0,4.2 -1.8,6.7 -6,6.7 h -21.1 c -4.2,0 -8.9,-2.5 -8.9,-6.7 v -0.8 c 0,-4.2 4.8,-8.6 8.9,-8.6 H 817 c 4.2,0 6,4.4 6,8.6 z"
   id="path23"
   style="fill:#47372c" />

			<path
   class="st12"
   d="m 785,617.1 c 0,4.2 -2.2,6.9 -6.4,6.9 h -21.1 c -4.2,0 -8.5,-2.7 -8.5,-6.9 v -0.8 c 0,-4.2 4.3,-7.3 8.5,-7.3 h 21.1 c 4.2,0 6.4,3.2 6.4,7.3 z"
   id="path24"
   style="fill:#47372c" />

			<path
   class="st12"
   d="m 785,703 c 0,4.2 -2.2,7 -6.4,7 h -21.1 c -4.2,0 -8.5,-2.8 -8.5,-7 v -0.8 c 0,-4.2 4.3,-8.2 8.5,-8.2 h 21.1 c 4.2,0 6.4,4.1 6.4,8.2 z"
   id="path25"
   style="fill:#47372c" />

		</g>

		<g
   id="g30">
			<path
   class="st12"
   d="m 932,616.5 c 0,-4.2 -3.4,-7.5 -7.5,-7.5 h -20.9 c -4.2,0 -7.5,3.4 -7.5,7.5 v 0.9 c 0,4.2 3.4,7.5 7.5,7.5 h 20.9 c 4.2,0 7.5,-3.4 7.5,-7.5 z"
   id="path26"
   style="fill:#47372c" />

			<path
   class="st12"
   d="m 862,662.3 c 0,4.2 4.4,6.7 8.5,6.7 h 21.1 c 4.2,0 6.4,-2.5 6.4,-6.7 v -0.8 c 0,-4.2 -2.2,-8.6 -6.4,-8.6 h -21.1 c -4.2,0 -8.5,4.4 -8.5,8.6 z"
   id="path27"
   style="fill:#47372c" />

			<path
   class="st12"
   d="m 787,662.3 c 0,4.2 4.8,6.7 8.9,6.7 H 817 c 4.2,0 6,-2.5 6,-6.7 v -0.8 c 0,-4.2 -1.8,-8.6 -6,-8.6 h -21.1 c -4.2,0 -8.9,4.4 -8.9,8.6 z"
   id="path28"
   style="fill:#47372c" />

			<path
   class="st12"
   d="m 862,616.5 c 0,-4.2 -3.4,-7.5 -7.5,-7.5 h -20.9 c -4.2,0 -7.5,3.4 -7.5,7.5 v 0.9 c 0,4.2 3.4,7.5 7.5,7.5 h 20.9 c 4.2,0 7.5,-3.4 7.5,-7.5 z"
   id="path29"
   style="fill:#47372c" />

			<path
   class="st12"
   d="m 862,701.5 c 0,-4.2 -3.4,-7.5 -7.5,-7.5 h -20.9 c -4.2,0 -7.5,3.4 -7.5,7.5 v 0.9 c 0,4.2 3.4,7.5 7.5,7.5 h 20.9 c 4.2,0 7.5,-3.4 7.5,-7.5 z"
   id="path30"
   style="fill:#47372c" />

		</g>

	</g>

	<g
   class="st13"
   id="g32"
   style="opacity:0.2">
		<path
   class="st12"
   d="m 1037.2,585 h -28 c 0,-2 0,-2 0,-2 H 991 c 0,0 0,0 0,2 H 805 V 795.2 C 935,794.7 1037.2,700 1037.2,585 Z"
   id="path31"
   style="fill:#47372c" />

	</g>

</g>
  </g>
</svg>
